<mxfile host="app.diagrams.net" modified="2023-09-06T12:23:45.094Z" agent="Mozilla/5.0 (Macintosh; Intel Mac OS X 10_15_7) AppleWebKit/537.36 (KHTML, like Gecko) Chrome/116.0.0.0 Safari/537.36" etag="PHj0pML-ewwH00m-87FB" version="21.7.2" type="github">
  <diagram name="Page-1" id="7a6c530e-6e37-e111-ec74-82921da8cc10">
    <mxGraphModel dx="3060" dy="2028" grid="0" gridSize="10" guides="1" tooltips="1" connect="1" arrows="1" fold="1" page="1" pageScale="1.5" pageWidth="1169" pageHeight="826" background="#ada9a9" math="0" shadow="0">
      <root>
        <mxCell id="0" style=";html=1;" />
        <mxCell id="1" style=";html=1;" parent="0" />
        <mxCell id="23046e2b9bb16c14-116" value="Availability" style="whiteSpace=wrap;html=1;rounded=1;shadow=0;strokeColor=#e3f5fd;strokeWidth=2;fillColor=#A9C4EB;fontSize=20;fontColor=#FFFFFF;align=center;arcSize=3;verticalAlign=top;spacingTop=4;dashed=1;" parent="1" vertex="1">
          <mxGeometry x="983" y="160" width="605" height="499" as="geometry" />
        </mxCell>
        <mxCell id="23046e2b9bb16c14-28" value="&lt;font style=&quot;font-size: 15px;&quot;&gt;Final Assembly&lt;/font&gt;" style="rounded=1;whiteSpace=wrap;html=1;shadow=0;strokeWidth=2;fillColor=#F04D22;fontSize=12;fontColor=#FFFFFF;align=center;strokeColor=none;arcSize=6;verticalAlign=top;" parent="1" vertex="1">
          <mxGeometry x="1041" y="226.75" width="136" height="401" as="geometry" />
        </mxCell>
        <mxCell id="23046e2b9bb16c14-49" value="" style="rounded=1;whiteSpace=wrap;html=1;shadow=0;strokeWidth=2;fillColor=none;fontSize=12;fontColor=#000000;align=center;strokeColor=#FFFFFF;arcSize=25;" parent="1" vertex="1">
          <mxGeometry x="1077" y="277.25" width="61" height="310.5" as="geometry" />
        </mxCell>
        <mxCell id="23046e2b9bb16c14-113" value="OEE (Phase 1)" style="text;strokeColor=none;fillColor=none;html=1;fontSize=24;fontStyle=1;verticalAlign=middle;align=center;rounded=0;shadow=0;fontColor=#FFFFFF;" parent="1" vertex="1">
          <mxGeometry x="173" y="84" width="1510" height="40" as="geometry" />
        </mxCell>
        <mxCell id="4nJU_JI3p5gW26Q9vRMl-5" value="" style="group" parent="1" vertex="1" connectable="0">
          <mxGeometry x="1082.37" y="277.25" width="45" height="32" as="geometry" />
        </mxCell>
        <mxCell id="24964f25f45c63f1-1" value="&lt;p style=&quot;line-height: 0%;&quot;&gt;&lt;br&gt;&lt;/p&gt;" style="verticalLabelPosition=bottom;html=1;verticalAlign=top;strokeColor=none;fillColor=#FFFFFF;shape=mxgraph.azure.computer;rounded=0;shadow=0;fontSize=12;fontColor=#000000;align=center;" parent="4nJU_JI3p5gW26Q9vRMl-5" vertex="1">
          <mxGeometry x="17.259999999999998" y="23.5" width="15.24" height="11.5" as="geometry" />
        </mxCell>
        <mxCell id="4nJU_JI3p5gW26Q9vRMl-3" value="&lt;font style=&quot;font-size: 8px;&quot; color=&quot;#ffffff&quot;&gt;Station 1&lt;/font&gt;" style="text;html=1;strokeColor=none;fillColor=none;align=center;verticalAlign=middle;whiteSpace=wrap;rounded=0;" parent="4nJU_JI3p5gW26Q9vRMl-5" vertex="1">
          <mxGeometry x="2.38" y="31.5" width="45" height="16" as="geometry" />
        </mxCell>
        <mxCell id="4nJU_JI3p5gW26Q9vRMl-6" value="" style="group" parent="1" vertex="1" connectable="0">
          <mxGeometry x="1084.75" y="318.75" width="45" height="32" as="geometry" />
        </mxCell>
        <mxCell id="4nJU_JI3p5gW26Q9vRMl-7" value="&lt;p style=&quot;line-height: 0%;&quot;&gt;&lt;br&gt;&lt;/p&gt;" style="verticalLabelPosition=bottom;html=1;verticalAlign=top;strokeColor=none;fillColor=#FFFFFF;shape=mxgraph.azure.computer;rounded=0;shadow=0;fontSize=12;fontColor=#000000;align=center;" parent="4nJU_JI3p5gW26Q9vRMl-6" vertex="1">
          <mxGeometry x="14.879999999999999" y="8" width="15.24" height="11.5" as="geometry" />
        </mxCell>
        <mxCell id="4nJU_JI3p5gW26Q9vRMl-8" value="&lt;font style=&quot;font-size: 8px;&quot; color=&quot;#ffffff&quot;&gt;Station 2&lt;/font&gt;" style="text;html=1;strokeColor=none;fillColor=none;align=center;verticalAlign=middle;whiteSpace=wrap;rounded=0;" parent="4nJU_JI3p5gW26Q9vRMl-6" vertex="1">
          <mxGeometry y="16" width="45" height="16" as="geometry" />
        </mxCell>
        <mxCell id="4nJU_JI3p5gW26Q9vRMl-9" value="" style="group" parent="1" vertex="1" connectable="0">
          <mxGeometry x="1084.75" y="343.75" width="45" height="32" as="geometry" />
        </mxCell>
        <mxCell id="4nJU_JI3p5gW26Q9vRMl-10" value="&lt;p style=&quot;line-height: 0%;&quot;&gt;&lt;br&gt;&lt;/p&gt;" style="verticalLabelPosition=bottom;html=1;verticalAlign=top;strokeColor=none;fillColor=#FFFFFF;shape=mxgraph.azure.computer;rounded=0;shadow=0;fontSize=12;fontColor=#000000;align=center;" parent="4nJU_JI3p5gW26Q9vRMl-9" vertex="1">
          <mxGeometry x="14.879999999999999" y="8" width="15.24" height="11.5" as="geometry" />
        </mxCell>
        <mxCell id="4nJU_JI3p5gW26Q9vRMl-11" value="&lt;font style=&quot;font-size: 8px;&quot; color=&quot;#ffffff&quot;&gt;Station 3&lt;/font&gt;" style="text;html=1;strokeColor=none;fillColor=none;align=center;verticalAlign=middle;whiteSpace=wrap;rounded=0;" parent="4nJU_JI3p5gW26Q9vRMl-9" vertex="1">
          <mxGeometry y="16" width="45" height="16" as="geometry" />
        </mxCell>
        <mxCell id="4nJU_JI3p5gW26Q9vRMl-12" value="" style="group" parent="1" vertex="1" connectable="0">
          <mxGeometry x="1084.75" y="368.75" width="45" height="32" as="geometry" />
        </mxCell>
        <mxCell id="4nJU_JI3p5gW26Q9vRMl-13" value="&lt;p style=&quot;line-height: 0%;&quot;&gt;&lt;br&gt;&lt;/p&gt;" style="verticalLabelPosition=bottom;html=1;verticalAlign=top;strokeColor=none;fillColor=#FFFFFF;shape=mxgraph.azure.computer;rounded=0;shadow=0;fontSize=12;fontColor=#000000;align=center;" parent="4nJU_JI3p5gW26Q9vRMl-12" vertex="1">
          <mxGeometry x="14.879999999999999" y="8" width="15.24" height="11.5" as="geometry" />
        </mxCell>
        <mxCell id="4nJU_JI3p5gW26Q9vRMl-14" value="&lt;font style=&quot;font-size: 8px;&quot; color=&quot;#ffffff&quot;&gt;Station 4&lt;/font&gt;" style="text;html=1;strokeColor=none;fillColor=none;align=center;verticalAlign=middle;whiteSpace=wrap;rounded=0;" parent="4nJU_JI3p5gW26Q9vRMl-12" vertex="1">
          <mxGeometry y="16" width="45" height="16" as="geometry" />
        </mxCell>
        <mxCell id="4nJU_JI3p5gW26Q9vRMl-15" value="" style="group" parent="1" vertex="1" connectable="0">
          <mxGeometry x="1085.25" y="395.75" width="45" height="32" as="geometry" />
        </mxCell>
        <mxCell id="4nJU_JI3p5gW26Q9vRMl-16" value="&lt;p style=&quot;line-height: 0%;&quot;&gt;&lt;br&gt;&lt;/p&gt;" style="verticalLabelPosition=bottom;html=1;verticalAlign=top;strokeColor=none;fillColor=#FFFFFF;shape=mxgraph.azure.computer;rounded=0;shadow=0;fontSize=12;fontColor=#000000;align=center;" parent="4nJU_JI3p5gW26Q9vRMl-15" vertex="1">
          <mxGeometry x="14.879999999999999" y="8" width="15.24" height="11.5" as="geometry" />
        </mxCell>
        <mxCell id="4nJU_JI3p5gW26Q9vRMl-17" value="&lt;font style=&quot;font-size: 8px;&quot; color=&quot;#ffffff&quot;&gt;Station 5&lt;/font&gt;" style="text;html=1;strokeColor=none;fillColor=none;align=center;verticalAlign=middle;whiteSpace=wrap;rounded=0;" parent="4nJU_JI3p5gW26Q9vRMl-15" vertex="1">
          <mxGeometry y="16" width="45" height="16" as="geometry" />
        </mxCell>
        <mxCell id="4nJU_JI3p5gW26Q9vRMl-18" value="" style="group" parent="1" vertex="1" connectable="0">
          <mxGeometry x="1085.25" y="421.75" width="45" height="32" as="geometry" />
        </mxCell>
        <mxCell id="4nJU_JI3p5gW26Q9vRMl-19" value="&lt;p style=&quot;line-height: 0%;&quot;&gt;&lt;br&gt;&lt;/p&gt;" style="verticalLabelPosition=bottom;html=1;verticalAlign=top;strokeColor=none;fillColor=#FFFFFF;shape=mxgraph.azure.computer;rounded=0;shadow=0;fontSize=12;fontColor=#000000;align=center;" parent="4nJU_JI3p5gW26Q9vRMl-18" vertex="1">
          <mxGeometry x="14.879999999999999" y="8" width="15.24" height="11.5" as="geometry" />
        </mxCell>
        <mxCell id="4nJU_JI3p5gW26Q9vRMl-20" value="&lt;font style=&quot;font-size: 8px;&quot; color=&quot;#ffffff&quot;&gt;Station 6&lt;br&gt;&lt;/font&gt;" style="text;html=1;strokeColor=none;fillColor=none;align=center;verticalAlign=middle;whiteSpace=wrap;rounded=0;" parent="4nJU_JI3p5gW26Q9vRMl-18" vertex="1">
          <mxGeometry y="16" width="45" height="16" as="geometry" />
        </mxCell>
        <mxCell id="4nJU_JI3p5gW26Q9vRMl-27" value="&lt;p style=&quot;line-height: 0%;&quot;&gt;&lt;br&gt;&lt;/p&gt;" style="verticalLabelPosition=bottom;html=1;verticalAlign=top;strokeColor=none;fillColor=#FFFFFF;shape=mxgraph.azure.computer;rounded=0;shadow=0;fontSize=12;fontColor=#000000;align=center;" parent="4nJU_JI3p5gW26Q9vRMl-18" vertex="1">
          <mxGeometry x="14.379999999999999" y="84" width="15.24" height="11.5" as="geometry" />
        </mxCell>
        <mxCell id="4nJU_JI3p5gW26Q9vRMl-28" value="&lt;font style=&quot;font-size: 8px;&quot; color=&quot;#ffffff&quot;&gt;Station 9&lt;br&gt;&lt;/font&gt;" style="text;html=1;strokeColor=none;fillColor=none;align=center;verticalAlign=middle;whiteSpace=wrap;rounded=0;" parent="4nJU_JI3p5gW26Q9vRMl-18" vertex="1">
          <mxGeometry x="-0.5" y="92" width="45" height="16" as="geometry" />
        </mxCell>
        <mxCell id="4nJU_JI3p5gW26Q9vRMl-21" value="" style="group" parent="1" vertex="1" connectable="0">
          <mxGeometry x="1085.25" y="446.75" width="45" height="32" as="geometry" />
        </mxCell>
        <mxCell id="4nJU_JI3p5gW26Q9vRMl-22" value="&lt;p style=&quot;line-height: 0%;&quot;&gt;&lt;br&gt;&lt;/p&gt;" style="verticalLabelPosition=bottom;html=1;verticalAlign=top;strokeColor=none;fillColor=#FFFFFF;shape=mxgraph.azure.computer;rounded=0;shadow=0;fontSize=12;fontColor=#000000;align=center;" parent="4nJU_JI3p5gW26Q9vRMl-21" vertex="1">
          <mxGeometry x="14.879999999999999" y="8" width="15.24" height="11.5" as="geometry" />
        </mxCell>
        <mxCell id="4nJU_JI3p5gW26Q9vRMl-23" value="&lt;font style=&quot;font-size: 8px;&quot; color=&quot;#ffffff&quot;&gt;Station 7&lt;br&gt;&lt;/font&gt;" style="text;html=1;strokeColor=none;fillColor=none;align=center;verticalAlign=middle;whiteSpace=wrap;rounded=0;" parent="4nJU_JI3p5gW26Q9vRMl-21" vertex="1">
          <mxGeometry y="16" width="45" height="16" as="geometry" />
        </mxCell>
        <mxCell id="4nJU_JI3p5gW26Q9vRMl-24" value="" style="group" parent="1" vertex="1" connectable="0">
          <mxGeometry x="1085.25" y="471.75" width="45" height="32" as="geometry" />
        </mxCell>
        <mxCell id="4nJU_JI3p5gW26Q9vRMl-25" value="&lt;p style=&quot;line-height: 0%;&quot;&gt;&lt;br&gt;&lt;/p&gt;" style="verticalLabelPosition=bottom;html=1;verticalAlign=top;strokeColor=none;fillColor=#FFFFFF;shape=mxgraph.azure.computer;rounded=0;shadow=0;fontSize=12;fontColor=#000000;align=center;" parent="4nJU_JI3p5gW26Q9vRMl-24" vertex="1">
          <mxGeometry x="14.879999999999999" y="8" width="15.24" height="11.5" as="geometry" />
        </mxCell>
        <mxCell id="4nJU_JI3p5gW26Q9vRMl-26" value="&lt;font style=&quot;font-size: 8px;&quot; color=&quot;#ffffff&quot;&gt;Station 8&lt;/font&gt;" style="text;html=1;strokeColor=none;fillColor=none;align=center;verticalAlign=middle;whiteSpace=wrap;rounded=0;" parent="4nJU_JI3p5gW26Q9vRMl-24" vertex="1">
          <mxGeometry y="16" width="45" height="16" as="geometry" />
        </mxCell>
        <mxCell id="4nJU_JI3p5gW26Q9vRMl-29" value="" style="group" parent="1" vertex="1" connectable="0">
          <mxGeometry x="1084.75" y="522.75" width="45" height="32" as="geometry" />
        </mxCell>
        <mxCell id="4nJU_JI3p5gW26Q9vRMl-30" value="&lt;p style=&quot;line-height: 0%;&quot;&gt;&lt;br&gt;&lt;/p&gt;" style="verticalLabelPosition=bottom;html=1;verticalAlign=top;strokeColor=none;fillColor=#FFFFFF;shape=mxgraph.azure.computer;rounded=0;shadow=0;fontSize=12;fontColor=#000000;align=center;" parent="4nJU_JI3p5gW26Q9vRMl-29" vertex="1">
          <mxGeometry x="14.879999999999999" y="8" width="15.24" height="11.5" as="geometry" />
        </mxCell>
        <mxCell id="4nJU_JI3p5gW26Q9vRMl-31" value="&lt;font style=&quot;font-size: 8px;&quot; color=&quot;#ffffff&quot;&gt;Station 10&lt;br&gt;&lt;/font&gt;" style="text;html=1;strokeColor=none;fillColor=none;align=center;verticalAlign=middle;whiteSpace=wrap;rounded=0;" parent="4nJU_JI3p5gW26Q9vRMl-29" vertex="1">
          <mxGeometry y="16" width="45" height="16" as="geometry" />
        </mxCell>
        <mxCell id="4nJU_JI3p5gW26Q9vRMl-32" value="" style="group" parent="1" vertex="1" connectable="0">
          <mxGeometry x="1084.75" y="547.75" width="45" height="32" as="geometry" />
        </mxCell>
        <mxCell id="4nJU_JI3p5gW26Q9vRMl-33" value="&lt;p style=&quot;line-height: 0%;&quot;&gt;&lt;br&gt;&lt;/p&gt;" style="verticalLabelPosition=bottom;html=1;verticalAlign=top;strokeColor=none;fillColor=#FFFFFF;shape=mxgraph.azure.computer;rounded=0;shadow=0;fontSize=12;fontColor=#000000;align=center;" parent="4nJU_JI3p5gW26Q9vRMl-32" vertex="1">
          <mxGeometry x="14.879999999999999" y="8" width="15.24" height="11.5" as="geometry" />
        </mxCell>
        <mxCell id="4nJU_JI3p5gW26Q9vRMl-34" value="&lt;font style=&quot;font-size: 8px;&quot; color=&quot;#ffffff&quot;&gt;Station 11&lt;/font&gt;" style="text;html=1;strokeColor=none;fillColor=none;align=center;verticalAlign=middle;whiteSpace=wrap;rounded=0;" parent="4nJU_JI3p5gW26Q9vRMl-32" vertex="1">
          <mxGeometry y="16" width="45" height="16" as="geometry" />
        </mxCell>
        <mxCell id="4nJU_JI3p5gW26Q9vRMl-70" value="A" style="text;html=1;strokeColor=none;fillColor=none;align=center;verticalAlign=middle;whiteSpace=wrap;rounded=1;shadow=0;fontSize=11;fontColor=#FFFFFF;fontStyle=1" parent="1" vertex="1">
          <mxGeometry x="1148" y="600.25" width="20" height="20" as="geometry" />
        </mxCell>
        <mxCell id="4nJU_JI3p5gW26Q9vRMl-71" value="&lt;font style=&quot;font-size: 15px;&quot;&gt;Sepasoft OEE&lt;/font&gt;" style="rounded=1;whiteSpace=wrap;html=1;shadow=0;strokeWidth=2;fillColor=#0072bc;fontSize=12;fontColor=#FFFFFF;align=center;strokeColor=none;arcSize=6;verticalAlign=top;" parent="1" vertex="1">
          <mxGeometry x="1375.5" y="227.5" width="125" height="401" as="geometry" />
        </mxCell>
        <mxCell id="4nJU_JI3p5gW26Q9vRMl-74" value="" style="rounded=1;whiteSpace=wrap;html=1;shadow=0;strokeWidth=2;fillColor=none;fontSize=11;fontColor=#FFFFFF;align=center;strokeColor=#FFFFFF;dashed=1;verticalAlign=top;" parent="1" vertex="1">
          <mxGeometry x="1403.5" y="281.5" width="64" height="309.5" as="geometry" />
        </mxCell>
        <mxCell id="4nJU_JI3p5gW26Q9vRMl-109" value="" style="group" parent="1" vertex="1" connectable="0">
          <mxGeometry x="1412.75" y="322" width="45" height="32" as="geometry" />
        </mxCell>
        <mxCell id="4nJU_JI3p5gW26Q9vRMl-110" value="&lt;p style=&quot;line-height: 0%;&quot;&gt;&lt;br&gt;&lt;/p&gt;" style="verticalLabelPosition=bottom;html=1;verticalAlign=top;strokeColor=none;fillColor=#FFFFFF;shape=mxgraph.azure.computer;rounded=0;shadow=0;fontSize=12;fontColor=#000000;align=center;" parent="4nJU_JI3p5gW26Q9vRMl-109" vertex="1">
          <mxGeometry x="14.879999999999999" y="8" width="15.24" height="11.5" as="geometry" />
        </mxCell>
        <mxCell id="4nJU_JI3p5gW26Q9vRMl-111" value="&lt;font style=&quot;font-size: 8px;&quot; color=&quot;#ffffff&quot;&gt;Station 2&lt;/font&gt;" style="text;html=1;strokeColor=none;fillColor=none;align=center;verticalAlign=middle;whiteSpace=wrap;rounded=0;" parent="4nJU_JI3p5gW26Q9vRMl-109" vertex="1">
          <mxGeometry y="16" width="45" height="16" as="geometry" />
        </mxCell>
        <mxCell id="4nJU_JI3p5gW26Q9vRMl-112" value="" style="group" parent="1" vertex="1" connectable="0">
          <mxGeometry x="1412.75" y="347" width="45" height="32" as="geometry" />
        </mxCell>
        <mxCell id="4nJU_JI3p5gW26Q9vRMl-113" value="&lt;p style=&quot;line-height: 0%;&quot;&gt;&lt;br&gt;&lt;/p&gt;" style="verticalLabelPosition=bottom;html=1;verticalAlign=top;strokeColor=none;fillColor=#FFFFFF;shape=mxgraph.azure.computer;rounded=0;shadow=0;fontSize=12;fontColor=#000000;align=center;" parent="4nJU_JI3p5gW26Q9vRMl-112" vertex="1">
          <mxGeometry x="14.879999999999999" y="8" width="15.24" height="11.5" as="geometry" />
        </mxCell>
        <mxCell id="4nJU_JI3p5gW26Q9vRMl-114" value="&lt;font style=&quot;font-size: 8px;&quot; color=&quot;#ffffff&quot;&gt;Station 3&lt;/font&gt;" style="text;html=1;strokeColor=none;fillColor=none;align=center;verticalAlign=middle;whiteSpace=wrap;rounded=0;" parent="4nJU_JI3p5gW26Q9vRMl-112" vertex="1">
          <mxGeometry y="16" width="45" height="16" as="geometry" />
        </mxCell>
        <mxCell id="4nJU_JI3p5gW26Q9vRMl-115" value="" style="group" parent="1" vertex="1" connectable="0">
          <mxGeometry x="1412.75" y="372" width="45" height="32" as="geometry" />
        </mxCell>
        <mxCell id="4nJU_JI3p5gW26Q9vRMl-116" value="&lt;p style=&quot;line-height: 0%;&quot;&gt;&lt;br&gt;&lt;/p&gt;" style="verticalLabelPosition=bottom;html=1;verticalAlign=top;strokeColor=none;fillColor=#FFFFFF;shape=mxgraph.azure.computer;rounded=0;shadow=0;fontSize=12;fontColor=#000000;align=center;" parent="4nJU_JI3p5gW26Q9vRMl-115" vertex="1">
          <mxGeometry x="14.879999999999999" y="8" width="15.24" height="11.5" as="geometry" />
        </mxCell>
        <mxCell id="4nJU_JI3p5gW26Q9vRMl-117" value="&lt;font style=&quot;font-size: 8px;&quot; color=&quot;#ffffff&quot;&gt;Station 4&lt;/font&gt;" style="text;html=1;strokeColor=none;fillColor=none;align=center;verticalAlign=middle;whiteSpace=wrap;rounded=0;" parent="4nJU_JI3p5gW26Q9vRMl-115" vertex="1">
          <mxGeometry y="16" width="45" height="16" as="geometry" />
        </mxCell>
        <mxCell id="4nJU_JI3p5gW26Q9vRMl-118" value="" style="group" parent="1" vertex="1" connectable="0">
          <mxGeometry x="1413.25" y="399" width="45" height="32" as="geometry" />
        </mxCell>
        <mxCell id="4nJU_JI3p5gW26Q9vRMl-119" value="&lt;p style=&quot;line-height: 0%;&quot;&gt;&lt;br&gt;&lt;/p&gt;" style="verticalLabelPosition=bottom;html=1;verticalAlign=top;strokeColor=none;fillColor=#FFFFFF;shape=mxgraph.azure.computer;rounded=0;shadow=0;fontSize=12;fontColor=#000000;align=center;" parent="4nJU_JI3p5gW26Q9vRMl-118" vertex="1">
          <mxGeometry x="14.879999999999999" y="8" width="15.24" height="11.5" as="geometry" />
        </mxCell>
        <mxCell id="4nJU_JI3p5gW26Q9vRMl-120" value="&lt;font style=&quot;font-size: 8px;&quot; color=&quot;#ffffff&quot;&gt;Station 5&lt;/font&gt;" style="text;html=1;strokeColor=none;fillColor=none;align=center;verticalAlign=middle;whiteSpace=wrap;rounded=0;" parent="4nJU_JI3p5gW26Q9vRMl-118" vertex="1">
          <mxGeometry y="16" width="45" height="16" as="geometry" />
        </mxCell>
        <mxCell id="4nJU_JI3p5gW26Q9vRMl-121" value="" style="group" parent="1" vertex="1" connectable="0">
          <mxGeometry x="1413.25" y="425" width="45" height="32" as="geometry" />
        </mxCell>
        <mxCell id="4nJU_JI3p5gW26Q9vRMl-122" value="&lt;p style=&quot;line-height: 0%;&quot;&gt;&lt;br&gt;&lt;/p&gt;" style="verticalLabelPosition=bottom;html=1;verticalAlign=top;strokeColor=none;fillColor=#FFFFFF;shape=mxgraph.azure.computer;rounded=0;shadow=0;fontSize=12;fontColor=#000000;align=center;" parent="4nJU_JI3p5gW26Q9vRMl-121" vertex="1">
          <mxGeometry x="14.879999999999999" y="8" width="15.24" height="11.5" as="geometry" />
        </mxCell>
        <mxCell id="4nJU_JI3p5gW26Q9vRMl-123" value="&lt;font style=&quot;font-size: 8px;&quot; color=&quot;#ffffff&quot;&gt;Station 6&lt;br&gt;&lt;/font&gt;" style="text;html=1;strokeColor=none;fillColor=none;align=center;verticalAlign=middle;whiteSpace=wrap;rounded=0;" parent="4nJU_JI3p5gW26Q9vRMl-121" vertex="1">
          <mxGeometry y="16" width="45" height="16" as="geometry" />
        </mxCell>
        <mxCell id="4nJU_JI3p5gW26Q9vRMl-124" value="&lt;p style=&quot;line-height: 0%;&quot;&gt;&lt;br&gt;&lt;/p&gt;" style="verticalLabelPosition=bottom;html=1;verticalAlign=top;strokeColor=none;fillColor=#FFFFFF;shape=mxgraph.azure.computer;rounded=0;shadow=0;fontSize=12;fontColor=#000000;align=center;" parent="4nJU_JI3p5gW26Q9vRMl-121" vertex="1">
          <mxGeometry x="14.379999999999999" y="84" width="15.24" height="11.5" as="geometry" />
        </mxCell>
        <mxCell id="4nJU_JI3p5gW26Q9vRMl-125" value="&lt;font style=&quot;font-size: 8px;&quot; color=&quot;#ffffff&quot;&gt;Station 9&lt;br&gt;&lt;/font&gt;" style="text;html=1;strokeColor=none;fillColor=none;align=center;verticalAlign=middle;whiteSpace=wrap;rounded=0;" parent="4nJU_JI3p5gW26Q9vRMl-121" vertex="1">
          <mxGeometry x="-0.5" y="92" width="45" height="16" as="geometry" />
        </mxCell>
        <mxCell id="4nJU_JI3p5gW26Q9vRMl-126" value="" style="group" parent="1" vertex="1" connectable="0">
          <mxGeometry x="1413.25" y="450" width="45" height="32" as="geometry" />
        </mxCell>
        <mxCell id="4nJU_JI3p5gW26Q9vRMl-127" value="&lt;p style=&quot;line-height: 0%;&quot;&gt;&lt;br&gt;&lt;/p&gt;" style="verticalLabelPosition=bottom;html=1;verticalAlign=top;strokeColor=none;fillColor=#FFFFFF;shape=mxgraph.azure.computer;rounded=0;shadow=0;fontSize=12;fontColor=#000000;align=center;" parent="4nJU_JI3p5gW26Q9vRMl-126" vertex="1">
          <mxGeometry x="14.879999999999999" y="8" width="15.24" height="11.5" as="geometry" />
        </mxCell>
        <mxCell id="4nJU_JI3p5gW26Q9vRMl-128" value="&lt;font style=&quot;font-size: 8px;&quot; color=&quot;#ffffff&quot;&gt;Station 7&lt;br&gt;&lt;/font&gt;" style="text;html=1;strokeColor=none;fillColor=none;align=center;verticalAlign=middle;whiteSpace=wrap;rounded=0;" parent="4nJU_JI3p5gW26Q9vRMl-126" vertex="1">
          <mxGeometry y="16" width="45" height="16" as="geometry" />
        </mxCell>
        <mxCell id="4nJU_JI3p5gW26Q9vRMl-129" value="" style="group" parent="1" vertex="1" connectable="0">
          <mxGeometry x="1413.25" y="475" width="45" height="32" as="geometry" />
        </mxCell>
        <mxCell id="4nJU_JI3p5gW26Q9vRMl-130" value="&lt;p style=&quot;line-height: 0%;&quot;&gt;&lt;br&gt;&lt;/p&gt;" style="verticalLabelPosition=bottom;html=1;verticalAlign=top;strokeColor=none;fillColor=#FFFFFF;shape=mxgraph.azure.computer;rounded=0;shadow=0;fontSize=12;fontColor=#000000;align=center;" parent="4nJU_JI3p5gW26Q9vRMl-129" vertex="1">
          <mxGeometry x="14.879999999999999" y="8" width="15.24" height="11.5" as="geometry" />
        </mxCell>
        <mxCell id="4nJU_JI3p5gW26Q9vRMl-131" value="&lt;font style=&quot;font-size: 8px;&quot; color=&quot;#ffffff&quot;&gt;Station 8&lt;/font&gt;" style="text;html=1;strokeColor=none;fillColor=none;align=center;verticalAlign=middle;whiteSpace=wrap;rounded=0;" parent="4nJU_JI3p5gW26Q9vRMl-129" vertex="1">
          <mxGeometry y="16" width="45" height="16" as="geometry" />
        </mxCell>
        <mxCell id="4nJU_JI3p5gW26Q9vRMl-132" value="" style="group" parent="1" vertex="1" connectable="0">
          <mxGeometry x="1412.75" y="526" width="45" height="32" as="geometry" />
        </mxCell>
        <mxCell id="4nJU_JI3p5gW26Q9vRMl-133" value="&lt;p style=&quot;line-height: 0%;&quot;&gt;&lt;br&gt;&lt;/p&gt;" style="verticalLabelPosition=bottom;html=1;verticalAlign=top;strokeColor=none;fillColor=#FFFFFF;shape=mxgraph.azure.computer;rounded=0;shadow=0;fontSize=12;fontColor=#000000;align=center;" parent="4nJU_JI3p5gW26Q9vRMl-132" vertex="1">
          <mxGeometry x="14.879999999999999" y="8" width="15.24" height="11.5" as="geometry" />
        </mxCell>
        <mxCell id="4nJU_JI3p5gW26Q9vRMl-134" value="&lt;font style=&quot;font-size: 8px;&quot; color=&quot;#ffffff&quot;&gt;Station 10&lt;br&gt;&lt;/font&gt;" style="text;html=1;strokeColor=none;fillColor=none;align=center;verticalAlign=middle;whiteSpace=wrap;rounded=0;" parent="4nJU_JI3p5gW26Q9vRMl-132" vertex="1">
          <mxGeometry y="16" width="45" height="16" as="geometry" />
        </mxCell>
        <mxCell id="4nJU_JI3p5gW26Q9vRMl-135" value="" style="group" parent="1" vertex="1" connectable="0">
          <mxGeometry x="1412.75" y="551" width="45" height="32" as="geometry" />
        </mxCell>
        <mxCell id="4nJU_JI3p5gW26Q9vRMl-136" value="&lt;p style=&quot;line-height: 0%;&quot;&gt;&lt;br&gt;&lt;/p&gt;" style="verticalLabelPosition=bottom;html=1;verticalAlign=top;strokeColor=none;fillColor=#FFFFFF;shape=mxgraph.azure.computer;rounded=0;shadow=0;fontSize=12;fontColor=#000000;align=center;" parent="4nJU_JI3p5gW26Q9vRMl-135" vertex="1">
          <mxGeometry x="14.879999999999999" y="8" width="15.24" height="11.5" as="geometry" />
        </mxCell>
        <mxCell id="4nJU_JI3p5gW26Q9vRMl-137" value="&lt;font style=&quot;font-size: 8px;&quot; color=&quot;#ffffff&quot;&gt;Station 11&lt;/font&gt;" style="text;html=1;strokeColor=none;fillColor=none;align=center;verticalAlign=middle;whiteSpace=wrap;rounded=0;" parent="4nJU_JI3p5gW26Q9vRMl-135" vertex="1">
          <mxGeometry y="16" width="45" height="16" as="geometry" />
        </mxCell>
        <mxCell id="4nJU_JI3p5gW26Q9vRMl-138" value="" style="group" parent="1" vertex="1" connectable="0">
          <mxGeometry x="1412.75" y="296" width="45" height="32" as="geometry" />
        </mxCell>
        <mxCell id="4nJU_JI3p5gW26Q9vRMl-139" value="&lt;p style=&quot;line-height: 0%;&quot;&gt;&lt;br&gt;&lt;/p&gt;" style="verticalLabelPosition=bottom;html=1;verticalAlign=top;strokeColor=none;fillColor=#FFFFFF;shape=mxgraph.azure.computer;rounded=0;shadow=0;fontSize=12;fontColor=#000000;align=center;" parent="4nJU_JI3p5gW26Q9vRMl-138" vertex="1">
          <mxGeometry x="14.879999999999999" y="8" width="15.24" height="11.5" as="geometry" />
        </mxCell>
        <mxCell id="4nJU_JI3p5gW26Q9vRMl-140" value="&lt;font style=&quot;font-size: 8px;&quot; color=&quot;#ffffff&quot;&gt;Station 1&lt;/font&gt;" style="text;html=1;strokeColor=none;fillColor=none;align=center;verticalAlign=middle;whiteSpace=wrap;rounded=0;" parent="4nJU_JI3p5gW26Q9vRMl-138" vertex="1">
          <mxGeometry y="16" width="45" height="16" as="geometry" />
        </mxCell>
        <mxCell id="4nJU_JI3p5gW26Q9vRMl-142" value="B" style="text;html=1;strokeColor=none;fillColor=none;align=center;verticalAlign=middle;whiteSpace=wrap;rounded=1;shadow=0;fontSize=11;fontColor=#FFFFFF;fontStyle=1" parent="1" vertex="1">
          <mxGeometry x="1472.5" y="601" width="20" height="20" as="geometry" />
        </mxCell>
        <mxCell id="4nJU_JI3p5gW26Q9vRMl-144" value="" style="shape=flexArrow;endArrow=classic;html=1;rounded=1;entryX=0;entryY=0.25;entryDx=0;entryDy=0;endWidth=25.532879818594104;endSize=18.6;width=36.19047619047619;fillColor=default;" parent="1" edge="1">
          <mxGeometry width="50" height="50" relative="1" as="geometry">
            <mxPoint x="1201" y="322.5" as="sourcePoint" />
            <mxPoint x="1360.5" y="322" as="targetPoint" />
            <Array as="points">
              <mxPoint x="1242" y="322.5" />
            </Array>
          </mxGeometry>
        </mxCell>
        <mxCell id="4nJU_JI3p5gW26Q9vRMl-145" value="Operating Time&lt;br&gt;(Takt Time)" style="edgeLabel;html=1;align=center;verticalAlign=middle;resizable=0;points=[];" parent="4nJU_JI3p5gW26Q9vRMl-144" vertex="1" connectable="0">
          <mxGeometry x="0.1925" y="2" relative="1" as="geometry">
            <mxPoint x="-41" y="2" as="offset" />
          </mxGeometry>
        </mxCell>
        <mxCell id="4nJU_JI3p5gW26Q9vRMl-146" value="&lt;font color=&quot;#ffffff&quot;&gt;Station Control&lt;/font&gt;" style="text;html=1;strokeColor=none;fillColor=none;align=center;verticalAlign=middle;whiteSpace=wrap;rounded=0;" parent="1" vertex="1">
          <mxGeometry x="1042" y="247.25" width="134" height="30" as="geometry" />
        </mxCell>
        <mxCell id="4nJU_JI3p5gW26Q9vRMl-147" value="" style="shape=flexArrow;endArrow=classic;html=1;rounded=1;entryX=0;entryY=0.25;entryDx=0;entryDy=0;endWidth=25.532879818594104;endSize=18.6;width=36.19047619047619;fillColor=default;" parent="1" edge="1">
          <mxGeometry width="50" height="50" relative="1" as="geometry">
            <mxPoint x="1195.5" y="437.8" as="sourcePoint" />
            <mxPoint x="1355" y="437.3" as="targetPoint" />
            <Array as="points">
              <mxPoint x="1236.5" y="437.8" />
            </Array>
          </mxGeometry>
        </mxCell>
        <mxCell id="4nJU_JI3p5gW26Q9vRMl-148" value="Planned Production&lt;br&gt;(Crew Schedule)" style="edgeLabel;html=1;align=center;verticalAlign=middle;resizable=0;points=[];" parent="4nJU_JI3p5gW26Q9vRMl-147" vertex="1" connectable="0">
          <mxGeometry x="0.1925" y="2" relative="1" as="geometry">
            <mxPoint x="-23" y="3" as="offset" />
          </mxGeometry>
        </mxCell>
        <mxCell id="7tybCjJEZ4Tr8X-T8_t2-1" value="" style="shape=image;verticalLabelPosition=bottom;labelBackgroundColor=default;verticalAlign=top;aspect=fixed;imageAspect=0;image=data:image/png,iVBORw0KGgoAAAANSUhEUgAABLAAAALwCAYAAACHqYyZAAAAAXNSR0IArs4c6QAAIABJREFUeF7s3Qd409X+x/F32qZ7QVugzAJlLxmykSVTkHGRJSiI4LoKLkQcyN+9uSIOUAQBRUFFAWXLXiIIKENmy17dO03zf5K2UBAQJaUZnzzPfa5Acn7nvL4nTfrJOSeGyV+vtqCbBCQgAQlIQAISkIAEJCABCUhAAhKQgAQcVMDQoEEDBVgOWhx1SwISkIAEJCABCUhAAhKQgAQkIAEJSAAUYGkWSEACEpCABCQgAQlIQAISkIAEJCABCTi0wPkAa8aMGQ7dUXVOAhKQgAQkIAEJSEACEpCABCQgAQlIwD0FFGC5Z901aglIQAISkIAEJCABCUhAAhKQgAQk4DQCCrCcplTqqAQkIAEJSEACEpCABCQgAQlIQAIScE8BBVjuWXeNWgISkIAEJCABCUhAAhKQgAQkIAEJOI2AAiynKZU6KgEJSEACEpCABCQgAQlIQAISkIAE3FNAAZZ71l2jloAEJCABCUhAAhKQgAQkIAEJSEACTiOgAMtpSqWOSkACEpCABCQgAQlIQAISkIAEJCAB9xRQgOWeddeoJSABCUhAAhKQgAQkIAEJSEACEpCA0wj8owDrzJkznD17ltTUVKcZoDp6sYCXlxfBwcGEh4fb/l83CUhAAhKQgAQkIAEJSEACEpCAMwqkpKTYMorExERMJpMzDkF9BgICAmwZRURExFU9rjnAsoZXZrOZBg0aEBoaKmQnFcjKyuLo0aPExMTg6+tLSEiIk45E3ZaABCQgAQlIQAISkIAEJCABdxVITk4mLS2NMmXKUKFCBXx8fNyVwunHnZCQwNatW/Hw8KBEiRJXHM81B1i7d++mffv2Cq+cfmqANcQ6dOiQLcQqW7asC4xIQ5CABCQgAQlIQAISkIAEJCABdxI4ceIEJUuWpEqVKgqvXKDw1hBr+fLl1KhR4/oDrC1btnDXXXe5AIuGYBU4fPgwO3bsIDo6WiASkIAEJCABCUhAAhKQgAQkIAGnErD+Tlu5cmWqVavmVP1WZ68s8Pnnn9OoUSMFWJokFwsowNKMkIAEJCABCUhAAhKQgAQkIAFnFVCA5ayVU4DlepUr5BEpwCpkYDUvAQlIQAISkIAEJCABCUhAAoUmoACr0GiLrGGtwCoyese+sAIsx66PeicBCUhAAhKQgAQkIAEJSEACVxZQgOV6s0MBluvV1C4jcpwAaz8zB49ncYFR1Rk+kdG3OPA3XZpOsWftNrZs96PdqDaUxmLrvTn5BIe3/chK/74MaxRklzqpEQlIQAISkIAEJCABCUhAAhL4q4ACLNebFQqwXK+mdhmRYwRYueHVcUcPrC4VV4BllzmoRiQgAQlIQAISkIAEJCABCfxbAQVY/1bOcR+nAMtxa1OkPXOEAGv/zEGM5wVmDHLAb0I8t5W1sWYoVoeWUb4X1+oGB1j7Z77BsW6jae3Ai9KKdDLr4hKQgAQkIAEJSEACEpCA2wkowHK9kivAcr2a2mVERR9gxbP6zUeI6TWDwZfLrxLX8NYUuPfJVoTadujFs+btR4ntNZ07K1k4MOtuNjZ7Hv7vRZbSgeemDYJZd7Gp6bNYXnudn02teOS9/tQ0bGfaCzP45VwymUTT/bFh3FozkpDMnXyzIAFjyjK2/RnDoVNAzW7c1bMDzby2Mue7BSzfcdZmXbHFbXT/Tz8ahuVuFeRaAqx6BuJ2fs1j7622PcTgaaT20Dd5vKU1hcody6c7c5urPWwCT7Sy/v0BZg3ZSNPn4MUXl0KH55h2p3VY1lVq7/Gk7T66SUACEpCABCQgAQlIQAISkIACLNebAwqwXK+mdhlR0QdYB5h19xzKTBhDm2KXGVLiat74GEY8dcv5AMsaeMX2nsmgyhasq7deWtGVsR/dQRQGjN5eHJg5iJd/7sIT/+tNZW8j3sajzB+9hYqj2lMpIgDvlO189V4s1Qa2pk6Z4yx8fw6JtW6nTYt6lAs4zabp60kqXZWb2tch5MhK1h4x41uuKS0qBuDp6YmHIa+ffxtg/Yc7o5PY8tWP5PznHpoG5z7O4GXE6GHgwOx72NjgY+6IsgZi8ayfOJaTvabSv9I+Zg5+iRVdxvJRnyjwMOLtBdlZJix5j7VL8dWIBCQgAQlIQAISkIAEJCABJxdQgOXkBbxM9xVguV5N7TKiog+w4lj52mMc7zudgZXyVjYVHNk1BFhzSr3LU7dG4JH3OGuoNbfkOzzaLgIfTwPEfMfjby4hMcuMp8EAFjNZmRXoOnIoHSrHsezDPYTf2oyGDcsRZLBwct2n7LRUonyddpSPW8m6Izn4lm/+L7YQ3sGQWmYOr/iQV386Q1D7kbzbKyqvlweZPXQci7388bZ13EJ2Zjo17n2fJ1qeYebgOZR85yk6ROSPyi7lViMSkIAEJCABCUhAAhKQgARcSkABlkuV0zYYBViuV1O7jKjoAywLf34+mNd9XuTTfhX/OqZrCLDWN5nJXVUuPNQaYK1v/DkDq3jgZV0tdWguI78P4J4+DakQ7JsXdHni4++Hd+bvfDMvjsqNa1OrSjjewOmNU9hurkS52u2pcLUAiyQOb9zF7xszaVDgWwgzzx3kj58/ZVvUGIY1DMRsSiM1LZ2Mw4t58bNfqD5gPA81tYZUXxP+yn9pHnKh715+QfgbDzBz8Hoaf343VQ2XCfXsUnk1IgEJSEACEpCABCQgAQlIwPkFFGA5fw0vHYECLNerqV1GVPQBFmSf+onXn11A8Xtf5YEmefvs8kdnDbAePUafqQOphAWSNzBh5AeEP3NhC+HGZrNs2wnzb9YAa1PTGfSrbMgNsLL3MvupT/AY/BSda4UTbCxAl7qDufMTiG5Ui1rRYVj/6doDLAtJBzezeu1qYqPv4sHmJcGczKk9G/jhq1hqjRpG8+L5+w0tWDITOf37dzyzrw2f9C/Hrk+G817ouNxtghfdrN/KuJGmMwYTbR2zbhKQgAQkIAEJSEACEpCABCRwWQEFWK43MRRguV5N7TIiRwiwyMkg4dByJr+9jFN++VvmqtF33AiaBGaw/dNH+HRPkC1cokoPOntO4VS7fxBgkU1qzCq++ORn9qemk23NlMp3YGi/FlQPOsS8qwRY1bz2sXbBEpatO0Bo03bc2qUbdQqc1ZWTncKJPetY/sOPbD/nBRYfQiJq0X7Q7TQqEwApsWyYOZH5B6y7BA14GMrT5vEHuK20EVPKPpZMnsiKY/mJWt6Ygy8XYMUw7/H3ON1vHCMaXxLy2WUmqBEJSEACEpCABCQgAQlIQALOJ6AAy/lq9nc9VoD1d0Ju+u8OEWBZ7XPSOHcygczzdfAhtGQY/p6QlXics6l5/+ATSqhXAia/0oR45/5bet5/5z80/++CvSF//RM56SScSSTdnJO7psk7iOKhAfh4mEhJMWP09cHH29N2/+x0az+MGH0C8DaYSEtKJiU1A4NfIEHBwfh6FpwsFsxZ6aQkJpBqsv69B55GP0LCQvD1sB63lUVq/FmSsvIeY/AltERx27jATNq5UyScH3T+mLNIPJ6OX+kQ25bG3Jv1786SHVqSsNwH6yYBCUhAAhKQgAQkIAEJSMDtBRRgud4UUIDlejW1y4gcJsCyy2jUiAQkIAEJSEACEpCABCQgAQm4k4ACLNertgIs16upXUakAMsujGpEAhKQgAQkIAEJSEACEpCABIpAQAFWEaAX8iUVYBUysLM2rwDLWSunfktAAhKQgAQkIAEJSEACEpCAAizXmwMKsFyvpnYZkQIsuzCqEQlIQAISkIAEJCABCUhAAhIoAgEFWEWAXsiXVIBVyMDO2rwCLGetnPotAQlIQAISkIAEJCABCUhAAgqwXG8OKMByvZraZUQKsOzCqEYkIAEJSEACEpCABCQgAQlIoAgEFGAVAXohX1IBViEDO2vzCrCctXLqtwQkIAEJSEACEpCABCQgAQkowHK9OaAAy/VqapcRKcCyC6MakYAEJCABCUhAAhKQgAQkIIEiEFCAVQTohXxJBViFDOyszSvActbKqd8SkIAEJCABCUhAAhKQgAQkoADL9eaAAizXq6ldRqQAyy6MakQCEpCABCQgAQlIQAISkIAEikBAAVYRoBfyJRVgFTKwszavAMtZK6d+S0ACEpCABCQgAQlIQAISkIACLNebAwqwXK+mdhmRAiy7MKoRCUhAAhKQgAQkIAEJSEACEigCAQVYRYBeyJdUgFXIwM7avAIsZ62c+i0BCUhAAhKQgAQkIAEJSEACCrBcbw4owHK9mtplRAqw7MKoRiQgAQlIQAISkIAEJCABCUigCAQUYBUBeiFfUgFWIQM7a/MKsJy1cuq3BCQgAQlIQAISkIAEJCABCSjAcr05oADL9WpqlxEpwLILoxqRgAQkIAEJSEACEpCABCQggSIQUIBVBOiFfEkFWIUM7KzNK8By1sqp3xKQgAQkIAEJSEACEpCABCSgAMv15oACLNerqV1GpADLLoxqRAISkIAEJCABCUhAAhKQgASKQEABVhGgF/IlFWAVMrCzNq8Ay1krp35LQAISkIAEJCABCUhAAhKQgAIs15sDCrBcr6Z2GZECLLswqhEJSEACEpCABCQgAQlIQAISKAIBBVhFgF7Il1SAVcjAztq8AixnrZz6LQEJSEACEpCABCQgAQlIQAIKsFxvDijAcr2a2mVECrDswqhGJCABCUhAAhKQgAQkIAEJSKAIBBRgFQF6IV9SAVYhAztr8wqwnLVy6rcEJCABCUhAAhKQgAQkIAEJKMByvTmgAMv1amqXESnAsgujGpGABCQgAQlIQAISkIAEJCCBIhBQgFUE6IV8SQVYhQzsrM0rwHLWyqnfEpCABCQgAQlIQAISkIAEJKAAy/XmgAIs16upXUakAMsujGpEAhLIEzAlHSP2dBZBkRUoEeBhFxdzyimOnknFKzSSEsG+GD0Ndmm36BrJJun4YU6n+VMiqjTBXpfpScZZ9h9NgNCyRIf7Fl1XdWUJSKBQBSzpZzl8LBGv8LKUC/Up1GupcQlIQAKuKqAAy/UqqwDL9WpqlxEpwLILoxqRgBsJmEk5dYSz6ZcM2S+cciUDiVv9Mk9NieHmke/wQKNAu7gkbfqQcZ9voXjHJ7mvfRVKBHpett3stDjiElNIywT/kOKEBAfic/m72qVf/76ReFa/+QhTdtTh3omjaR16mZb2z2Tw+MXQaRwzBkX/+0vpkf9AIJO4wydI8gunbIkAvAwFglJLJoknz5DsGUJ48QB8vDywT4xqISc7i4z0DDKzczB4eGL0DSDAMSfuP7B09ruayUg8x7nENEw5gIcR/4BggkMD8bUG6KZkjh9LI7hcSa7w4+jyAJd5XNbumTz8ynLC+4/jpdui7DSvLn95izmLtOQE4hNNePmHEBYRiPH8Xa1zMYPkuHMkZhrwDytFuL9D/gB1isllyckmPe4op1Mu7W4wkVHFsUaVFlMKcWfjSck0Y8GAp48/gcEhhAR442FJ51zMKQyRURQvylwzx0R6UiKJKWm2n1EWgwdG30BCQoLx9/HCw/aDMIeMxLMkJGfjFRRKSLA/RoOF7PQkEhOSSMWP4JBQQvy9CnV+O8XEUCcLTUABVqHRFlnDbhNgWbIzSYk/xYlEI5EVIwnSa+9VJ50jBFhZCUdJMkYSHlCwWFkkHE3Dv2wo3rYRWP98mhR8KRYZzsV3TeCo9R2CbzEiwwOwtWJO5ezJBDIslovG71+8FCF+XuQu4DCRciYDzyA/fHy9sK0VyckkJSGJ5LRMzNY/e/kRFBxMsL8x70XXQnZGOpmmHLwCAvGxzwKTIvvBoAtL4J8L5IcvBjyNec8bayO17uGdJ1pi2TKZd+YeoeKA0dxTN+ifN3+ZR1xbgJXN8fWz+GLBGnYc9aR6+zvo2a0tNcMc8UVAAZZdJobdG9nPzMHjWVLnXt56rBURBUOq7EMsemMyq4p3YmifJkSH++W+ZlznzfYL7JE9bNu2j6MpmXgZ/Qiv2pgmtStQzNceV7jODrrpw03Jf7Lh+7nMW7OPBJMBvIsRXasdt9/VkdohRrIP/cDY5/dw25UC6Cu4Xe5xpoMLeGXKOoJaP8DDncsXCJTsiW8hx5RB4vHdbFixlMWr4ohs1I27/3sLkVjAkkN2ViInD/zGynnfsvKkL40HPceIxsH27IRbtWVKPs3Orx7j3VUGPLyMee87rW8+b2Xs1IFE56RxavsS5sxZzG8nM8jBE79SVWnUtR/9W5bHN3kTkx58n9AXZjKo8sXvZW8YpDmNuNi9bFu9ipVbd3MyxYQZH4pXqE+LdrfQuHZFSgb74OWRyp6FnzJ3yQnCb+1Lt471KW1I4sgvi/hh0VoO+Dek6+23075Wsdz36LpJoBAEHDnAyk6MZc+RpNxRe/kQGBxOqchi+F71kzALGXFHOXI6kcxsI2EVqxIZcB0fnWXEc+DIafzCyhER4o/RCZ6MbhNgZZ3ZxfLJT/Pgl5X4YOW7dAkvhGfINTSZGR9LjKUEVYs79tYPRwiw9s8cxLfl32f0LQWXIVh/kdhI0xmDbS/ycacPsOLt6WyiIp2H9+bmiqUINkJOehyn9y7hzVm/4lGxC8MHNCO6mB8eyVv47NVv2GvKzg2ibJ8OnaPusFfoc1NpihkzSY7fx/L3/ySyZ1Nq1ytNgPVuKbtYMHsRG34/RpbRAyLq0aZDO26tXxofcshKjePg5i0cjoeozp2p7n8Nk0F3kYBLCeSHLwGUrVeNEnkvgIbSHbmnfy0C0+I4nZiFd0gJivt55D5HEyE0PAhzUjwpWdZPcI34h4QS7Jv34BwTqUnJpGVmYba+Tzd44mNd7RDgY3vTfy0BliU7lpWffsGi34+Smm3CHNmUrj260bVeRO4b5pxsMtNTSU3LIMtsyVvp4k+Avx/eBjOZaSmkpGWSbQGDhxfevgEEBvnZPkW2mE2kpySTkm4ix/YpufXT5wC8bfmCiaST50gPKE64MYME64oNiwEv3yBCg33ITkkgyfY4D7wDi1EswBqGXwiwhr39EPVIITMHPLwDKVYsAKP1/clFK7AqkHrmHMlmT4LCIgjIWzKRnXaWs0nZeAaFEZH/ly411270YK4SYBHH7gUr2BV2E23qVSDM/8K6levpZXb8YXas+YG5mxIoXsybrHMnOJ4eSO3BT3J/w8stzbueq+mx1yZgZv83oxk/L47gcjWJjvCC5NMcS6rCwBeHUteQxJ8/vcKr3wZyx3PDsWY81tVKwV7ZZCQnk5KRRXaO7QcJRr8gQoL88LKuRsm4wuNI4uS5NGsjlLK+sbHeLNmkJyeRkp77M9HDy5eA4CD8jJ54GHLITI4n2eSNv78n5vR00rNMWDy88QsMxN/XG6+LfsexYM5K4cy+TaxYtpxVO06TlRVOtSZ5AZYlG1PqWQ79tpqF85bwR0I2+IcrwLq2yXLFe+UHWP9baySsal3K+eXftRG9H72FConreXvUB/zmXYLo6mUJxkT88dN4d3mMsa1COLt+Go9/spGWD79Fj/KW86+pYCYrNYnElEzb3DB4+hAYEkyAd+7rae5rbg7BYSFYknNfc/HwJrBYMQJsLy4XP972eusXRHCQb17Ilt9PC6bYpXzwzrf8nuZFQHhpShf3xZgZz8lTpziTGkDdboPp3bYO5UKz2FswwLq1Fr4HV/D9D0vZfCaSFrd1o3ub6hRzgl+Yr7PsengRCjhygHVydg8iByyleOkw/IpFULNOX0a+NZKuZfyusioxkbX/N5C7pm/FnB3FPV+tZFzT61iOuWMqTQa8QP1HZvF0/1ZUCCnCYl3jpRVgWd8P5GSRGh9PQnI62Z5GAkLCCQv2wQMLWclnOZOQSo5HAKFBHpyLMxNRrgQBnhZMqfHExSeRnu2JMSCE8LBgfDzMpJ4+whkiKFfCuuonk8TDJ4gvFklZr0SWv96JzpnPc+iB+hSLjCLkOubbNdb4X93NKQKs5E18/PwxOr3bmygO8c2DL5Iy6hPurmrh9NK3eGF/G157sDHBh77j4W+8eXrkbZS+9EyZnLOs/fRdzjZ9mLbVwvE+u40FsxayYXcJOo/sSYv8AOvUOj7ZbiAqqha3Vi34zLaQnXmGvT8vZ/EPOzHXu4XugxVg/atJpwc5ucDVVw8lrH6Dh6fspM7wibZQOvfPWQwe052UBdNYti+BFI8yNOszhCHto/GzvqFNO8CiKbNYdeAYcZkWzB5BRLfqRZ/bG1MxwJvUzX+3hdBC5uGlTP1yCQfD69HAcJrY35Mo3rYnt3etT0ljDpnnDrJ99RIWr/2do8k5ePqFUr5uCzp2aUtVj1h+WbqAnzYdsK22MPpHUKl+R/r0bUV5YwbJR7azcsF8lu+Kw2TxIiiqOb3u6EbDioEYDbmhx/L2D/F0mZ18NX8TBxM8CLvpNob2qcGZn77kh+0xnE33pWq3+3ioRz2KeeUbVqPnXTU5+NMydp9Nx6dqN+5/6HbqFjNiuCjA8mPJM88xIzaQ259/hzuqWH/AmYlZOJZnZ5+kzKBXeK1TGSefV47Q/asFWNmkWd8HePkTEuCDR3YaSekWjNYPUkxZZJlyMBj98Pf3w8do3V6Ygzkrk/S09NxtNx5e+Pj64edrXa1QcKxmzOZssrN98PZK5tSe1cz8cDXJ3R5hfGfVtGhmRQJr3nqYydtL03/8S3SpZLSttjOlWUMmD06vn8FHU1dzONMDb19fWz3bjZlMv7In2PLF58z77TBn0szkWLwoUb8rA/t3pGYxM8ev9DjzjEu2C5vJOLuX1fPmsOjXoyRlWfCOqE3rHrfTrm55wvzT2Tn7bb44VJmWN4cQ9/uv/Lb7CCmBUTTq0JPOzWtSPqTgVi0T8X+uY8nCRWxJCSTcx4vknfEE5gdYpniObP+ZmZ+vJjG4DBXCzvDroRwFWNc5+fIDrElbQuj01Af0rXjJKqoDXzDkhZ/IafEwk+69mSBb6phGmsmfnEM/8P6EOfyRbF2s4Y81m6px1+uMahFCVspBti6Yy9yVe4g3gbFYddr0uYNuDSsSaDTkveae445Rd5K9fBrL9p4jw6cKXe97iB51i+GVdZRN381i7ur9JJs9sHiHEt3oDu4Z0Ijw3C0PeSFqKr9Pf5oP1iYT1HwE9/dpQPlgHzwxcXL153w6bxN/Gpow+J5utKgZSMyPeSuw2v+Hjjd588eC+azYnkHVTrfTrfPNlNMHvtc5o/TwvxNw/AArmed+fIX2qfN4+e7X2Xb/cmLfboefxURqfBzxSXn5RGgE4UEepJ1ZxMsluvPaf97kmzsbUad9fbzizJSINJJ6NgGL9VxYPzNJ586SmGrC7OVHcFgYxfy8MGfEEx+XRJrJgofRj6BiYQT/+TnNBr5A3fum8GCX2oT7Wmy5RmhwAL4XvzH5O+ob9u9uH2BZw6uUY2uYNv5NPp73KyfDytB24Eu8OboLUcZEVr49lAc/XgMRPXi4t5kHxyQx+8Q8+hY7w/qpz/LypG/YfDKMMm0H8vKbo+kSlcicnpEM4EuOz+tPJBt5zdCMp1/dQGz1iXTs9QV7AsMoFWhk7MITPNzghtX6H13IKQIs6/L2Are4n1/mE8+HGH2LhdVvTsEy/MIZMge/HMqahlO5q6rhokTbfHYln84z0ql3A8oWj2f1WzuI6BXJ4TmxlOrSkBp5AZblxFo+2+lJVMVatKtScOl8Jsd/20psfBpmXz/MZ5IocasCrH802XRnFxHID1+qM/ClB2ma9zSxvggGenvkvXm+NMDaaTtvJbxqIxqFnWTt2j9IyCxBv1fepFs566+GR1n60ofsq9KEsn5ZxO1cwco/Uyjd90We6VAO87aP/+YMrExilk7mi0X7CGo1iFalj7Nx6VKOlexIj+5daVgyjf3L5/P912s5XqIqtepF4Z8Uh4ni1OnQDO/dP/D+1zswRtWlZa0wzMmJHE2rwaD7GhMS/wcL33qHBXGlaNCxJ40jDrB69jJ2pjfliffvo57/AVuAtdjoTVCxmjRuHMbJtWv5IyETozGAgFJ1aVkvm01Lf+FMppFbn/uUu6sm5J2BBd6h5WjYsh7ZW37mt5Op0OIxJt5Xn4ADF5+BdW7Nqzw5eReBPcbxbp9oPM1H+PGZsXx5qgyDXnyNTmVdZHoV6TCuFmDFMH/M//ipQm+e6NuIEke/ZcKCVMpVNpJ+5E/27j+HZ7nmdOrVkWY1IvHPiSPmlzWs+Hkzv59MxuIbTtVGbbi1fXOiwwpsvbV9uGbGlJlCUvwJDv76Mws3p9H03kfoUsE+q7yKlNQpL57GjqmjeHdlOmVaP8LwPtWJ8PXD13reD2kcXvs98+b9yK+nStCwa2sqBUBUi9upG5bGr5PHs9K7CVWKe5F+YAWLtp7D0OYpPhxWiRNXelz8JefdZcfw08vjmRPjRWiFm4gumcjRXYc4kVKSdiPup3v9IGK+fYcvVh/mnCWUctVrEMkpDh+I4XhOXW4b2IPOzaMIKrgKK/0ksUcTSfYIwOvoBr7/ZAs5+QEWZjLiz3BsfyyWcmXJ2DCFCT8nK8C6zrl7PsD6JZjWD71C93K25cVg9Cck0BuPo0t45oVZxAbcxJ3D+9Esqjj+/j4YPQyc2/E93/0wl1V7oVrrO6hbAorXbU/L8jn8Mnkk7633oFjZGtSpaOHQzj0ci/eg2WNvM6J+EEl5HyIZAyIoVbcJ9djOmi1HSKQFj0+8j+hdk3jgvU14R7el203hWOL/ZJOpLeOGN+SijClzJ7MefZ+fk8O5/enHaV+1OAH5Hw5n7GP+u9NYutvCzcOG0KVZGc4utQZYxwlt2pwSWQf4bdNhApv1oEf31tQK1dKr65xOevg1CDh+gGWwZQv9ShxlRo9yDDF+xbFv76DYmXVMHf8mk+du5kRYaVrf9QaTRlVh3SN38OjkzRyy5QnjWPhdKg2bHWDqwlosGfs+lmeWMrXhH7zz7Hhm/3yUsyUb0uuJF3ntjpqcnP8kT74yl22nzBSr3IKoS78oAAAgAElEQVS7nn+be4JX0GXoeMKa9SIodh2/HoqnVPtRjHtkAG1qhOeu/newm5sHWBayUo7w45im9FvclY8/GkKVpGU80288/p/EMr/hPJrUfoKg52fzUkdvtrzZh1Hfd7JNsm6/j6Jih+/o+tlUhldJYumz/Rjv9wmxCzqyrvflAyzLo4k87duZN8YsIm5MU3xDQmyHNTrizekCLIuJXdNGsKT6BEY1s7D27Q/JHDKG9mEG62mYnFz6Fp/7PsCTrUK5cP5uDvu/fpIVJR+iT+Mo27am3Nsxlr22ldACAVbanoUsPhZEqQq1qVPK27puH6O3N97nz0KxBllb2B+brADLESe0+nQDBPIDLOsOmQsHWde+93+2593lV2DtxKPxw3z4cGP8yWTnZ/fyxgqo89BERjcNzTt/JYsss5mcHAuGP+fyyMSVZLV+gkn9a8D2yVcPsLJiWDZ5Jj9t96XZkF50rJnOyq++48fjJbi1R3d6NPRl/6KFzPtqLYm1WtG5V1calwnA29uIV/pxdq79lnfn7qdErVu5a3B7ogKN+Hgb8cxO5tz2L3nigy14txrBa3dUx2jJ4eSaVxn/5VHaPPEJw+odyQ2wKMmAV96iazkw7fiMe95cAb4deGrSXdT2hr1fDOGln8x5K9Os4bv1EHdP2jw1mWHWO6Rt4r0H3+cXcxNGfvQwjU5csiojbTPv/XcivwT3Yvw7/yHq2E88M3YWJ6oP4+1n2hB2Ayrv+pf4hwHWF2uI8apHpw4NCDu1ip83/IFPo8H07tyaEscXMmf+VlLLNKdD+5qwdwXL18TiXa8nA3vVoViBN4rWbYTbV3zJlOUn8C9Vlea3dqXTzVEEWbex61Y0AidX88bLs9iXmkmmVzla9uzLbW2rUcrPG88CW4Av/hIGC2ZTJlkmM2brz7Gz63nnuRn8WWc4E5+6hVDLFVavXvKFDZY/Z/DAa8tJLT+AF59sS3nrKtQtn/Di55s4Xf0unutbneSlk/hy9SEC2z7EnR0aUinoGKsnf8HCDYlE9809gyjysm88E9m/agnfXhRgXfiQ0Jx8gt3LFGDZY9IVPAPr/Gul9Y1prWH8b3QrQi1p/PHF60xceZSMDAv+NW7j7gHtqFc2FF8vA9bjNcYvNtCp4BlY8St59ZFP2eXbgWcn3UU1b8g6+CVPj/uR0zWH8b+xbfBYlbsK2rPNaCYPq4M3aWx67wHe/yWHJo98xOCsyYz6eCuGGoMZe18LSgd44+ttzDuMvcDIk9bz/phpbE1uzL1v96NhiaACv8ucZMMHH/Hdrwco1ftR/tO6GumrrAHWfs4azJhMKSQFN6Frj9vp2aQsfg74i7E9aqw2HEvA8QMsE5/smkFP73W81Kcf89ss4Nd3m/HLoxXosGMUi94fQPnT3/F4m9epuTyGlxuu5oXQ/DyhDSG738XQ7Gl8K3dn2F1dadG5CSlPN+CZcp+z+PkW8Osb3N1/Hw/vfJGkNl0Z3/5VfniuJSFHkvFsdBNVj86m9cAXiCl/J88ObUnpg1/y6pSztB79HI8MbkF5B1wl6eYBlom0s2t4o34P3h6ynOQXGwOHmd6mEkNKfcv2ntOoNwBmH5pHvyhIWHQ/xbqctAVY1aaVpP7TQ9lgeY2mwKFprak0NJJ5JyaQfv8VAqwxnF+NZRljfZTj3pwrwMrBdGoV7z1zml6f9KcSFg5+dS/zSr7Eg9ZfglM2M+nJKZiHTrwowLKY9zH3ye3UHNOFKiUC8g6Fv0KA9ediZs1bzuZ98baiWcLr0aH7bXRvXjHvkykFWI47m9WzGyOQ/0uYD2HR5Sme98a03O0jGXpTyBUDrGoj3uHZVhG2Lua/Mc/dZhiCOX4f67+fz6K9hzh1JhODxURGlhnaP3VNAZbp4FI+mPUT2zwaMbBHO1pEZ7NjzrcsXHaSyNt60aNHAwKPrWPpwh9Yuu0cJo8gytVuRdeeHWhU1kj8vg38OGMOq09kYfEuRtmGtzGw9y1UDkjl6MpJPP/FHgyeRoy53/5w/lZr6Ns81vJsXoDVibEzBlEjd4C5W4LO/+LKJS75AVbBbyE8wfJnRjMtNu/vzl76LYRpbH7vQSb+EkLv8e9w8/7neHrGcare+xbPtS6iwx5vzIS7gVf5pwHWRkLbDqdXqzqUSV7DRzMWEBPahr633YT35nnM+2kT+0yeeHnmB73Fqdm8Ez37t6Pi+fNwrIfWmDFnpZIcd4y9m5czb1kMxTo/xMhuUQ774dcNLErRXSrtCOu/nclXq/aTmJmFR9nejH6+J9V981dQXvwtojmmk+xcNIf5mw9w9EQKZuu5mZkmcv5hgJWw5k0en/o7Wa2ftP38s50VGLOQZ/+3kNjQDjw+ognZP0/m69Um6g4YSucm0YT5nGTdRzOYvy6OqLwAq6wCrKKbO9Ytp3mHuE9Y60Vw2UqUsG3PM2Ao151H7rmJkLzcMHHvT0yb8gM749LINPlSb8QrPNYqjIOXC7Au89pC4gbe+O8H7KQT42YMJnz16xdt47de9fjyZ3hqWmzuByg3/cmkZyezNSV363L5W/oy+D+tiS528cpQkjYwacxn/JrciGFvDaBRyYsDrPW2AOsQpf8z0hZgpa20Blhb2J/kg7fRgjnbhwrNutGj563Ujcj/IqQiLYku7uICjh9gLcTbzxsPUwYhLR/j8+lv0bH8b7xWsj5PJ/gTVODbh2+b+idf9jl8cZ6w8TVbgPXAogw+6OQDJ+fRP7IX3/gF4FdgC+AzC//kph96MeyzEwS26Mf9QwcysF0NIg7PpOmAF4i6/zNeGtSWKqc+p9d9r+Df8SWevq8vtR3wraTbBVgPfFmRD1a8Q2dbMUykx63nrYY9eGvQYhJebIKBQ0xrU4XhZb/jtx7Tqdc/m5n75zGgEqStGEXgrbG2AKv656Wp/9SdrMl+nWYGOPhZa6qMKMf3x98hzRpg5czi6Hf9ibRs4FWvljz76gYs1gDLoxlPv7QO85imGAweBVYDOdZPD0cIsA7MGsw35XLPy7lw28eMwZtoZj3E3baF0PpiuJcvhy+kwruP06rAXQ98OZSXlgC172FoiSlsjnqPx1vmr8CyEL9uEuOPtmHsbdUoEVhwS8ZfV2BdXJ10Dq36mt9TQinfrAf1ilv/VQGWY81g9ebGC/ybM7AubCn8a4BlYtm4x5h+0Icqtw9nSNvahB2fwyMTVpJ1y7WswEpn/4/v88WSHeyLu3jrsMViIfLm7vTo2ZMW5b0xJZ/kzy3LWLx8HX8cScevUn3a9b+X3tV8yUg8yq7VP/LT4l/Zl2wguHQT7hrVh/CtH/D8nEOEtxzIiOaRF3EbwypSOSJ/BVbuLw+2n1fXHGDVZth7T9GmmO1XDJaNfYrpR+py78Qnaf2XAAuy9kznwVeWkdNlMP13zmDGsUY8+MFImtm+gUK36xfIC7Bq38Mbj7Ykwsszdyu6wQMPw2W2EH5xlKjb+9C5cSXCzxUMsOrj/cs85q1JplS7znS5pSL5G9I9jEa8fXw4f0yjxYJ1nloM1rlrIvnYdpZ9PI212V0Y+Wp3Klyyhf76x6gWrkXAWhND/jLuxJ1Mf/VNlh2z0HTkRzzUKCtvBWXBACuTXVMf4NWfsynTeihDutWnXOavTHh2Gnv+YYCVuOYtHpu60/bz7/0BNQmxBliHF/Dse9YAq2OBACuHOoOG5M4/owKsa6nrjbzP356Bdf55b+1VKrE/f8j/Td1OZlhfXppwO6aZd/51BdaBWdz1wiIste/lvTGtKWZ9e5ywntcf/pDfDZ0Z9/mg8wFW7Xvf46nWthcXji0by5jpR6g7fCJPWt9rZ51hz8pvmfv9RvYnZ2MueRvPv9yfKgXPwMraxVeP/Y9liaF0eeJJOtYMJ/8ttCVtN9+/M4Plf3rRfPhddGwayZkl1gDrIMEtB9C5Vja/LpvPkj2htLi9B7071Tj/YdeNrIGu5V4Cjh9gJTLm+7FU+noY47JeZtWXg6niuYM3Stfn6TvXkPV6czw9rJsSLFg8PPAocDyRbUFMXoD16gYLtvUxp75nYOmepHy+n3kDK9nOasyxvnZ5GGxtnNk2n7nv/x/j5xyn7TvzeavWNvqMePHCIe4n5tDrvhfw7zhOAVZRP1Vyv4VwNEM+DeS/E+6jZRB4evsQUbECB95uQp+5bZjw0T1US1jC03e+QfGpB/nxpnnUb/Aovk9+y9QhpVg1vjcPfNXEFmD12DOGiu2m0fqDz7ivWgKLx97JG6FTOfhTT/Y8UJwu3/Xlg8/uo2LMxwx94CtO2gIsXybUr8+jFd7hp5E3UbJGM+qXcsxvI3SEAMu65WgyIy4OsBJX88Z/Y+l9PsDax8y7XoRxM67ydcLWX6xzz8Syvj7nrpU4yNyH5lP8iXtoViGI87sHc1/S/7KF8NL5e3brbNYfg+J1etIyylpDBVhF/RzX9YtawN4BVv4KplY8+ekI6npD6oYJPDJ52/kVCFfdQpixm+8nfcmy7cchLJSgAF/bizjmFOITkkgKrk/XHj35T/NyeOcdQWI6u4c1i+by2XYvGna7m1GtI7FYv83JYP1yjj2snfka846WofNDz9IqcTZPTNyM10138/IjLYjIW4SVe39bHHd+BdY/D7Cg1ZOfMLyuj3WJFm8+PIWdtOPJT4dSN/bSFVjWa8Uw/9Hn+DrRC6PJRFbTUXz8UMPcb1DVzQ4CeQFWeG1uaVyBQI/cQDSqeXduKn2GJc9ccgbWFQOsdkTFL2HOvMX8YalJixZNqR1h4XS6Af9i5WgcnbsSEbJIOnmIfb8fIKtkFMHmJE7uXceCn49jbD2M8QNqUnChlh0GqCauSSCemH0mSkVHnF+xfXzxM4yZdeSSLcDlGfL6y7QvbW00/+diJINef4NOpcFyeD6PPfc1Z/8SYBV83KXfOBoNB2bxwMtLSSnbj/Gj21Mh0Ejq5im8OHMzZ6vcydMDapO6dBKzVyvAuqZyFtGdLg6wJnFHVP5WTYPttSPlxH4SAytTOjD/x8FOptz7JmvyVlKRF2C1e/JThtb1tkXZBtt74ynsNLZj7IdDqeEDmftmMub/FnO28hDeeaE9xrwzsGj1BJ8Mr4cPKWx49wE+2Abn2zr/+hXDomeeZVb+yt+Lvvg0k32zRzNheTzp1Qcy+p5bbN/y7WnJIGbpp3z6428c9m7FPfd0pXl1fw4V/BbCjtUwb/yGeT8s50BkG7r17E3H6ILnyhZRUXRZlxZw/AAr7wysjNkMaDaAQ49sZdXTNdjwdBTtPmvDB9+9Sr/qFg6v+pPMNp1pGnrhfO3LBlgcZlqXSgyLH83cz0bSNjSB31adosId5Tky7whhN9ekpHkdr7a9n8MPf8VbN++l/wMvKcByxGdBboD1AF2fXX2+eyEly/F/Cw5xf+UdfPXcaJ6btIyYktXoN2YaH41qSigZbPuoP70e+J7MakMY2TOep18n96C1UhnsnT2GkWP+x+KYklTtN4bpH43CumMt4/Bs7u88iul7fek0cgJDfO9jQOj3WCdZzLwhdLp/Onupxn3Tfuajzhd/cu8odo4QYGF7Qd5Ik4kXDmO3bTHiBWYMij7/xjC298yrhFd5bwK/LZ931kSe8MGveeiXOrzYvQrF/S/9asK/C7DOsnX2Wo5Rgjo9m2PLrxRgOcrUVT+KTMDeAVZibihz1ovKrTpRw/8cO3/eSGyWBcs1bCHM2D2PSV8uZ5tXc4b260jramG5q1uyjrD+q2/5YckRSnS+haqBJk5sPYQluhwBGSeI3b+Tg8bqtOzUkYamX/l8XQa1qhbDkHSa/Zu3ExdSi36jR9HY7yAr33+VWXstBFW9hVsq+4PpHLs3hjHo/f5Es++6AiyMIVSuUxn2bOVAGhjbPc1HQ2vifcm5OPnlPrP8BR6bdgAw0m7shwy1/gajm50E8gIs25rfC7fWj/6PfnWSWfnctQdY9UubOb1rHUt/XMK6XSdJJpCIOm24rftttI/O/401m6TYraz8eirfbU8lGwOe/iWIatKLewa0oLzSKzvV9Z82kxdKG0MoH2n9NuIETsQmYTLW4cF3RtMsNJPdnz3AKytMGMs3pV10Fml1+9Fw02gmbDAQ2aATDUubOLBiBbvTKLCV+HKPG8qIkAWXfAvhGdZOeJbPfkvDs1xDGpZIYteOwyRkhHLrQ0/kHeL+Nl8owPqnhb2h9z+/hXCNF/4lyxBm2wBgjcRbMvTlLudXSvlHlifcCKazsZxIg8hu43ipXzSJ+T/r/avTrlUox8I78Wzncuyf+SzjF5/EGFKHVg3h1zU7STQZaTpyIg81Cji/Xd36GhFSuTaVDAf4fb91/rZj7EdDidz4Bs+uCKCp9dBm0zl2rNhALK0YNfE+GgZc/KVJhnMb+PDlz/nlbApZPhGUKu6Ld8Y5TiWlk0kELfvfQ4+WNSgVkM6eiwKs+pTLPsSab75j3tJjlGrbnV5921A5/0ffDa2ELuYuAk4TYJWy7v7rx029Yhi1YRVjbjrE7DGjeGH2YvaegvJNnuKjRa/R5W8DLOuvyBuZ8OgoJkzfRAwlqd7xFWb/0JQddw5i/PwdHM6KpE7vh3jlrftok/QdbQa+oADLVZ8Qh2f3pKL1TCxbgOWqo8wdl0MEWNaO5P+yls/daVxeeHXh7JiLKpH/iWZC3qdRtn8ssIXH9ucE1r83mphb36ZH1SD+kl9dZgXWqXUfMWv+OrYdy71aqcY96NWjG83L56+g0wos135GaHR/L2DvACuUrJhF/O/Nr9mRaMK/cjsGDm9J9uRX+aLSY7zb72qHuCfz+zfv89WKXRiaDmdA5+bUiMgPqrM4uuEr5v2whEMRralfLozM31aw6VgC6QZ/ipe9idYdu3Jr40DidixjxuyfOXg6lRxjAGFVmtL2P7fTvWpxsJgxpcSw8Ztv+WHDdk5afyH1j6R6vV6MeLAZEdezAit1CC8NNfG1bexGSjfty8jh7Slt3cZxhQDLcGY1Lz82hd3GToybmr/F+u+rpns4tkCOOQezyYzRV988WPSVimfHzGl8tXEnsYkm6xOeyAat6NWvL81sT04wnNnC1ElTWGFNnf0jaffQOO6J3H3+76zhQq+HhlJh42O8eSb/EPfLP26o/3eXBFjWAP4EG+Z8xjer/+RMuoGAco3pOrAPbapat3GlsP1LBVhFP0+u3oOCh7hfuKc1wOpo225ePmYZk2cuZueeE1hfVowhlWnYrR93dqlBqDVHyopl0YQ3+HpnIiZjCJUGjWV8O+tyv3h2z5/GZwu22gIv/8gGdBs6hO41crcLnv8ilTsfpO6OWbbHGyu3484Rd3JLaW9Sd3/FhM9WsMf6YFvI1ZBeQ++lfYUrfBiSdpTfFv/I/NW/cCguA5NHIGWqt6Jzj040qhyWt60w9S8BlvUMtuSDK5g373uWHa1A22696dc+Cr+LMzJHL6P650QCjhxgORGjQ3XVbc7A+lfq8RtZvAoqNK1OJL/xYc+2jOVDdm28n+r/qkHneZDDBFjOQ6aeSkACEigygTOr3+CxKTsJ6/sSE7pXKLJ+6MISkIAEJOB4Apd+E7Dj9VA9kkDhCCjAKhzXomxVAdbV9OMX8XSvUXy2ai+nrMvvOvXn3Y8m0DmqKEt2Y66tAOvGOOsqEpCABK5HYP/ySSzeEcOOrSdIO7+V6Xpa1GMlIAEJSMDVBBRguVpFNZ5rFVCAda1SznM/BVjOU6sb2lMFWDeUWxeTgAQk8K8EbOcCLvYmpHIr+uZtBflXDelBEpCABCTgsgIKsFy2tBrY3wgowHK9KaIAy/VqapcRKcCyC6MakYAEJCABCUhAAhKQgAQkIIEiEFCAVQTohXxJBViFDOyszSvActbKqd8SkIAEJCABCUhAAhKQgAQkoADL9eaAAizXq6ldRqQAyy6MakQCEpCABCQgAQlIQAISkIAEikBAAVYRoBfyJRVgFTKwszavAMtZK6d+S0ACEpCABCQgAQlIQAISkIACLNebAwqwXK+mdhmRAiy7MKoRCUhAAhKQgAQkIAEJSEACEigCAQVYRYBeyJdUgFXIwM7avAIsZ62c+i0BCUhAAhKQgAQkIAEJSEACCrBcbw4owHK9mtplRAqw7MKoRiQgAQlIQAISkIAEJCABCUigCAQUYBUBeiFfUgFWIQM7a/MKsJy1cuq3BCQgAQlIQAISkIAEJCABCSjAcr05oADL9WpqlxEpwLILoxqRgAQkIAEJSEACEpCABCQggSIQUIBVBOiFfEkFWIUM7KzNK8By1sqp3xKQgAQkIAEJSEACEpCABCSgAMv15oACLNerqV1GpADLLoxqRAISkIAEJCABCUhAAhKQgASKQEABVhGgF/IlFWAVMrCzNq8Ay1krp35LQAISkIAEJCABCUhAAhKQgAIs15sDCrBcr6Z2GZECLLswqhEJSEACEpCABCQgAQlIQAISKAIBBVhFgF7Il1SAVcjAztq8AixnrZz6LQEJSEACEpCABCQgAQlIQAIKsFxvDijAcr2a2mVECrDswqhGJCABCUhAAhKQgAQkIAEJSKAIBBRgFQF6IV9SAVYhAztr8wqwnLVy6rcEJCABCUhAAhKQgAQkIAEJKMByvTmgAMv1amqXESnAsgujGpGABCQgAQlIQAISkIAEJCCBIhBQgFUE6IV8SQVYhQzsrM0rwHLWyqnfEpCABCQgAQlIQAISkIAEJKAAy/XmgAIs16upXUakAMsujGpEAhKQgAQkIAEJSEACEpCABIpAQAFWEaAX8iUVYBUysLM27xgB1n5mDh7P4vOIdbh34mhahxa9avqhlXz7ewq+5Zvzn3rFC6dD+2cy+NvyTHzqFkIthXOJf99qAhsmzSCr5xAaRwbh55HXUso2vnjrC9YcOElKVGeG392ZZtFhGP/lhdKObWfd3Df5fHckFVoM5Km76hN0GQtLdhb7Z9/Ld+XfY/QtDjBB/uV49TAJSEACEpCABCQgAQlIwD4CCrDs4+hIrSjAcqRqOFBfij7Aimf1m48Q23smgyo7XHpzYyrljAGWVSZ1O1/NS6RG89rUqFj8X4dXmM5xcM8fbNgVSo/+dQm8yjRQgHVjpqSuIgEJSEACEpCABCQgAWcRUIDlLJW69n4qwLp2K7e6Z9EHWNbVV99SzkFWXBVJ8d0iwMrgyObfOZ1ioHy7RkRQIKVKPcL23dv5KaE+Y24tc9USKMAqkhmqi0pAAhKQgAQkIAEJSMBhBRRgOWxp/nXHFGD9azrXfmDRB1iwf+Ygxh8f8dctdImreeNjGHF+a93Fq7Wsj9tY/j6OT5nMTluZOjFuxmCi88KRA7Pv4bXFJjKygdaP8na/OpQIMnJk4TP8WrYjKXOWsCWmBK27GNjhexOdGzagSYVAII39S2fwR04UZSN82XMsOXcLYfmTLF74HTMX77FdLbTKzXS4Yxi31/Am7uBmlkz/iIUHAf8IyjYbxNihDQhIS+D4LzOYY7qFOr+8y6x99Rj69qNctPvtagGW9d/GX9hc2emFgivVLt562Wn4CI7HRjJ6UDSQazVlR+78rTN8OKU3Qrd8S6vtf6fkuV28ZTNh9RuM/OR3ciwWqNmetp7niBo4gmalC2whtDZ6yQqsc2sm8ltKAPt/Pc7+vXs5RySNe/Th9m6NqWCIZfOC7/nlZHFu7juIxhG5AZbpzB42/DSTKUtjbH8uVqEaXe5/kqbmX/jq2Y9ZZ/1L32CCOz3BpD4VuTTAsvb14Sm51bfNgHyfq4zPtZ/RGp0EJCABCUhAAhKQgATcS0ABluvVWwGW69XULiNyhADLOpALQUSBMOUaAqyCwZetjY1NbUEYq99kqmUoDzUPw8fLwOFvR7Iw9GH6N61I2s/PM+mn0nR8uC/NqkXgx3FWTdiGb7M61GxSnqDTG5m+Oo6QivVoU3wfC21nYNWnceY+Dp3LIbJNO6r4XeBPPfIr2zYv4ViVh+lXN5CMcwfY8tOHLAh5hFduDSZm5WRene/P3a/+lxYhlynblQIsWwgTS+/8UM725400yVutZg3wvi3/ft5ZUHmBVeQ4ZgyKzvWM7W37b+vt4pDQGnxtpOlF7eZdJ3GV7Zq9pg8i2gMMB7/moTdiue2p+2hb4e8DrBm/+VO7zW20q1OKnAMr+PqPDEIqNqVnnaucH3bVFVg5ZCYfZ9P0eXgO/i/NAwqegXX24nGcp73K+Aqu/LLLM0iNSEACEpCABCQgAQlIQAJFKaAAqyj1C+faCrAKx9XpW3WUAOtC9mBdcXQ89xB3w9+vwLoQ4NhimrxAoxvH3xrJZztzyM4pUKJWj/Bav3rkrB3PIp++dLm5FmVDvGx3OLHqXX5Or0e9+i2JODSd1XGliKrXkVpZG84f4t6t+H5+mj+Xb46WpfXt/bm3aQkghSO/bmXT0tNU+W8f6lkXcJmTOR2zje9X+nPHwGjiN8zgrXPdbCuILnu7QoB1aQiVH0RtbDaLQZX3/XXrpbWdjU2ZMSjsr+eKFQwD9128qiu3T7nBYb0ducHX9Duj8TBY//4Kh7hb/+kyK7BWplSjZv021C3lDRkHWLnqGDnBUTRvVh7fKz1b/hJgZRAfs+XCCizAOyCYTk99wB3lMi86xN0WzC02UGf4xAuHul+yaq3g+BzhiwGc/oeGBiABCUhAAhKQgAQkIAEHElCA5UDFsFNXFGDZCdLVmnG4ACtvtZAtpAlf9bdbCK8WYB25/RPuiDbinf/NeXnFy91COIzm1SpRIj9VSfuDH346R2SNYqStP4FXVBS1bq2Kz+W+hTDxT1Yt+Y65u/3ocEc/6qftvWqAlbL5C+YZ7+S/zS63/Mo24Mt+C2GhBlhX+NbD/Gv+2wDrN2MDomu2IDqYfxlglST5xO9smj+X9C4v072cmczkw6z/7G3OdP9rgJX/fMxfwWfbQmiZ4cDf6uhqP0E0HglIQAISkIAEJCABCRStgAKsovUvjKsrwCoMVRdo04KOTRoAACAASURBVPECrAKHultXYP1lC90USuedc3Tp2VmXbiF8fNPNvPRIS0p5e2FbTHS1AIsUdv+wiDPZ8az2qEXTmrW4tWoI6ZcLsKztJO1n3a79bDPdxNCoY1fdQnj8l38XYHHVLYS5WwY3Nrmw8sjmwQu2bYMF/9va3YI2oZbcs7O46DytPBzb6iV4bvogqli3ECat5/0xm6j25L20vIYthNcfYBXn3MHfWTblDyqNHcLNAekkx67k49cWUP4yK7AKPgWtY5zMCEbfYt1aeIXxucBzVkOQgAQkIAEJSEACEpCABC4IKMByvdmgAMv1amqXERV9gHXxQeTWQRU8qDx/i5htsHWGM7z0FGKb5R5k/o8OcQdaPfIO/epFkLT0MiuwrDvidv/Ap3P24HtzZ7q1q0tpHwoEWNYzsDYw/5vv2XDc2pliRN/ciTuG3UbNANPfHOJ+DQFWgYPac4eaF0z9k0PcO3ViMdYthJc5xL1TJzhe/sKB+Bcdcp5raz07LNSSG3b97SHuKdv44q0vWHPgJClRnRl+d2cqnviCP660AqsB7LjMIe62ul66hTDjHDFbvubZj9eDdzABNbvRr+wCzjS+dAVWblBV4Ij7C4f4X2V8dnniqBEJSEACEpCABCQgAQlIwCEEFGA5RBns2gkFWHbldJ3Gij7A+veWtgDLdh5U7jfauf3t/BlYuQe3X3T7y4H4bq8lAAlIQAISkIAEJCABCUjABQQUYLlAES8ZggIs16upXUakAMsujA7QyF+3FBbs1KVbCh2gw+qCBCQgAQlIQAISkIAEJCCB6xZQgHXdhA7XgAIshyuJY3RIAZZj1OHf9CL/4PLzjy2wDdB2MPxF2xI7Xdhe928upsdIQAISkIAEJCABCUhAAhJwQAEFWA5YlOvskgKs6wR01Yc7c4DlqjXRuCQgAQlIQAISkIAEJCABCUjg2gQUYF2bkzPdSwGWM1XrBvZVAdYNxNalJCABCUhAAhKQgAQkIAEJSMCuAgqw7MrpEI0pwHKIMjheJxRgOV5N1CMJSEACEpCABCQgAQlIQAISuDYBBVjX5uRM91KA5UzVuoF9VYB1A7F1KQlIQAISkIAEJCABCUhAAhKwq4ACLLtyOkRjCrAcogyO1wkFWI5XE/VIAhKQgAQkIAEJSEACEpCABK5NQAHWtTk5070UYDlTtW5gXxVg3UBsXUoCEpCABCQgAQlIQAISkIAE7CqgAMuunA7RmAIshyiD43VCAZbj1UQ9koAEJCABCUhAAhKQgAQkIIFrE1CAdW1OznQvuwVYu3btokOHDoSEhDjT+NXXywhkZWVhfbIfOnSIcuXKyUgCEpCABCQgAQlIQAISkIAEJOBUAsePH6dUqVJUqVIFHx8fp+q7OvtXgcTERJYuXUrNmjWvyGNo0KCBxfqvM2bMuKrhqVOn8PLyom7dugqxnHi2WcMr6xM9NjYWo9GoWjpxLdV1CUhAAhKQgAQkIAEJSEAC7iqQlJREZmYmZcuWtf1PIZbzzgRreLVjxw7MZjMlSpS4/gArJyeHuLg4rJMkPT3deWXcvOeenp4EBATYgqugoCAMBoObi2j4EpCABCQgAQlIQAISkIAEJOBsAhaLhZSUFKzhR2pqKtnZ2c42BPU3T8DPz4/g4GCKFy+Oh4fH9QdY1hasIZY1EbNOFN2cV8A6IfL/57yjUM8lIAEJSEACEpCABCQgAQlIwJ0FrNmENaOwZhW6Oa+AdWGNdbHN1cIr6+iueQuh81Ko5xKQgAQkIAEJSEACEpCABCQgAQlIQALOLKAAy5mrp75LQAISkIAEJCABCUhAAhKQgAQkIAE3EFCA5QZF1hAlIAEJSEACEpCABCQgAQlIQAISkIAzCyjAcubqqe8SkIAEJCABCUhAAhKQgAQkIAEJSMANBBRguUGRNUQJSEACEpCABCQgAQlIQAISkIAEJODMAgqwnLl66rsEJCABCUhAAhKQgAQkIAEJSEACEnADgfMBVr169dxguBqiBCQgAQlIQAISkIAEJCABCUhAAhKQgLMJnA+wnK3j6q8EJCABCUhAAhKQgAQkIAEJSEACEpCAewgowHKPOmuUEpCABCQgAQlIQAISkIAEJCABCUjAaQUMX375pcVpe6+OS0ACEpCABCQgAQlIQAISkIAEJCABCbi8gOHkyZMKsFy+zBqgBCQgAQlIQAISkIAEJCABCUhAAhJwXgEFWM5bO/VcAhKQgAQkIAEJSEACEpCABCQgAQm4hYACLLcoswYpAQlIQAISkIAEJCABCUhAAhKQgAScV0ABlvPWTj2XgAQkIAEJSEACEpCABCQgAQlIQAJuIaAAyy3KrEFKQAISkIAEJCABCUhAAhKQgAQkIAHnFVCA5by1U88lIAEJSEACEpCABCQgAQlIQAISkIBbCCjAcosya5ASkIAEJCABCUhAAhKQgAQkIAEJSMB5BRRgOW/t1HMJSEACEpCABCQgAQlIQAISkIAEJOAWAgqw3KLMGqQEJCABCUhAAhKQgAQkIAEJSEACEnBeAQVYzls79VwCEpCABCQgAQlIQAISkIAEJCABCbiFgAIstyizBikBCUhAAhKQgAQkIAEJSEACEpCABJxXQAGW89ZOPZeABCQgAQlIQAISkIAEJCABCUhAAm4hoADLLcqsQUpAAhKQgAQkIAEJSEACEpCABCQgAecVUIDlvLVTzyUgAQlIQAISkIAEJCABCUhAAhKQgFsIKMByizJrkBKQgAQkIAEJSEACEpCABCQgAQlIwHkFFGA5b+3UcwlIQAISkIAEJCABCUhAAhKQgAQk4BYCCrDcoswapAQkIAEJSEACEpCABCQgAQlIQAIScF4BBVjOWzv1XAISkIAEJCABCUhAAhKQgAQkIAEJuIWAAiy3KLMGKQEJSEACEpCABCQgAQlIQAISkIAEnFdAAZbz1k49l4AEJCABCUhAAhKQgAQkIAEJSEACbiGgAMstyqxBSkACEpCABCQgAQlIQAISkIAEJCAB5xVQgOW8tVPPJSABCUhAAhKQgAQkIAEJSEACEpCAWwgowHKLMmuQEpCABCQgAQlIQAISkIAEJCABCUjAeQUUYDlv7dRzCUhAAhKQgAQkIAEJSEACEpCABCTgFgIKsNyizBqkBCQgAQlIQAISkIAEJCABCUhAAhJwXgEFWM5bO/VcAhKQgAQkIAEJSEACEpCABCQgAQm4hYACLLcoswYpAQlIQAISkIAEJCABCUhAAhKQgAScV0ABlvPWTj2XgAQkIAEJSEACEpCABCQgAQlIQAJuIaAAyy3KrEFKQAISkIAEJCABCUhAAhKQgAQkIAHnFVCA5by1U88lIAEJSEACEpCABCQgAQlIQAISkIBbCCjAcosya5ASkIAEJCABCUhAAhKQgAQkIAEJSMB5BRRgOW/t1HMJSEACEpCABCQgAQlIQAISkIAEJOAWAgqw3KLMGqQEJCABCUhAAhKQgAQkIAEJSEACEnBeAQVYzls79VwCEpCABCQgAQlIQAISkIAEJCABCbiFgAIstyizBikBCUhAAhKQgAQkIAEJSEACEpCABJxXQAGW89ZOPZeABCQgAQlIQAISkIAEJCABCUhAAm4hoADLLcqsQUpAAhKQgAQkIAEJSEACEpCABCQgAecVUIDlvLVTzyUgAQlIQAISkIAEJCABCUhAAhKQgFsIKMByizJrkBKQgAQkIAEJSEACEpCABCQgAQlIwHkFFGA5b+3UcwlIQAISkIAEJCABCUhAAhKQgAQk4BYCCrDcoswapAQkIAEJSEACEpCABCQgAQlIQAIScF4BBVjOWzv1XAISkIAEJCABCUhAAhKQgAQkIAEJuIWAAiy3KLMGKQEJSEACEpCABCQgAQlIQAISkIAEnFdAAZbz1k49l4AEJCABCUhAAhKQgAQkIAEJSEACbiGgAMstyqxBSkACEpCABCQgAQlIQAISkIAEJCAB5xVQgOW8tVPPJSABCUhAAhKQgAQkIAEJSEACEpCAWwgowHKLMmuQEpCABCQgAQlIQAISkIAEJCABCUjAeQUUYDlv7dRzCUhAAhKQgAQkIAEJSEACEpCABCTgFgIKsNyizBqkBCQgAQlIQAISkIAEJCABCUhAAhJwXgEFWM5bO/VcAhKQgAQkIAEJSEACEpCABCQgAQm4hYACLLcoswYpAQlIQAISkIAEJCABCUhAAhKQgAScV0ABlvPWTj2XgAQkIAEJSEACEpCABCQgAQlIQAJuIaAAyy3KrEFKQAISkIAEJCABCUhAAhKQgAQkIAHnFVCA5by1U88lIAEJSEACEpCABCQgAQlIQAISkIBbCCjAcosya5ASkIAEJCABCUhAAhKQgAQkIAEJSMB5BRRgOW/t1HMJSEACEpDA/7N3HtBRVVsA3XeSkAQIJNQktIQmEKQK0jsCgnSkCH5ERFGRoiIIKohIEQULCEpTQUF6R1FAEEEQ6UrvgdADARJS5v31MpMwCTNhElNmMuet/9eSzHu37PMm87Ln3HOFgBAQAkJACAgBISAEhIAQcAkCIrBcIswySSEgBISAEBACQkAICAEhIASEgBAQAkJACDgvARFYzhs7GbkQEAJCQAgIASEgBISAEBACQkAICAEhIARcgoAILJcIs0xSCAgBISAEhIAQEAJCQAgIASEgBISAEBACzktABJbzxk5GLgSEgBAQAkJACAgBISAEhIAQEAJCQAgIAZcgIALLJcIskxQCQkAICAEhIASEgBAQAkJACAgBISAEhIDzEhCB5byxk5ELASEgBISAEBACQkAICAEhIASEgBAQAkLAJQiIwHKJMMskhYAQEAJCQAgIASEgBISAEBACQkAICAEh4LwERGA5b+xk5EJACAgBISAEhIAQEAJCQAgIASEgBISAEHAJAiKwXCLMMkkhIASEgBAQAkJACAgBISAEhIAQEAJCQAg4LwERWM4bOxm5EBACQkAICAEhIASEgBAQAkJACAgBISAEXIKACCyXCLNMUggIASEgBISAEBACQkAICAEhIASEgBAQAs5LQASW88ZORi4EhIAQEAJCQAgIASEgBISAEBACQkAICAGXICACyyXCLJMUAkJACAgBISAEhIAQEAJCQAgIASEgBISA8xIQgeW8sZORCwEhIASEgBAQAkJACAgBISAEhIAQEAJCwCUIiMByiTDLJIWAEBACQkAICAEhIASEgBAQAkJACAgBIeC8BERgOW/sZORCQAgIASEgBISAEBACQkAICAEhIASEgBBwCQIisFwizDJJISAEhIAQEAJCQAgIASEgBISAEBACQkAIOC8BEVjOGzsZuRDINAKxV/5m7eKlbNwfxh33AgTXfIpOLapSulBO3NI4ijuX9rNt3TJ2RLSk74DHCUxjO0kvu8uJDbP4bltO2g16nqq+Ca/a+vn9q8MPr+G7b9ezJ+wO5PSnSqvn6du6FDntHlc426a8wTfGnox+pR7+nu6oFK69c2gZXy3+jQNnbiU5K+DxDjQodZfQg2FQuhXt2pQlv91jsOPE8N/5ZMhsDsaf6kGeklVp/+zzNCruYcfFaT9FO7GGAWPX8eSIL3iylO12tFPrGfrReur2H0PL8j54uae9T7lSCAgBISAEsprACRb0GcvPDwyjOSNmd8fax4F24geeH7uB5iNm0z2FzwvLJrWTC+g/4VeiY+KS9lT7RUbVus3ChRsJaNaHVo+XIr93+jGJunKUXUvGM2cnYHDH0zeYGvU70L5dOfKlXzcPthT+J5+/NRv6TGDA44kPO2k/LyPHKm0LASEgBNKRgAisdIQpTQmB7EngAls/msT8i/l5rG4l8hPKJc/HeeLxCvicW8r804WpVa0mtYJypzj922d3snHvEa4WbkGfxwthjLzO5fNnCY0pQqUKBfnP+iQmjC1fj2P27+e5cedRBs4ZRRP96dHWzy1GG3tyIe+NXs7Zgs3o8GQQXNrDWb8evNYyEIPdQb3OL+89y2fGV5g2ojmBXu4pXht95QiHToRx/ewe1m3aRUShGtSp9iilgoMJ8oPIW1GQpwgli+VNsyS0OvTrG3in52QuN+3L0yFR/Ll8KYfi2vHutF488p+DkAKs6HPs2BpK0fq1KJojpfPOs2t7KIWqV6NoLg/cUrKAdsdGThQCQkAICIGsIRDO4V93E8pN9vw4k400o2/XyuTVAqnetDzW1It2eAath6yg3SdrebFcslGfXc+7H9yk91ddKWn5UvhhNu25gDF8PyvmbeZetY48WTWA3MUqUjNI48y/YXgHl6Fofh887f9gfyiyuxcP8fs37zH3cDVaPR0Ch37hp8MGqvcdxeDafg+9Ps0nxIVz5I8DxFSoQ8X8KXyVaO95aR6IXCgEhIAQyFwCIrAyl7f0JgSckMBJlrwyhg2B7ejfqwEl8yliNW+MZ9axYOFqfjsejXeuXFRv+ywtqxXi8u5f2bj9MFciPShQvi7Nmzekcs5TbF39PQs2neWuR15Cqj9O3XrV0LYvZEdUC/q+3ogCty9zfOtKlm7YS5gxD4Uqt6RHpwaU8LzMn7PGsiWwG7VCV7H8n1t4BNWjV5/uVLZITYo9+T3vTLtDvepnmfodDJk3hmb5wNbP7wfiJn98/CIT9zTmzY+6UsXPC2JuE6lusXvCx6wI7sekPpXJyU22T32bebe68e7wWmjbF/Pdkt85HQle/s15cVhDznzQi88TBJbbdfauWcSKrUe5FuNJcOPudGsaQmCeHPGZWVpcDDGxccSFbuSzWcu4UbI9XVs3pXw+dyIOLWf1umNQoQ3tGudg74Y97AmNpVihKxzadYa4IiFUr1aBnEd/4adDd8hb+nFad21HVd9IQvf9zJIlv3Ei0h3fMvXo9kxHKlp+DWwWWHGvzOLdJrkJXTOaAXN8GDr/PRr5RhO2fYl5Xu74VGjHq/2aUPTudqa+vZkiPWsRunI5/9zyIKjtc3TJ+SczFu/mlkcQ9Xr1o3vlvNw69D2zl/zNsUuRuOUJona3PnSvnB/t1AJeGPMLzd6ZSVcW8eqkSDr19GC3zjAmDxXavcwLjYvhcWYxAyf+ymMvT6RzkWMs+eQ3vOo+wo09Ozh68Q55K7SkfYfalCusEbplLat+/YszFKVCkCfXLnoRXLsuzRuXIa8TvtNkyEJACAiB7EfASExUNHFc59f3+zKVV5j5blPy4YYK38HcOWv55/wtYr0LU+nJ5+jTpBjuSQTWNbZPHc28a/V548WirBj7BZuOx1EwOD+ejd5gapdgEzJjDFHRcXDjNz4e/BV3OrzPgCeC8MvlRY7LGxg3YwP5m71Eh5AYdn2/lQj/AkReOsHxE2G4hzSgYWkPLh36i10nYvCv3pRWzWpTyS+SM3t/4+eft7L/ijv5yz1O89bNqVvCJzFMJoE1loXnnuKNj1rhe3Ybc0bO52inD5jTtTg3Dm/g++/W8++tWLwTn11MzxObi/SkVuhK83NNW57rnJM/v1rE7ls5CKrXi37dK5MzbCuzrTDyuPkHU16fjfbcJwyuq1lpz/yc5G7feZXyQ+z5Lcz9eiUHbrpTsnkd/H77nbtN+tGlfjAFcqU13z773dEyIyEgBLKWgAisrOUvvQsBJyBwm0NzP+DT36/hXrQ6Ldq0oFHFYuSOOcDSibNZdbskTZo9ToPHylHY5x7nDp3h8h2Fx71jbN9xlOhiDen8VBlubPqReesukLtha3o1KE3O2AvsXvAVm6M6Mfidx4nbtZjPF/5DgepNqZjnCge37uF6pT6MfMafPz94ia9PV6RFxyYUdz/BxrlbuNVzHDM6BiXy06KucO6KOx6Hp/D8ZGOiwLL18/vgj/NN59dYWHsUy16viWfiC/c48PXzvPVLbT6c8wpV2Mknz47ieKepTKqxg7fGrsW9chual/Um/F4gLdqXYs+oXuYMrEbcW/c+n/0dRJNmVQlQJ9iy7G/yt3+JNjVLUtD7flqRFvoLH89YxPVSnXim7ROE+MHlHbOZv/AgVOvOM609+GPxEubtjKFKrWqUdz/Pwd07OO9RjkqVQsgfdZwdu67h27IXfcufY8GszXg26kb9gNsc27KarR5deX/g4/eXMpgFFoPnM6a5J4fnDmTI0rKMmP8mNS/9wJCx+6jWswvVfCP4e/kcdoeMZPITp3m/5zROPtqSTk2Lc3fnDyw9moNHqreiXtlI9i5eyqF8/Zj4UQsCLv7G8n05CArwJHTDNH74tzHvTu9JuRP3v1Hvh/7fmwho9BRPV/bjyl8LWX60Gm99+hrVLs2m29srqT/8G/qUOMDXb85kv28lGtQvQ/6b+1i3M4yKXQbQJvA8qxas4LhbWaqEFEM7sZ0df3tQvVtXOrd/NGOXbjjBu1aGKASEgBBwLALX2fBOTyYzmHljmsf/jtbuHOLntZfxK5uP6H0/8OmvuRg48R3q3kj4vFhJi3/GMvrHWzQZ+hZdKhr4/eNn+WRrHV4a9xQlCj5C5UCvpNO8sYnx/ady5+nxDG5VknzeBrRTixk8YRmF2r7N/6pFsfHT79ganp+KdSpQ6M4+dh48T6Tvo1QLCYBzezl4Ng+VnmpDbb8TbN14iIhij9OgRCwn9h7krLEsbZ9rR3mzwzIJrA9ZdL4Db3/aCt+j65ny7lLCe45h4mNn+HTM98Q1f4EnS2uc2vANq+Ke4aO3yrP7nZ5MO/koLTs1pfjdnfyw9AieZR+jZf2yRO5ZzNJD+ej30URa+P1jlVE9D1M2temzXItnm9ie5XNSo2N2nfdlB29+/2AEM86WoEnrahS4uYdVq3eTv9MYBrUuT4CPCCzHej/JaISA6xIQgeW6sZeZCwE7CWjcu36ew3u2smHj7xwPdyewUXd6NcnP0akzWRRbhW49WtHkEV+08GNs2/grv+06wdWbN7h2/SYFa7ale6/W5Nq5jPmrz+PXpS+vNw7kztk/+eVbk8B6ZUgZLv74CXMP1ODFsd0oH3uJfSsm8fmOEN4c355rn77M1Mtd+XBie0q7X2Dd8IHM9h/GDyMakCfZLK5veAf9mS4hAyvhZVs/h8N89eQQlrcbz9oXKyVpLerYtwwauJaak76je8xX9B5+gPaff07tv5/nlTkVGDz3ZerkNhAd64ZPnkg2JS4hLMtfb4xgfpgHfoX98FJ3uXr+CiW6vkf/JytTPO/9B0H7BNb3rDxVkKe696Ge9z9sWrGIjVdC6P5KJ0qG/8XKeUs5FPAUz5baxaSZB/AKKEZ+zzjuXL3CDff2TPy2x/06I2aBdSSwDMXyGrh7LYqCbV7hzQ4Vubb0WV6Zc4eCQUXx84gl/OIpLlccyvevxjCp52Qu9hjHpI5l4O9p9PhwI01GzuelKopDX/Zg9JZOTF7xPAUPzuebhfs4ffseUVdOc+56dYb+8C4NLyYXWCuoPXg2g+vmITa+vZ10/XQBPeLm0GOEpcCaxpEafXitw2MUj97NjI+/52aNF3gi5ybW/HybEu2f5sm6wdzb9R3zll2hSPPOIrDsfGfLaUJACAiBzCPwoMCKOb+Jr2ev5/iNaGJuhXLiYixPT1nK/4z658VG6rdvysUtfxHy3Ei6NiiOr4eRQ9Pb8ObKtny06gXKGdweXGZul8CazZ9569GlYxMqx/7JV9+t5GJgC55u25xCx39g0YoTeFVtSJmcx/lp8Xau+BSgYC4jd26E41miBp1ffZ0mASZyJoE1nGk781E0yA/32HtE+9Sh16ttCD42jVcm/EGOwJL454Y7l89wPqoDny1pyyld5l3swfhJHSjNHr7s8SG/NhnJ/JeqoA5+SY/3t9Bp8gqezWWdUe8CDwqsxPYsn5P63+OjZKLL2nnzXzUwq99HnG39LkOfKotPxA6mj5xFxJMjeVkEVua9TaQnISAEHkpABNZDEckJQkAI6ARiI8O5cukse1ZNZ9XRENq9+DhRy35kTUw1uvdqRZMycRxcsoilO6/hW70GtQLC42XWqZw16fZse3z/ShBY/XijSQARp7cnCqz+A0tybt4EFp56iqFfdKbk3av8s3oM7y/1Z8DkXtyd9jJT4wYw58PmFOQaG0b2YrK6/y2uZYRSL7DCWDWoD9ONL/P1Z60JtCy9Hn2aBUNfZnXV0bwWOZlRh9sybWI3oua2Zsjytoxf+yL3lZdlDawSbOk3iqXBbXm1VQXy5TRVIs9VOJgi+XPj5Z7aDKzv+flyCZ7u8zK11T5+XbqY9WEV6DO0C8Wv7GDlnG/5M08rugf9xbRVbjzVrwuPxps9A25uBQgO8b9fjN4ssC7W7UZLn7/59ldvnvt0FB2CPDkypx2DF9Wk3/in7tcW8SlG+bx/8X7PycQO+pZxTxRA+2cGrd+4X5/k8IwnGbKiHZ8sqMXm4R+zL7gLvZ8oQezu2Yxd5BMvE5teflBgPfXRavqHGBLbaztpNc8bHhRYl1sM47U2IQQY/+brUV9ztuL/aJxjLes356BS7160rl8K4755zJx/Br86bUVgya8sISAEhIDDEUgusM6y9vUxzPOsw0vdquN7dhXDpm2Lr3tlytJdQ54yIRQMP0x0zRGMf+Ux9IpSiZ83a18keXms+CnbKbD+Ld6W7h0aUdG4jU+/WkRYsTY806E1hY+aM6DL16WE1wm2775NcPMnqVfctKWLZ25fChYpTj5zurZJYL3L7EPlqftEQS5v3cWdx4cxumcwN38bR/+pt+k4pA/VE8thFaB0JS+26QIrdhDfjHuCgvzDV0++wfJ2n7D2xXLcrwE2nWJfW2f0YiErAiuxPYvnpMEwObnAsnLet4Ng6vOfc7fvp7zzRAlyaweY0/8jzjwxjBdFYDncu0kGJARcmYAILFeOvsxdCNhD4M5h1v10Ep8iQRTyvcuBFTNZdbEKPV6oBesXsCwskPotG1AnxItjCxex+ogXVZ5uSyOfQ6xatIzj+RrT7dmOFNy/jB+WHyK2Tgf+17AUhpvH2btkVnwG1sBhjxL+0ww+6Ek3ZQAAIABJREFUXgPN+z3L47lC2bFgLuuj2zN21OMcm/gyUw2v8e3oZuTjwW9x/5vAiuH8qpG8POsatXv1o1O1gnhEXGF/bADtqvlzfukwXtRFybW9RHeayfiORbj58wj6TAmjwcCBdCrrQ8TFCALrFGVvYgZWTc5/PpApx6vQ4+Wu1C+Vm5jQq0QXKkrBvN5JCsjam4G14YousF6hFnvZuHQJ68LKJxFYfxXsyAtVzjBj+gFK9niV3g2K4R51lTMRvlQuZVEm1yywYl6azts1L7Fo/BT+CnyWEUNa4PPnKHqNPccTb43imZoFIPwYYbFlKZ9rq8USBD+Lh2tTgd3EPyjmlWN+zwlc7TSecU8XZP/Xgxn/SxmbAiuhQG/Cw7otgXW95QjTN8Dabma+9zVnKv6PdsX/YcXKPRgrtqN90yCidi1h2fpIynWQJYT2vK3lHCEgBIRA5hJI/tl9mDnthvBjtTeYO7Qq15aN5o15Ry0E1gpqD/yUzixgwpzL1B36Pi9U8+P4/B68Nj+EAVN6UM7bj2LFfEmyWa2dAutoifZ07dCQEOPvJoFVNJnAqtyKaoVOseXno3jW7UzXpuXwibzD3WgDvsEBJGxbYxJYH7DwbGsGjKqFcet85mw2UKdff1ob1vDm8J8p3OstBrQsg1dUGMfCfalWxrTk7/5yyoRM8OQC6xNyvGWdkVWBlbg804K1NYFl5bxv3/FnTb+R/FykCwP6NSbg/Do+m7qeHG1H8ZoIrMx9q0hvQkAIpEhABJbcIEJACKRM4PZBFs5Yyt5zN4lGQ/MqSPkGbWhZtwTankXMWb2HC/dy8kjjllTxuMCe7bs5fi8fZR8phAo9RnSeCtTr2YvyN7exdulyNpyE4Mo1qBriT9yWefECa8iYpuQ5u5cNK9ew8+QdjO5ukLs0Ddp2pHlINFvGZqTAgtgb//Lzwu9Zv/8mbt4eGNxyUbB5P4Y1L0rspZ8Z/cqXHLwbRM+vJ9GpiBuxN/axbPZs1h3V8MvtRY6AFrz2RlUOvvesuYh7U/Jc2MqKRZs4FB6Hu5tCeQTT+JkO1AwuQG6LUhLpJbB2B/bm7U4FOLh2ORsPXUfLkQP3HLnI3+hZBjcMvB/jJDWwcnLlr/mMmfgHRXqPYnC9u/zy/Xw2HbuHR04PUO6U6/g6zxbfbp/AWtGe0M9GMuffPJQs9QjVgiNY8204XW1kYP0XgfVM03xc2LiUtXuuoBWqSJEc/3D8sCdV2j0jGVjyO00ICAEh4HAEkgus2xyYPZoxm+9R+pFHKF9BzwJeSrGJCRlYpizfF4qeYcOMd5l7qhJ9hg+kzs0FjBq1nltFAilc+Rne6F05aSmB9BJY1Z6mQ9PcnNm8kS0HQrmDOzk8/SlVpRFPta9IPnO2tmUNrOGftaXwxX2sm/016+415NX+Dbi7ZSFrdl/G6OmJmzLg07gfw5p62ymwfqTOH9YZpbvAGl2Hu798w+QfdhPrX5xHy+Th8PpteHUcxQARWA73bpIBCQFXJiACy5WjL3MXAvYQiIvgwokzXLwewb04RY48hShavAgFfDzRbody6sxFrt2OJWfhIIrk0Yi4cpFLN414+/mRi2iUwRvf4kH4GsO5fOEMZy7fxd0nPwUL+uJx/SxX4opQpqI/XjFR3Ao7w+nQa9zVcuCdvyilgv3xMURx6fAeTqrSPFahEDmI5vKhXRyjDDVC9H8nPaIvH2LXMShTI4RCFi/a+rnpaiORl05x7MxlImKM4O5NvuAQyhfyBOMJfnxhAHP9X2bW6DYExH/VG83N88c4ci6cGKMBD99SVA7x5eY/f3FcK0nVcoXxUlFcO3uKc5dvEhljxOCVnxJlgino44nFCkKIvMzRU+eJyVWEYoGFyeMB966f5uy5W+BXjOL+Bq6FnuXyvZwUCSpFfm5yOfQ8l+7loUTZIuS8d52Lp89ywzuICiV8iL4eypmzYYRHGVHuXuQNKk9IYe/7kKIvc8gEiBAdUPRVDu0+wj3/SlQJzsW9ZBwKl61E6VzXk14TcYpt+y8QWKkuwT4QcWob+y8EUqluCTh/gH/O3CbOw5egoLxcPXYTfz0W9yyuIen1mNsLeLQOQeoMuw5dJP8jjxGU8yanDpwk2r8cpfx98NJucPrf09zJU5wSgT5o185zJvQqt5UvMacXs/6XCEq0EIFlz9tazhECQkAIZC6BBz+77105wr7jV4kx+OAfXAjtxAncKtYlONlnxJ3zf7P3DBSpVIWgHNc5su8oV2MUHgXKUuWR/EmfA6KvcGTvCWKLVKSMfy5yuCm4E8q+o6F4BpSjhG8cV46fISJnIMUCC5CHaxw/dZ4o7wCKBfrjddvi87dITmKuXyI0NIzrd2LBw4d8hYsRXMI3sc+4qFtcPXOY0MgiPFKlCN6xkYSfPczRazkp+WgZ8kaFcvLkBa5HxoLBA5/gR6nk75bsOSaCU9v2cyGwEnVNH6qJn7GBUTYYeVp+lpOsPQvWZeBY4md+CudVKIT73Ysc/vc04TFu+HpfYumk+US1GckrIrAy960ivQkBIZAiARFYcoMIASEgBKwSiOHmhYtcP7uRLz5Zgme/WXzQrBAGoeUYBO6EceaGkRy5fcirrvHnojksPZSLWp2epkO9oPs1vxxjtDIKISAEhIAQEAIOTCCKi8dPo/kG4pfLwPVtMxk3az+PvPAuz9QpQT6v+7U7HXgSMjQhIARcgIAILBcIskxRCAiBtBC4xV9zPmLZ/itEFWvGc891pKKf6Ku0kMyQa67tY9WGHfxzNhwtJpKbt9zxr9aQJ5o+xiMFvEU0Zgh0aVQICAEhIASyJ4HbHPhxJhtORhKjIPLqJe4Vb0C3Tk9Q3j83OeTxJ3uGXWYlBJyQgAgsJwyaDFkICIHMIHCP0L82ceC6JwHla/JosVwiRTIDu719RF3h2LETnLt0i+hYhWcef4JKB1GkoA855ItieynKeUJACAgBISAEgBiu/bubQ6E3iYzVUDnyULhsBcr558HTXeyV3CJCQAg4DgERWI4TCxmJEBACQkAICAEhIASEgBAQAkJACAgBISAEhIAVAiKw5LYQAkJACAgBISAEhIAQEAJCQAgIASEgBISAEHBoAiKwHDo8MjghIASEgBAQAkJACAgBISAEhIAQEAJCQAgIARFYcg8IASEgBISAEBACQkAICAEhIASEgBAQAkJACDg0ARFYDh0eGZwQEAJCQAgIASEgBISAEBACQkAICAEhIASEgAgsuQeEgBAQAkJACAgBISAEhIAQEAJCQAgIASEgBByagAgshw6PDE4ICAEhIASEgBAQAkJACAgBISAEhIAQEAJCQASW3ANCQAgIASEgBISAEBACQkAICAEhIASEgBAQAg5NQASWQ4dHBicEhIAQEAJCQAgIASEgBISAEBACQkAICAEhIAJL7gEhIASEgBAQAkJACAgBISAEhIAQEAJCQAgIAYcmIALLocMjg7MkYLh7Ce3WGVT0TaLjFLkNdwSQEBACQkAIZBGBWM2Ne5onHu7uaN75wKcYmme+LBqNdOssBK6rG4RynqtcIzYuhugc0cS5xzrL8GWcQkAICIFsRyDn7ZxoHuCLLyVUcQoZC2e7OcqEsg8BEVjZJ5bZeyaX93Dr2EbO799IxJUzXLilKOx+JXvPWWYnBISAEHBgAve0HNwlD4V9PfEtUpaAkCbkCqoP+cs58KhlaFlJ4CjH+P3uVjaFbeLw9cPcvRLJHc8I7nndy8phSd9CQAgIAZcmUCAsP8ZARXDeEjQr2pSGPk2oShWXZiKTd1wCIrAcNzYyMkDTNKLP7+Tcz+NYv+0QfxyN4NR14v8vhxAQAkJACGQtAW8PCPKDsoUN1K+Qj/p1ahPQ4FU8/CuhlMrawUnvDkNA/yw/FHuI6WHT+f3337m67Sqx/8bBaQ0kmdph4iQDEQJCwIUJBCtUSQ2ferkp3/xR3i42jJo5aspnuQvfEo46dRFYjhoZGVc8AeOVg+yd05evNpxn+QFZYiC3hRAQAkLAUQn4eis6VfWkR4vKlOv8EW75yzrqUGVcmUzguPE47xx9hz8X/knk4ki0K1omj0C6EwJCQAgIAXsJqE5uBD1fnJmVZxLiFmLvZXKeEMgUAiKwMgWzdJImAlHXubHiBUbM3M7SA8Y0NSEXCQEhIASEQOYRyOMF3Wrk5PVnm+PbYiJajryZ17n05JAEbnKTdyNGsfbzNUR8fwuuOuQwZVBCQAgIASFgQcCts4G6Y+oxI98M/DQ/YSMEHIaACCyHCYUM5AEC/3zH6lmj6Tv/tsARAkJACAgBJyFQyMfAZz0DaPLMSIylOzjJqGWYGUVgBSuZsPUjTg89ifFUXEZ1I+0KASEgBIRAOhPwmePDmNbv083YPZ1bluaEQNoJiMBKOzu5MoMJxC7vzKBpv7N4fwZ3JM0LASEgBIRAuhHI7QnPPObFO32b4t5qVrq1Kw05J4GBcQNZ89Fqbn97B6R+pXMGUUYtBISASxJQXaHupLos9ljikvOXSTsmARFYjhkXGZVewP276jScGMpR2WxQ7gchIASEgNMQ8HCDWkFu/DioPKrLL04zbhloxhDoonVix/M7idkYA1EZ04e0KgSEgBAQAhlAoBwEbApkj/o7AxqXJoVA2giIwEobN7kqEwhEza5G0NsXMqEn6UIICAEhIATSk0BAXjd2vFcOzx6/pmez0pYTEugY3YldLXcS80+ME45ehiwEhIAQcG0C/qcD2Ou1x7UhyOwdioAILIcKhwzGkkDhef6oN4SJEBACQkAIOBuBYr5w+oMCXOl80NmGLuNNZwKN8jfgcI2jsDedG5bmhIAQEAJCIMMJGDS4cCksw/uRDoSAvQREYNlLSs7LdAIisDIduXQoBISAEEgXAiKw0gVjtmhEBFa2CKNMQggIARclIALLRQPvwNMWgeXAwXH1oYnAcvU7QOYvBISAsxIQgeWskUv/cYvASn+m0qIQEAJCILMIiMDKLNLSj70ERGDZS0rOy3QCIrAyHbl0KASEgBBIFwIisNIFY7ZoRARWtgijTEIICAEXJSACy0UD78DTFoHlwMFx9aGJwHL1O0DmLwSEgLMSEIHlrJFL/3GLwEp/ptKiEBACQiCzCIjAyizS0o+9BERg2UtKzst0AiKwMh25dCgEhIAQSBcCIrDSBWO2aEQEVrYIo0xCCAgBFyUgAstFA+/A0xaB5cDBcfWhicBy9TtA5i8EhICzEhCB5ayRS/9xi8BKf6bSohAQAkIgswiIwMos0tKPvQREYNlLSs7LdAIisDIduXQoBISAEEgXAiKw0gVjtmhEBFa2CKNMQggIARclIALLRQPvwNMWgeXAwXH1oYnAcvU7QOYvBISAsxIQgeWskUv/cYvASn+m0qIQEAJCILMIiMDKLNLSj70ERGDZS0rOy3QCIrAyHbl0KASEgBBIFwIisNIFY7ZoRARWtgijTEIICAEXJSACy0UD78DTFoHlwMFx9aGJwHL1O0DmLwSEgLMSEIHlrJFL/3GLwEp/ptKiEBACQiCzCIjAyizS0o+9BERg2UtKzst0AiKwMh25dCgEhIAQSBcCIrDSBWO2aEQEVrYIo0xCCAgBFyUgAstFA+/A0xaB5cDBcfWhicBy9TtA5i8EhICzEhCB5ayRS/9xi8BKf6bSohAQAkIgswiIwMos0tKPvQREYNlLSs7LdAIisDIduc0OezVXjKunUSQWPpsLk87BOccZnoxECAgBByMgAsvBApKFwxGBlYXwW4EaBaomaLNA65uFY5GuhYAQcEoCIrCcMmzZetAisLJ1eJ17cq4osP73CLzUQlGloIaX9/34RUVC+AXFjk0aow7DvkwObWYKrFKF4ac3FaXQUj3LOW8q+mgaDavATz3B87yB3lOMfJPqlrL/Bd1KwcDWpntNP6Kuw97fFYN2aSneXyX8YMoTikYhGl4KiIFTh+DTFTAj9j9wc4dZbaFFBcjnCXrTV47Aik0wJgwux9luu1Yh6FtX0aK8RgFviL0L544ovvsT5oZqXEzjsNwUlCkAE5opGpRP5XzdYU47aBkCvh6mAYQdhAU/w/AbaRyQE10mAsuJgpXBQxWBBW6bDGiNjKkmrf40YOxqRDuT6ktNF2SRwNL/4E3LYdR/8QNqoEJN0SAKjOWAtM4/LYNwhGu6gtsg0KqYBqNFuWHYq2EcZERL4QFQVQbDFAPGKgrlZfrQVHshbgqwMH0npoYBHRWaj4KRGiyxCHoHoL+CYuaAPqzrq2CYrWGck8obZxzQ3oAhyPTe0jmpzXFoo7DKyW07xPkaHjaa+6+XT/171v7GnedMEVjOEytXGakILFeJtBPO05UEli4Flvc3UCXfwz8s986DqnszN6DOJrDm9IfepUyMEqRW5hJz7N4GtoUpDayPMeqMgUGfG5lh5eUSxWHHawb8sXKfRsKyzxQdr6TyAVTvxwf+Haoo52392n2LocseOHbvwUE9+RiMbgKPFXrwtdibip83wthtGn+kMiTublCxNKx/wUDh1M73IfPZ8TXUPpLKATnZ6SKwnCxgGThcEVgisOy9vRIElqXw0wYptE/T8Llib6cOdl6ivLM2rijQdLFl7QO6BRiWA17WJ2ScomBwOnHsDWo4qLKmvvTMPj3DL+Ew9FGokaAF29nfVTBOA96zLxjqRWC8G8rXxjdbOqdhD9436kYK11jpOuF+tG9U2fcsEVjZN7bOOjMRWM4aORcYt6sIrORSIPyEYvkajeWXYMU9aOADtYtD+6aKWl6K3hMzP6MoMwWW1VtbgVsgXBkMfsDmT6DxBdtvgoYhsLwncELRbSb8lIZsruz6FkvMTgPCDyvGL9E4DVSpAi+2NvEN366oskRL+qW3F/w7wiyZbsGCubA8AnwLwaCuUC4PcA0GjYNPUwlv09uKRvk0iIQtixSzQjXu5YTnW0P9INPz+PqZ8OopOGHxvBoSDJPbQJMScC9MsXqTxi8nIXcgtK4HdcqA4QLM/FXx7j6N6/aOS4F/QdjymqKMp0bcDfhxHqywc76W89m8QDH9ghYv6QZ1glpFTFlrCz6E7hH2Dsj5zhOB5Xwxy6gRi8BKgey/BgzljBgPG6CiEVLINE1TfP5LBpb+O/1LMHQG7U2F9pmdMsLGQC3FzMOkVPy54zWM4UAtF8rAagiG9SYJpYW7ocYbMZ7WoAqol0zyRf+5ViXugay0RDmjZ63N1R+UwBCkMA7SMPibgmJsif5A9N+OwqC+BdUUcLMusLAzA0vlBFXcCGFg/FjBJPvuMUOkWdRF6Q8HYFxgnlJLMHS7/1ry7D27MrB8jfd52ZlA9t+AOv7VIrAcP0auNkIRWK4WcSear6sIrD1jFFXMmSe/TVM0OmnfB3hmhtLZBFZmsnG2vtYNhZZ6ttJxaDldJZF7LWrB+s6mGS0Yqegedf9e/N+TMLeJDfniA6fehiAPOL0CgrfaT6VEFTity0bgt8+hxVm4Z/EWmN9f0S5Iw/2wot4Kjb8sLNS7HaD/Y+AfDpNXKSYf1hJrs5UuBu80g2dD4MgfMHGVYnaMfe8tn5zQtyV8UgeiI+CHT6C3pWxKYb6W89n8GTQ+m5RFgtyK2qXwXmjfeOyn6ThnisBynFhk9UhEYDmpwMoP/GFanpXZAiur79ms6t+wTkFL0+fCA7JJz7DS5Zae8bTAgNbdIhNaF40vmV9LnrFWQl9GaJJfagfE1f5vs3PTs790SXSN+G+8NN8HM7Ds6kFf5viJQjU0oqdIG+vbdVX8Sbrg1F7SWRkfFHkJy091hrrIe87+duPPPKWLP9KFVSp7dtjTRWA5bGhcdmAisFw29I4/cVcQWG91VYyvYXpY2fEl1D7hmHERgZV5cfHzgIpekCcGDkURnx2VbkcgXB9iyrKydb9tf1dRK49G2EYIWHu/54eJl8R7+bKBbhOND5TbaKd3eteUVWh5JC73PKNo8oXGbxpJFuzVrKFY+KRGkDcsmAojzsFJvYH8MK8LdCkNZ3+FIdtg1a2kbT/XQDHqCch/RePzX2D4ofuv53SDMl5Q0gCnIsByVW6gHyx+RVErl8blXQr/pQ+KJlvztZxPo881fksWvIb1FZvbafFZWFOGw+B0C65jNSQCy7HikZWjEYGVAn1HzcDyAFUP1EYgOvMzsLLyfv3Pfev1S3VJ5AvsIlU73iRkUdkSTXoGkVYLjGFAgMVIE+4j/YEh+MEZqB8MqG4m4WV1WVxXPfUa+IWUswAHKAxvalAYtLkKVdOUHZZ8CaFdDJuC+hGUnuX0rSlTLPFwB4KAahBfxDIVX4rpbSRy3GwgrvHDS3Mk9tsbDHNM/zLq4ksXYHIgAktuAkcjIALL0SIi40kk4AoCa884RRUPLT4bptF0Hvhj19btkJgN87AaT15w6gNFEJrVzBi9kPfQtlChCHgmdBYJl84p1q7SeP0S3DCCPQJL/4N1YH3oUR0K5TZllsfeUZw8ADO3acy6iP1LuJJPPJVLCAd2UkyprVld0pYgYjaPVzQO1/ihq6JlRS2x0HbUZQOb1xp56aDpi73KgTCna1JG4aGw/kdF99CUM2jeawLP14JAX3DT64bGwrWTMHMNTLsAZ5NfnhPeb6MYUhNy3YKlG+D97SkXVbf3V4b+kNig3sPlybiuMKyGKUMraLr5y02L+2jvHKhqIYIS+y8FUf1N99GCN6C7xcCWDYb2+tI5YPlY6GBRxHz7GKjlTbwwK7oO4pIz8YSfByoaFtI4sBD67If99+DREMW0lhr1CsFPC+C9PfBnMhhNQmBkM2jsA9/9BoO3mr40Jge0rKr4vgv43YPDexWvLTKyIf7JF0oEwO9DFP5RGtvnQYPDVijbmK/lfCwFYGILFiytZWjZG09HP08ElqNHKPPGJwIrBdapEFiqm8LQQ4sXGLrAx1yLWrtrQNsEjDPCtmR9PWwJYUW9WLpCNTWCXofoc1CzwU1flhVie9wPWwJo7crULCFkDhh6m1pJLlwS6mMps5zQ5Qwt1f16SPqysm0K4xsaHARVCgwTQdPrPurLIg2g3THEf2BoIzTYkcLnuJ51/JYBVR+Ud0KhcNB2gNLbXJdspnr7ugTR19EbwXgceMTO95q+fHCzec626lWNA4NePF1vXhc85uL2iUvq1iuMrazMx6Lt5LFz3wNGc7F44xcKhpqW8z9w+INhsUnOaSsV2lEN1RZUudQLLFVGr6Gl4DkN9ptl0d8WPQYCe8CgZ4vfA+OzwI92cvwPAitRENoQgfaPIHudKQIre8UzO8xGBFZ2iGI2nUO2F1gWfwDblAK2YvsQMZVwWdfWsKCx6V/Jl4T90FfRrZztB7fdc6H1YbgU+3CB1aIajGoCtcx1FmJjTCLAXf8WTX/+uGbeTW6H4mBa6lFlgMA6vFJBc2wWDg9bo+gdobGim4XcSxaPw/OgvLWC+rnh9wGKmvk0PPRvF2NNy+I83MGg//se7F4LA/6G7ZYPiiVgcgsYZC6Muu8XxdifYJH235ea6f2Ofdosp2xkSenTS8wQugWD3jfXs7K4V9ePhVbWdtFLQcz8O0lRzhz3wwsU5f8yzyeZGKv+DxitTPX716BtUYjYDG23wq4I6N0AhteHsgbF1KXwySHNlJllcZQorhjWFF4qo/H77zB6rekLZvJB+wawrJ7p5EunYOo0xRidcw4oGQL/PgPcgVWTobP+zXTyw9p87RF9QILkOrMYgnZkz1/gIrCyZ1zTMisRWClQs1dgvaEwvK6B+TNWz4qKT1XVdzg11yFSRxXGEaAttvglmpLAqmSSMKoFJnmVUES7JBj0Lyn0z6qEb7Z0KWRx2CwknsJU01tgxdcN031UOesZNsYrwOtgeAfQN3WxsvmcFqrQXgZWWvng6a9Qo0AVMr+m1ydLYK53rLc/S2EcbnGtLl4+A0MnM4hwMOrZx/YclnJKX6JnbddAayLKHvGlT99cNyr58kPLwuZqi4G41ka4/eCA3b4DvbaVCoO43qBVBTUEVFDqBRZNFWouGPJqsBji+iTrrxgYEpbfx4LxW+B5eyCaznmo0LPWlCXH6fouivb3l93PFIGV3SPsfPMTgeV8MXOZEWd3gZVELiXLWLEnyF/2hpcqAinIiMR6RwchaO79UgGJGUpA2C6YsgYmmB9Y2hSDvhVg3SaYFx3/N3yKGViVS8GEVtAsCO6cUsz/CT47rqEnrVQLgreaQcdyEHkKvvwZ3jpmz+ySnZMBAiu+h0hYPhMGnTGx0XeDXPCyopbf/QfSqFCY+w30N9de0jOy9B0jg/RvYy8brBbVXzVE8YS/Ro67sHqh4qVjGqGx4O8D47ooOpTVyBsNS+bD6CNwIGG6HjC8peKNuhp5wuG7DfDBbvOSuTRgs7xEF1izXjLvzngclP6AZu14DDT94dkyu8/az6xcmyCqkkgqvZ2+0FvfCj0S5n4AzyUsI7RY0qgX5m96IenywYQu5vZTdCqlof2jaLFGY/tVGNwaBtWE4hHw7Er47qiVAQXA0GYwoTIc1utgLVPM0SWVGzQNgbndFIGxGnt2Qr/VEP8FsDeUehyOt4Go2zBrtOJVGwLxgfkmm4+tjQYSsgD1Yvl+lluP/8cYO9LlIrAcKRpZOxYRWCnwt1dg6U0sB+VugK80tM0a3AJVAjRdsnQGlRu0L0CbaLFszZbAqgzqQ1BP6iJGoX2l0EZaiCAfUK8p1Ada1iwhtCMDK5HqcjAOMmcjFQe32eZsK13u6YeewbNCz6Qifk2+npGlTQCls8kJ2tegfQRYPJsk2UXviIpnqs3WIBeoNmAYDZqeWXUGjOMgcdvenEBbMOhLz9zB+LcBatq5hC2FOSf5LDc/niTUd7JXDNpaVpdkx8eh5mL9yXf8HQ0GXfTlAe1/oOk8+6ZRYOn1pXTxNcCU6c0ohXF+MoGoi9otBgyljfH3ubGt/m87f49NVhjMyxFTswwwsf6YXgRfXwYqRyIBEVhyMzjKVbv2AAAgAElEQVQaARFYjhYRGU8igewusBIlUlpr4VhmxUyAVvq3gZZHIbg41IA/xqT1jvzg4gjTz63uNmflHkxpCeEHnRUvVtfIG6p4d73GtOPxzxuJR4Ny8M4T0Mwfdm2H91fB6tTe5xkksNZb42bBVa9TNH34g1/EBT0Gp8ySZ/k70MEii6p+XcXaNhq5PeCnKdD7AoRZPr/mhPnPKToEa0TshD6bYI1l7AxQ2RsKxJlqYOmlLtLjsFdgqRBzOr/+91LC3OwUWAlLYq0Vcm+hF3uNgJ9jLWZjp8Ca8Tx0KwNeRxVNVmlsu2KfwFIF4c2mMEGP1074eDlM1TMX9ENBgCc85gH/Rpieo+OPVAisB+Zrp8BKEMvZuZC7CKz0eNdmjzZEYKUQx9QILFvN6MvbPgDVALTfFNr7Gui1q/TDmsDSl2+9pVDPa3BDwXcK48BkksVZBJaNJXPx2TtFTb/njXom0xvAeQuAhUB9B+oJYDdow0CLT88FSoJ6D5S+bO0YaON1eZUM/hPmnfjygnEV8LTF6zlAVQJN7395Kt7DqRRYettGPSPKomh5iks7LxK/u57V+lrtzDWw9FpTyX1bDXNdqPKg/QDae/oOz8CAtAksffdCw1TTEkhNZ9fFBiN9++GnQB0GLfFbPjt4mucZn6FX3k55mNasLTuGkx1OEYGVHaKYveYgAit7xTNbzcZlBNY1GDTOvFQrlRFMqbB2oiC7BcPehwnmti0zv+a8qehjx/I0mwLLH+Z3gK6l4N91MPwPWJ28dkIe6N8IJjWAm4fgi5XwYXwholQcGSGwUshcS8issSkYLCSgnjlkmWmzoD90DAaPo1D7B/jrTvwKwiTHiLbwymMQcBNeWQ7fnDBlumXkYa/AwpqEsVNgpTqzyE6BNbYbvPQo5LsCDRbC1ov2CSx84LUmMK4+3NgHn66Cj6wtB7QEnwqB9cB87RRYiYXeU8qEy8ibIRPaFoGVCZCdpAsRWCkEKj0Elu5pvgT1Ami6jBkFJNRmSi6wJpnlVW+9RqSCbxTG1638ke8kAstoa6nd7wYMeuaT/r+qwL9WYjAHVDcwnNLrZYG21pQFpIsr9bapdpU2A7ThQPJl848plM6yoRZfqD0+Q+i/fttkp8BKnkllt8CyvNdSIXZYbcDQ1Ig6DsaeoO0zs0yLwNIz2P4HaqpenF2hTVVoY+2XTA/7lWeZTfbALo4pXWyxi6Oxkb4l8sN6cq3XRWC5VrydYbYisJwhSi46RpcRWJEw/h3Qn5FSeyQWc08mqfR2bO0ml7ic64zC2i5p1sZgS2C1qKkY21ijel5YuwTG7AZrJX361IeJ7RTuJzVmrFO8dSqVNZ0yQGCllP2SILBSqlGUcE5ygaVn5TzqoXFhPTy+FS4mT8UHOtZXjGmoUcEN5v4IE/4lfsllWo/ShWDcU9BGL+pqcRhj4Ph2qLzBVHvLniWEqjhce820U2Hi3OwVWO9CozzEZ/bZtTTOToE1qRv0eRT8UimwVF4YoAusuhkksJLP106B9UN/0DdQ0NO+bC7lTOvN4CDXicBykEA4wDBEYGWCwPrcgHpBQ9un2RZYP5kKY6vXgQjTDmtG/b+tHc4gsFJa6mUWWMZLgF6I3Vrpgi9UvKwynCeJwOINhdKXG7pr8UsNGW8FUClQQxWqnxa/xl8bodAWpPK5JnmzGS2wToEhCFKVmTQBDP1MmclGPVPqZ9OSzPgjLQKrvkKNB1VHi994QNN3e9FjlB6HJT99Cae+i6C9h5mNYS/E6sJTjiQERGDJDeFoBERgOVpEZDyJBLK7wHqxrWJ6A9MDT/Jd2+y+DSyLRs+DqgkFxVNYXpiW7A9bAqtNbcWYRhpV9B2R7DhunsRhBFZKksVWLSfLKT5MYJnr6qZMJSJ9BFbZAPi4K7TRlyxYHFoMnN2uCFqp2S2wyIAaWDYh2Cmw0r0GVkpRSUUGltTAsg1SBJYdvxBd5BQRWCkEOjUZWHrtJb3Y9eMG8NXA01TPL8nv/J02MrAqK7RIA+TQUDn1HQf1bzTAOMyGdHECgaWFu6H56ZXVrRwJAuusAVoYTUvekh8PEViqgJ1CKpMFli4T9CO9amDZvDv1oua6CNLrrE1SaB9rSWVTGgSW6kF88faHCtRU/m60zEJL2J3S3iYMbykYb4Y6TGGcYGfc7e0gG5wnAisbBDGbTUEEVjYLaHaaTnYXWJa1hnZ8CbWtPWDZEdDEYu4WhdrHdTXvNmclyyqjBFZMNMTZeJZMmMbN0zDzFxhp3vrZjumZTsmADKwMF1gxcC+WlPdcvA1zl8EnR61/QWwvn8Le0LUk1PbRt426f2hGCLugMeS8KQPr4//BIL3w/3EImn6/qH+Si6wILMt7NSXZmih0bO3OmHxClksxP4OmZx9SxH0/tFgP269Bv2YwtA6UuguDV8LMo1Y2TrJVxD0lsJ5Quioc62wq4v79KNubHz0w32TzaZywi1Ky/hKXHm4Bv5X2Rtm5zhOB5VzxysjRisBKga49Akvf2e4bMNS32BUwGrRroN1WEKdQARoqr4ZmS2DVNI8hWqHFKFQuI9oJU30nZloZnwgs4gWWvv4/eQ2A5Lh0gTUStGX/8V1kWXxcz6a28ZyUXGDRFQwLTH2nVAPLVhF3m6PeZMBQ14jhBMR9CVqyTClVD1QHoIh5qeUm00Yt8bvSnLLSah1QY0A1Ae1v0PQst4S6Y/8BXRJ5tQPiaqeuMfc9YKwCRn0JaEDqrnWVs0VguUqknWeeIrCcJ1YuN9LsLrCwyJ4i2S6BqQq2RbbVgpGK7lEa28dALW9Ivhuc3m6iwErPJYTesGAZjNsH+1M1eDtPdkKBdXK5osFOjbCEouF2TjWjTlMKnn4SFjQmvsr+oPet111LrJ12DV4aZ95cyR4xY5lNNV7R+Kp932ImFELXl2uW+hPirFy2+k1F08IaYeug8w7YfQca1IBJTaFGLpi3CMbvB33nd8ujZnnFiGbQtrDGb1vhvZ/sKG3hBkElYOfLBvJGGvl5BjxlWfw3oQMb87WcT5C19bR6OZZJinJoHLZX9GXUTZGB7YrAykC4Tta0CKwUAmaHwHL7HjS9xlIu0+5vesHx5GvO1UxQz5OywDoD2mTQjijU16ACNfgLjPpucDuTjVEElkkI6UsIJ9n3Wfaf35Z2iKgk9a5eMokj/UiQWtoCA1p36zWlHhBfDxmwOuiGKh8HBvtnpl1SaCOAWVaYPW2ufeUN2nzgRfvbtXmmzkzP6PJK5dLIhAb1LLPNpn+kxC4dRurUTYjAcurwZcvBi8DKlmHNHpPK9gILSMye0usNfQa2MjYeFtGEXc3id3+7AFH9wdPGDnqJRdxtvG6tL1tLCPV6SQufgi7BsGc5vL0D1j/s28qHTcba604ksJYPhicDwbhPUXqpxvm7aZlwBl1jITuT756Y0OOyAdC+BOhSNT7V33wkSFFrOwzqpzSsr9jcTkPfuXHKcBhs5xQS+tNrkuX+UXtQYBWHPb2gsh/smAP9jsBB/R4LgB87Qif93lsCw3bBL8nuvS414L0nIMQI0zbBKzaEUvKhFskHK4dAZQWHVkPl7Q9OxtZ8LefjvdDKQ7zl8t6x0Cp5cWA7uTn6aSKwHD1CmTc+EVgpsLZDYBn+BiqD2mPA2EdD25/s90oBUF+A6pqywNJmgdYXKAiqLyi92Lu+FE0v+N4+2RhdWGCp5xVKL0paQkObqNe3yrz3ikHPYNJ33zPvMJi8Z4Oe5WWOldEy4dpcw8nqDoN6I+PAoItPPd62Ct8n7+wPMFTigWWqSU7zML8eA8SBumTapdD4TbLGyoF6E1QfTJl/k4Dp/5FrCzDouzwmyKuWRptZa7Z6MqxT0NL0ftJ3RbSV9fYfR+r0l4vAcvoQZrsJiMDKdiHNPhNyBYFFIbg41IC/vlVOJCz7TNHxSuq/7Uss5n4cptyAQTXAZpFyiz71ZXRVlmgP/cy2uQsh8EFnxYvVNfJehPHr4fOjcCW9b0MnElj16yrWttHI7QE/fQ69z0FYKjfZCfGEXBocjYaHbZqXWtS2ivvHt2Nxb+y1rKkGvNVVMb6GBpcN9J5o1Fe0JDkSJKqtbMIG+h9EEQ9mQFmKoBkj4DUjWCatvd8JXq0GfncMvD/HyLSL98twTOiqeL6Khvsx6L8BfjhnMaRcMLi5YnQ9iDqsMXk9jEuWSVXYHUJywD93k24g5ZsbhnZQDH9U426ogX6fGtG/MLY8bM3Xcj7Th0P/ZNclSmsbHFMbT0c9XwSWo0Ym88clAisF5vYILD21tIK+M4tC66ehHUzanhoISv/GQK9VlMISwkSBpV9uWYT8poIfFMb+Fh9UnkAriBcmsWD8TMHrqX82sRyp3bvl6RelUNA8Yae5DKuBVRLUe6bdCPXi7/oyS212Kt437oAuQ0oD61Nxne6CtoNWK4XlbBfB4A/Ji42rHwyobqb4WRMxD10m1wJUGGj68j97n1dSUQNLdQTDR6Dp9+gC0HrawUW/B5tjSutPthxfVda/9XVD+caZlv7VSoN8KgEGffccL7Ap/uwYpiucIgLLFaLsXHMUgeVc8XKp0bqEwAJaPAYruoH+Wa0fF/fAiq2w7AL8HAuVfaCcD7Sson9GK8qbt3pOcjMkLEeM0QiLAP98kFJdrcm9zbWQ9J2ftxsYtsbIN1GmFuv5QK8m4PMXDAiDa3GQksCqXAomtIJmQRB9SbFxq8bX+2HzXbgJFMsBLUtCp0fgnwswZFcabmMnElj67FYNUTzhr5EjGvb+ApP+gpV3IEJ//neDNkWgRy1FgSMaHxyGLQm7+njA8JaKN+pq5AmH7zbAB7vjNzlKtyNRduo7RU9TNDpp/qPEHTYNVTTKp2+vDoPGJVtimEx8NlqikbCb9rCOMK6OaYjJd2WM/1ukL/QuZ6qPMfcDeC7Zzox7xiiqeGtEnYB+X8OC2PhELtpUg2ltoWhuOP2Tot0fGgfu3EfRuDqMbwo1C8GRTYphWzWW39LXU0CfBoqRTSEYjd9+g9G/gF6iI/5wg6YhMLebIjBWY89O6Lca9ESHhNcDg2BPfwMFY41c2qFosVxLXB77sPlazqf3l7DQ3OzTteDbzqb3urXlvekWZAdoSASWAwTBQYYgAiuFQNghsPgNDLVBizKg6QWmZ5qLacdnUuk74enCxPR73G6BpZeWfFxhmKHQKuvFEsH4sUq6XK4gGHRx4AnaDTdoEoeW8Etfz9JNZS1LpxFY+kdIH4XS61oFa3ARWAzGr0yZyfFHEBh6K1R9hfa3hvFN8+doTqCteVmbOxj/NkBNe40Q0BsMc0xdJC9GniDu4uM8SKF9aiEULWRM/C6DFtlISeSWld35krQ7VKF9pt3faTCl3yH2CqyioIaYJesF0KYqtA8fIkP9gS0GDKWN8SUPjPoS2i3mwZQAtdckr9B3otS/JdIz12wc6jD371uLc5Jw0XcstMg4d5BfnQ4zDBFYDhMKGYiZgAgsuRUcloCrCCw9AF2rwJc9we9h0TgOykbateVyRFtZMpbNrxusaFnE9kPEtunQ8RRcfojA0ttsURlGNoPaASlkm9+EWVuhr7newMOmmuR1JxNY5IZfXzBQP8CIRwr1Iw6uhAG7YHPCw1dRmNwSBumyB9j3i2LsT7BI+2/ffCdnnZg9BESZ+1be9yWqreWsA5+EKfqW5PoRA1H6kj138NKXEQC2MvoSaj7p51ir+9SwCvzU09x/Qrv63036N6MK7p2DQfMVP1zV4qWo5fF2W3ilJgR6QUwMxMWC8gB3d9O9eHY3TFwPUy2X6vlC+/qwrKGppUunYOo0xRgLzj5e8FpL+KBe6udraz5e3qa2dFHX/kvFTymX+E/VW8TRThaB5WgRybrxiMBKgb09AmuYwjBEi1/6F3/oKaq6EzEv39IuKrSbClVYg2Mamr40UF8WqB+tTEsFVU1IkoGVMCS9sPYSUIWAI2B8AdhmftEXDIsUNLP4/NG/6NKXbFkRIQ+7w5xJYOlzMbxgYqfpRfRtHTcUfKcwDjRLKv3cz8DQyXxBOBgf+mCXtHHLZW26oEk89KWFVsRW4usWWWumDxrzK+br4sVW+QdlWkJx9/i2txiIa220siOKFQB2CizVHtRYBRW0+EL3ml776mFp+sXM8lTvVs8A/Jb7u6kkn+dDbjyb96qNbLaH3ceu+LoILFeMumPPWQSWY8fHpUfnSgIrPtDuMK4+dKsBAYXuy4T455BICL+g2LsRWh2xITMsauuEbYSAtQ+/fV58DAY1MRBcyJiYAaZ/k3X2X5i+RvHFLS0+ayilDKyEXvLnhBdqKZ6trlEyH3iapUZsLNwMIz7LZfpeWJKWmlDOJrDMUJ6pBm/UgzKBkNM9fjPF+Iex2zfg6B7FV7s0lt6weJbLCe+3UQypCbluwdIN8P72+5lOD4+o/Wd8+Qy8VDXZ+ddgwbeK7qG2hZkuW6d3BV9zfBNaOLwYuu0gMSvLsuVlg6F9EdNPlo+FDlbqPlUupVjaQyM4j0laJRzn/4aJq+C7CNvLKXvXgbcaQrn8Fr3ehUN/Kj78Hb6/mWw+elZgVcX3XcDvHhzeq3htkZENyXB4uUP3qjC5I+RNxXz1ZvT5LH9GIyhP0kZP/wHDlt7PyrI/Ys51pggs54pXRo5WBFYKdO0RWLpY6Gwq3m54FMhhak+7Y4BdoL2roarrGS4amr4MLDUCK79pqZzSdyNUYNTr/ZnFfnwnOfVaiAZorkwZL/EPJMAohVHPBkvF4WwCK35qVUC9YsqqUrqISvgciFFw0QC/aBg/N8JeMwj9972eRfWpSTIajwOPpAJSwqlfguGlB697WKFxw1sKRmmmOloWR3w2V2/rNaISlhfqpxu/UDBUSzGjKbFZewXWq6A+AfTP/WlgHG0HD10E7gGDLlbvgVFfzvmj+bp0EFjxnMab799hqb+X7ZhBtjpFBFa2Cme2mIwIrGwRxuw5CZcTWP81jFZ2I/yvTcr1mU8gMCd0CIQCkbDyIuxJxeqDtIy2nZ/5WTcWFkbY34Je0ypAr/WhZ1XdsC6uElvT5WwV4AQMf0jR8kf1JbPupo2PrtyE7abycHYdlXJCWU9wM8LBSDiUwg6QupBqVAga5oYNx2BdCpwNCurlTsV8LUYbvwTYzCnshh27INo1U8c/SQSW48cos0YoAiuzSEs/DkHAB+gBVAL1JQ/ULEvVGNuZi7rrFyWsRbengRaAr/lEffOSlJZ76stBh4E6otC+0OK/ZMvywwPUY6D10WsdAPOyfEQuPQARWC4dfoecvAgshwyLDEonIAIrdfdB4hLC4xA0PdXlKVLXmZwtBISAEEiBgAgsuT0SCIjAkntBCAgBIeC8BERgOW/ssuvIRWBl18hmg3mJwEpFEC13j5sDVfVdi+QQAkJACGQRARFYWQTeAbsVgeWAQZEhCQEhIATsJCACy05QclqmERCBlWmopaPUEhCBZR+xyn4wd4CiSh4Nzihafk62Lg5tHxU5SwgIgawkIAIrK+k7Vt8isBwrHjIaISAEhEBqCIjASg0tOTczCIjAygzK0keaCIjASgGbXhugk6mWasIOcHqhoLkT4LnbacItFwkBISAE0o2ACKx0Q+n0DYnAcvoQygSEgBBwYQIisFw4+A46dRFYDhoYGZbUwErxHqgCWs/7Z4SfUMydB4P1LQPlEAJCQAhkMQERWFkcAAfqXgSWAwVDhiIEhIAQSCUBEVipBCanZzgBEVgZjlg6SCsBycBKKzm5TggIASGQtQREYGUtf0fqXQSWI0VDxiIEhIAQSB0BEVip4yVnZzwBEVgZz1h6SCMBEVhpBCeXCQEhIASymIAIrCwOgAN1LwLLgYIhQxECQkAIpJKACKxUApPTM5yACKwMRywdpJWACKy0kpPrhIAQEAJZS0AEVtbyd6TeRWA5UjRkLEJACAiB1BEQgZU6XnJ2xhMQgZXxjKWHNBIQgZVGcHKZEBACQiCLCYjAyuIAOFD3IrAcKBgyFCEgBIRAKgmIwEolMDk9wwmIwMpwxNJBWgmIwEorOblOCAgBIZC1BERgZS1/R+pdBJYjRUPGIgSEgBBIHQERWKnjJWdnPAERWBnPWHpIIwERWGkEJ5cJASEgBLKYgAisLA6AA3UvAsuBgiFDEQJCQAikkoAIrFQCk9MznIAIrAxHLB2klYAIrLSSk+uEgBAQAllLQARW1vJ3pN5FYDlSNGQsQkAICIHUERCBlTpecnbGExCBlfGMpYc0EhCBlUZwcpkQEAJCIIsJiMDK4gA4UPcisBwoGDIUISAEhEAqCYjASiUwOT3DCYjAynDE0kFaCYjASis5uU4ICAEhkLUERGBlLX9H6l0EliNFQ8YiBISAEEgdARFY/2fvPqCiuPYwgH+IggUUUaPYsJeIJRgNmlhiS+yiRtEomthRo5iI5YENY4JJBBPBhg2NNXaxYWJLFBtRg4mCRkxUbGCh93furCgaCztbZ/ebc3Lee3ns7p3ff+/dmW/u3FHPi3+tewEGWLo35ifIFGCAJROOL6MABShgYAEGWAYugBF9PAMsIyoGm0IBClBATQEGWGqC8c91LsAAS+fE/AC5Agyw5MrxdRSgAAUMK8AAy7D+xvTpDLCMqRpsCwUoQAH1BBhgqefFv9a9AAMs3RvzE2QKMMCSCceXUYACFDCwAAMsAxfAiD6eAZYRFYNNoQAFKKCmAAMsNcH45zoXYIClc2J+gFwBBlhy5fg6ClCAAoYVYIBlWH9j+nQGWMZUDbaFAhSggHoCDLDU8+Jf616AAZbujfkJMgUYYMmE48soQAEKGFiAAZaBC2BEH88Ay4iKwaZQgAIUUFOAAZaaYPxznQswwNI5MT9ArkDqcmdUmXpT7sv5OgpQgAIUMJCAQwlLhE+vC+v+BwzUAn6ssQj0TOuFUx1PIuPPDGNpEttBAQpQgAL5FCgX44CzhX/P51/zzyigewEGWLo35ifIFLBY8zZa+F1H1F2Zb8CXUYACFKCA3gUKWQLNqljip8+dkN1zn94/nx9oXAJ98RGODzmB9J/TgVTjahtbQwEKUIACrxCoA1Q5XAXhOeFkooDRCDDAMppSsCHPC1iE9sWY+Yex6TxtKEABClBAKQI21sCApkUwe3RnZLZeoJRms506EvgCX2C73zYkrEoE4nX0IXxbClCAAhTQuoCFG9Ah8AOsylil9ffmG1JArgADLLlyfJ3OBQpFb0TYqllwC76n88/iB1CAAhSggHYEyha3xNIhjmju5o1Mx07aeVO+i2IF9hXci29OfIOLn11C5pVMxe4HG04BClDA3ATKbLTHrLaz4ZrR09x2nftrxAIMsIy4OObetALpD5C0dyymLDqE9RFcO8Pcvw/cfwpQwPgFShSxgHszG3zxaWcUbjULOYWKG3+j2UKdCiRYJODL1C+xfcFOPFgZj5y7OTr9PL45BShAAQpoLlDoY0u0nd0e84vOR4mcEpq/Id+BAloSYIClJUi+jY4E7l/CuRWfYtHuK9gaqaPP4NtSgAIUoIDGAnaFgd5vWWNAp8ao0+dboEQ1jd+Tb2AaAjGIgXf0NPy29ihSfkoBuLalaRSWe0EBCpikgEUvoMbwGljWcDlqoZZJ7iN3SrkCDLCUWzuzaXn6jVO4tncOfgk/j18vJeNKXA7+jjOb3eeOUoACFDBagSKFgGr2QO2ylmjxpj2aN2sOh1ajYVWugdG2mQ0zjMCfGX9i0a3FOHr8MO79dg8Zf2YCVwEkGqY9/FQKUIACFMgjUA2wqA7YtrCFU9sGmFJxMppYNyERBYxOgAGW0ZWEDXqRQM6dc0i8chDXz/+MhDsxuPkoB+UKcm0sflsoQAEKGEogLccKyRYl8EaJwrCrUBsOTm1RxLE5LOxrG6pJ/FwjF7iccxnHUn/DodsHcSH+LyTfTUKiVQJSi6QZecvZPApQgAKmK2B/uwwKlAOqlqiCDhU7oEWxVmhowQtRpltxZe8ZAyxl18+sWl8g5Q6yH/0Di7SHyMgCbAokm9X+c2cpQAEKGJNAJiyRnmMNy4IFgcL2gG1F5FiXNKYmsi1GKPDA4gFu4AbiEIeMrHSkF0pHVqEsI2wpm0QBClDAPAQKJxaFRSHADiVQ2cIRZbLLmMeOcy8VKcAAS5FlY6MpQAEKUIACFKAABShAAQpQgAIUoID5CDDAMp9ac08pQAEKUIACFKAABShAAQpQgAIUoIAiBRhgKbJsbDQFKEABClCAAhSgAAUoQAEKUIACFDAfAQZY5lNr7ikFKEABClCAAhSgAAUoQAEKUIACFFCkAAMsRZaNjaYABShAAQpQgAIUoAAFKEABClCAAuYjwADLfGrNPaUABShAAQpQgAIUoAAFKEABClCAAooUYIClyLKx0RSgAAUoQAEKUIACFKAABShAAQpQwHwEGGCZT625pxSgAAUoQAEKUIACFKAABShAAQpQQJECDLAUWTY2mgIUoAAFKEABClCAAhSgAAUoQAEKmI8AAyzzqTX3lAIUoAAFKEABClCAAhSgAAUoQAEKKFKAAZYiy8ZGU4ACFKAABShAAQpQgAIUoAAFKEAB8xFggGU+teaeUoACFKAABShAAQpQgAIUoAAFKEABRQowwFJk2dhoClCAAhSgAAUoQAEKUIACFKAABShgPgIMsMyn1txTClCAAhSgAAUoQAEKUIACFKAABSigSAEGWIosGxtNAQpQgAIUoAAFKEABClCAAhSgAAXMR4ABlvnUmntKAQpQgAIUoAAFKEABClCAAhSgAAUUKcAAS5FlY6MpQAEKUIACFKAABShAAQpQgAIUoID5CDDAMp9ac08pQAEKUIACFKAABShAAQpQgAIUoIAiBRhgKbJsbDQFKEABClCAAhSgAAUoQAEKUIACFDAfAQZY5lNr7ikFKEABClCAAhSgAAUoQAEKUIACFFCkAAMsRZaNjaYABShAAQpQgAIUoAAFKEABClCAAi9XxG8AACAASURBVOYjwADLfGrNPaUABShAAQpQgAIUoAAFKEABClCAAooUYIClyLKx0RSgAAUoQAEKUIACFKAABShAAQpQwHwEGGCZT625pxSgAAUoQAEKUIACFKAABShAAQpQQJECDLAUWTY2mgIUoAAFKEABClCAAhSgAAUoQAEKmI8AAyzzqTX3lAIUoAAFKEABClCAAhSgAAUoQAEKKFKAAZYiy8ZGU4ACFKAABShAAQpQgAIUoAAFKEAB8xFggGU+teaeUoACFKAABShAAQpQgAIUoAAFKEABRQowwFJk2dhoClCAAhSgAAUoQAEKUIACFKAABShgPgIMsMyn1txTClCAAhSgAAUoQAEKUIACFKAABSigSAEGWIosGxtNAQpQgAIUoAAFKEABClCAAhSgAAXMR4ABlvnUmntKAQpQgAIUoAAFKEABClCAAhSgAAUUKcAAS5FlY6MpQAEKUIACFKAABShAAQpQgAIUoID5CDDAMp9ac08pQAEKUIACFKAABShAAQpQgAIUoIAiBRhgKbJsbDQFKEABClCAAhSgAAUoQAEKUIACFDAfAQZY5lNr7ikFKEABClCAAhSgAAUoQAEKUIACFFCkAAMsRZaNjaYABShAAQpQgAIUoAAFKEABClCAAuYjwADLfGrNPaUABShAAQpQgAIUoAAFKEABClCAAooUYIClyLKx0RSgAAUoQAEKUIACFKAABShAAQpQwHwEGGCZT625pxSgAAUoQAEKUIACFKAABShAAQpQQJECDLAUWTY2mgIUoAAFKEABClCAAhSgAAUoQAEKmI8AAyzzqTX3lAIUoAAFKEABClCAAhSgAAUoQAEKKFKAAZYiy8ZGU4ACFKAABShAAQpQgAIUoAAFKEAB8xFggGU+teaeUoACFKAABShAAQpQgAIUoAAFKEABRQowwFJk2dhoClCAAhSgAAUoQAEKUIACFKAABShgPgIMsMyn1txTClCAAhSgAAUoQAEKUIACFKAABSigSAEGWIosGxtNAQpQgAIUoAAFKEABClCAAhSgAAXMR4ABlvnUmntKAQpQgAIUoAAFKEABClCAAhSgAAUUKcAAS5FlY6MpQAEKUIACFKAABShAAQpQgAIUoID5CDDAMp9ac08pQAEKUIACFKAABShAAQpQgAIUoIAiBRhgKbJsbDQFKEABClCAAhSgAAUoQAEKUIACFDAfAQZY5lNr7ikFKEABClCAAhSgAAUoQAEKUIACFFCkAAMsRZaNjaYABShAAQpQgAIUoAAFKEABClCAAuYjwADLfGrNPaUABShAAQpQgAIUoAAFKEABClCAAooUYIClyLKx0RSgAAUoQAEKUIACFKAABShAAQpQwHwEGGCZT625pxSgAAUoQAEKUIACFKAABShAAQpQQJECDLAUWTY2mgIUoAAFKEABClCAAhSgAAUoQAEKmI8AAyzzqTX3lAIUoAAFKEABClCAAhSgAAUoQAEKKFKAAZYiy8ZGU4ACFKAABShAAQpQgAIUoAAFKEAB8xFggGU+teaeUoACFKAABShAAQpQgAIUoAAFKEABRQowwFJk2dhoClCAAhSgAAUoQAEKUIACFKAABShgPgIMsMyn1txTClCAAhSgAAUoQAEKUIACFKAABSigSAEGWIosGxtNAQpQgAIUoAAFKEABClCAAhSgAAXMR4ABlvnUmntKAQpQgAIUoAAFKEABClCAAhSgAAUUKcAAS5FlY6MpQAEKUIACFKAABShAAQpQgAIUoID5CDDAMp9ac08pQAEKUIACFKAABShAAQpQgAIUoIAiBRhgKbJsbDQFKEABClCAAhSgAAUoQAEKUIACFDAfAQZY5lNr7ikFKEABClCAAhSgAAUoQAEKUIACFFCkAAMsRZaNjaYABShAAQpQgAIUoAAFKEABClCAAuYjwADLfGrNPaUABShAAQpQgAIUoAAFKEABClCAAooUYIClyLKx0RSgAAUoQAEKUIACFKAABShAAQpQwHwEGGCZT625pxSgAAUoQAEKUIACFKAABShAAQpQQJECDLAUWTY2mgIUoAAFKEABClCAAhSgAAUoQAEKmI8AAyzzqTX3lAIUoAAFKEABClCAAhSgAAUoQAEKKFKAAZYiy8ZGU4ACFKAABShAAQpQgAIUoAAFKEAB8xFggGU+teaeUoACFKAABShAAQpQgAIUoAAFKEABRQowwFJk2dhoClCAAhSgAAUoQAEKUIACFKAABShgPgIMsMyn1txTClCAAhSgAAUoQAEKUIACFKAABSigSAEGWIosGxtNAQpQgAIUoAAFKEABClCAAhSgAAXMR4ABlvnUmntKAQpQgAIUoAAFKEABClCAAhSgAAUUKcAAS5FlY6MpQAEKUIACFKAABShAAQpQgAIUoID5CDDAMp9ac08pQAEKUIACFKAABShAAQpQgAIUoIAiBRhgKbJsbDQFKEABClCAAhSgAAUoQAEKUIACFDAfAQZY5lNr7ikFKEABClCAAhSgAAUoQAEKUIACFFCkAAMsRZaNjaYABShAAQpQgAIUoAAFKEABClCAAuYjwADLfGrNPaUABShAAQpQgAIUoAAFKEABClCAAooUYIClyLKx0RSgAAUoQAEKUIACFKAABShAAQpQwHwEGGCZT625pxSgAAUoQAEKUIACFKAABShAAQpQQJECDLAUWTY2mgIUoAAFKEABClCAAhSgAAUoQAEKmI8AAyzzqTX3lAIUoAAFKEABClCAAhSgAAUoQAEKKFLAqAKsjIwMnD59GufPn0dKSoreQOvUqYMPP/xQb5/HD6IABShAAQpQgAIUoAAFKEABClCAAhTIv4DRBVhHjhzBsmXLcOLECb2EWKVKlcLs2bPRvXv3/KvxLylAAQpQgAIUoAAFKEABClCAAhSgAAX0JmBUAZbYazELS18hlr29PYYMGQJPT0+9gfODKEABClCAAhSgAAUoQAEKUIACFKAABdQTMLoAK2+ItXz5coSHh+tkJlbJkiUxePBgjBkzBkWKFFFPjX9NAQpQgAIUoAAFKEABClCAAhSgAAUooDcBowyw8oZYurid0M7ODgMHDsS4ceNQtGhRvWHzgyhAAQpQgAIUoAAFKEABClCAAhSgAAXUFzDaACs3xDp69CiCg4OlmVipqanq7+FzryhRogT69++Pzz//nOGVxpp8AwpQgAIUoAAFKEABClCAAhSgAAUooHsBow6wckOsX3/9FUuWLJEWdpcbYllYWKB48eLo06cPvLy8UKxYMd3r8hMoQAEKUIACFKAABShAAQpQgAIUoAAFNBYw+gArb4i1ePFinDx5Uu0QS4RXYuZVz549MWXKFIZXGn9t+AYUoAAFKEABClCAAhSgAAUoQAEKUEB/AooIsHJDrGPHjmHhwoVqh1hikXY3Nzf873//422D+vtu8ZMoQAEKUIACFKAABShAAQpQgAIUoIBWBBQTYOWGWMePH5dCrIiICCQkJLwWoXDhwmjZsiUCAwM58+q1WvwDClCAAhSgAAUoQAEKUIACFKAABShgfAKKCrByQ6zz589DPJ3w4MGDePjw4UtVxcyrd999F7NmzUKVKlWMT58togAFKEABClCAAhSgAAUoQAEKUIACFHitgOICrNw9ioqKkmZi7dmzB48ePXpmR8WaVyK8at68OcOr134F+AcUoAAFKEABClCAAhSgAAUoQAEKUMC4BRQbYAnW6Oho6dZAEWLl3k6YG141a9YMvr6+nHll3N8/to4CFKAABShAAQpQgAIUoAAFKEABCrxWQNEBlti7K1eu4Pvvv8fu3buRnJzMmVevLTn/gAIUoAAFKEABClCAAhSgAAUoQAEKKEtA8QGW4L569SoCAgKkNbEaNWrE2waV9R1kaylAAQpQgAIUoAAFKEABClCAAhSgwCsFTCLAEnt448YN7Nu3D23atOFtg/zSU4ACFKAABShAAQpQgAIUoAAFKEABExIwmQDLhGrCXaEABShAAQpQgAIUoAAFKEABClCAAhTII6BxgJWRkYGsrCzpn5ycHOk/uQGWlpYQC8qL/xT/FCpUiCwUoAAFKEABClCAAhSgAAUoQAEKUIACMgRkBVgiqMrMzIQIr06ePIkLFy5I61CJRdRjYmJkNMP0XlKlShUULVoUVatWRb169dC0aVMpxCpYsKAUbBnzZuzt05ad+B6bzmYBI/9aaYVaVTJTqZt51EyqGOumle+/vt/EdMZI9jV9f3e08XnmcyzC3zVtfF/0/R6m87vG8VHf3x1tfJ65jI+qY0ge92vjO6PP99D1+Kh2gJWdnY2HDx9i165d2LFjB5KSkvTpodjPKlasGLp164YuXbqgRIkSKFCggFHtixgIRZtEyFaggKX038U/ubPIjKqxMhsjvrvin5ycbGRlif+eJYWwqn+nzMExb80sLUXNns78k8lkdC/Lnd0p6vV83YyusflokOhTop+JmZl5+1puf8vHWyjiT0ytbubQ13LHQtVYqepvWVmZ0gUrJY6R5lAzMRiYUl8T46O40GdpKf5R/abljo3GdtykyUBsSjUTDubQ18QYmHsc+XSMVB1HcnzUpDfo9rWm1Ndyz8nEGCnGRjFGWlioztdMc3xUnbcp/XzNnMZH1Tip+/M1tQIs0aiwsDAsXbr02eDKArDA41lFxj25SLejZN53z5OH5P1hE0GWp6cnmjVrZvCZWLkDoWpmWCGzvc0xdzZhRkb6kxMB/X1R1P8kMRBaWVlJNRP/aa5beno6MjMzIP5T/MAZ85b745VbM3O6cvZ8XZRUt9zbv829r4kTAHGSJvqbsZ+scXx82uOU0tdyQ/3c4xDR78x1y61Z7vIcxuzAvqaqjjjGz1s3Yz4eYc2UOT6KwCr3XE38d3Pd8h6H5AaTxmrBvqbbvqZWgLVkyRJs27btme9K6TKlUatlLRTrUAwFbAugZO2Sxvpd0mu7Hl18iPJ3K+D2wVsIP3YCd+/efebze/TogeHDh+u1TbkflhtcWVsXlgIQcz6ZfiZzzMmRTs5SU1OkGQfGtqkGQ2sUKVKENctTHHHwmJKSgrS0VKO7CqoKrqxQuHBhacYVt6cCxlw3USvR10TdOD4++60VY6MYI40tyOL4+PLRxVj7miq4Uo2P5nxS9qLKiZqlpqZKv2vGFoiwr728r4mTalG39PQ0ozoeYc2UOT6KcVGcq4nwiscizx4/itBY9DUxS9yYNvY1/fS1fAdY8+bNw4EDB560qkyZMnh/yPso0rsI0izSjOm7Y1Rtsc62Rv3kBvhn+z9Yt3rtM0FWu3btMGHCBL22VwyG4mBRHDRyMHwxvThwFLOxxMBoDEGWqJOoWeHCDK5e1VnEQb44sU5LM/yBo6iZtbUIQIqY1LRuXQxWxlQ3ceAh+po4YOT4+OqDEDE2ipNrQwdZHB/z3yuNpa+JmomLZ6KfMbh6df1EzUQ/E79rhg6y2Nfy39dUQVaKNDPLkLcXsmb5r5kxjY+552piViqPRV59LCLCYjE+Gvp8jX1Nv30tXwHW4sWLsX379icte9vlbdT3bYAU++T8t9bM/7Jkhh2aXH8HS75djPDw8Cca3bt3x4gRI3Suk3vAWKRIUZ5Q51Nb9WOmugJqqAMQMRPExsZGWg+EW/4ExG1OYm0+Qz0RVYQgxYrZmO0tufmr0n//Shx8JCYmGOQkLfcWJvHgDbGuBLf8CahunUmTZkAa4uRa9DUbG1uGIPkr15O/MnRfK1q0GGd/q1kz8XuWnJwkBcaG2NjX5KmLeiUlJXJ8lMdnkFcZcnwU/Ux18VNcRDOutZINUox8fqhYc0l1vmaYC9gcH/NZqOf+TJO+9toAS6x55e/v/+Qjm7dvjhpzaiK9AGddqVsuq2xrtHnwPlZ/vRo///zzk5f7+PhIa2LpalMNiGIGD2cVqGssTtDEgCiupOn7BE1MGRZBiCktzKiuv9y/F7USYYi+r8iIq2YicGQIIq9yhqgbZ8vJq1Xuq3KfSixOrvUZGqv6mi3HR5nlM0RfExdkRHilhKcxy2TV6ctEzVJSkvU+q4d9TbOyipPrxMREvR6PsGaa1kz/x5BifBSz9rm0i7zaGeq2a/Y1efXKfZXcY5FXBlhiFsPgwYOfLNje5IMmqPFlDeRYKPOJbZoRa+fVBXIKoElCE2yYsuHJTCyxsPvKlSsh/lPbmxgQxZpJvGVQM1lxS6GYZaCvQEQEjrr4PmimoKxXq9Z9SZauyuhjE1fNxMkZp3trpp1bN31cSVPdMlhECve5aSYgwqvck2vN3un1r2Zfe71Rfv5C9DURPIq+putNnJSJGeBcC1AzadVFtVTpd03XF9Vyw31RN/6uaV43ffU1jo+a1SrvxRl91UzcKqg6Vyukncab6buoloDR31rG7Gva+aLJORZ5ZYC1Zs0arF27Vmqd/Rv2aL2hDayK81YmTctlkWOB9/59DzOGz3iyJlb//v0xYMAATd/6mdfnnpyJDsaDD81pxa0yycnJOj9oFD9gtrbFNW8w30ESSEh4pPPbLsQVGFEz9jPtfOnEj5mYQafL22Vyp+qLkzNu2hHQx0wD9jXt1CrvSZoYI3V5cYa3wmu/ZiIs1nXIL45FxCxH/q5pp37id03XfY3jo3Zqpe/xUVz8ZHilvdrl3jmjy1nh7Gvaq5d4J3XHx1cGWB999NGT2VfvTnsPlbpX1G5rzfjdxOLuNuuKIXBekKQgZtts2rRJayKqxeRUMwt48KEd1tz1XkSIpas1sTgVVTu1yvsu4iq1OGjU1Q+ZCEKKFy/BW5m0XDq504rz0wzOLMiPkry/EUGIWPNFF/2NfU1eTV73KtHXHj16qJOLM1wb5HX68v5/cQwi7pIQs8N1cTzCYxF5dXndq3Td13gs8roKqP//67JmvEtG/Xrk5xW6nqnKY5H8VEH9v1Gnr700wDp+/Dh8fX2lTy9athi67e6qfkv4ilcKiIXdf+q6+cksLLEWlouLixYCJ9VT68R0VIZX2v0Sqp4IJBYt1v4DDEStxCwePpVJuzUT7yYWdk9ISNDBgb4FSpQowdtitF8y6R01WeDxVU0St1SLBdt5O5P2C5f7FFdxcq3dE2v2Ne1X6+k7ir4mQiztbuI3TbXIPo9FtCsr3k1XC7uLNRxF3Tg+ar9mub9ruuhrPBbRTb10VTMxJorzND71WDd1091TJXksopuKqd41v8ciLw2w8j55sGa/Wmj8hbMu22u2733tqxgc/0n1VELxRMLhw4drfKAn1poQs68YhOjma5X7eGRtrxsiphBzLR7d1Ey8q1gzRKxnoM2NNdOm5ovfKzcw1tZ6L2JcFLcNcrq+7mqXu5iqNoN+9jXd1Sv3nbU9Rop+xlnguq2buM1a9DNt3QIqZhaIuomlJ7jpTkDbfY3jo+5qpavxMffhWgyKdVc7MS6Kh3Clp6dr7UPY17RG+dI3ys/4+NIAy8vLC5GRkdKbt1ncBm+8/YbuW2yGn3Dv9D0cGHFA2nMnJyd8/fXXGt2KpEr0VQeN3HQnINbD0uYMA3HQWKKEncbhpe72WPnvLE6qHz58oLXbZERfs7MryZrp+Kuh7n3xr2qOqJmVlVhsn4sS67hs0uwQceuuNoJH9jVdV0v1/qKvPXhwXysz50TNxO1MPDnTbe3kLH77qhZxXRfd1iv33bXd13gsovu6abtm4injYsIBN90KiDBEhPzamBHOYxHd1kqd8fGlAZZ4+uCdO3ek9+q6oyuKVdDSE/Ie3EfMkt/x5957eJRujRL1qsNpTHU41C8C2cvDJybh3r6LOLn+EerOeR9Va2oHOHH/KZxcGYfyUz9EHaen7/myfy/nU+9fuo99/fdJL61WrRq+//57jQIsncy+yslC5u2T+PGrWVh2Ih5pNo5o7DIUPrM/gAM0eCJl5Eq0G7oaA4N/xqA8vnIcn7wmNgzzvv4R55qMwQ+9G6F44YK4c3IR/P1/wrG7b6DZkPEY06kRKpbQ7EdD9cQtkepr5+lNOk/0404jxNcHweFarN+1A5j+9RpYvjMYH/dojep2GlUO2alx+OfEenz7w3ZEpldB224jMXxoY5TV5Dv2XJNEzbQ1K0TnNUMybp3fhw0ha7H9eCws7R3RrGtv9OnjCidNrLXc79Ki1sPHZymOXAMqt3TH5EmD4FxKs+/C868WByDiKpqmYYh+Zl/FISJkFryDwxGfbgNH52YY6jMb7R00MInbDy/X2YDPVsxtryHu3z/j6+U7ceHavTwNaoSOQ3viw1bVYK9BM/O+VPU0yRSpbppuuu9rqppNW3YCcWnFULFhEwyc6IMOVYuhsKXM1idfxs8hq7Avxh7vfTIc3Wpr4xgqDTFhgQgKCUN4dDycfXcjQNPvg47GSN3PvkrHoxu/Y9/qhVgaGoU0qzKo17IDBniMRvMyMmsmXqbNvgYgcv3H8Au1eNKg2kPnw7uVhn34ud0TswtEX8vKytRgxyEde+p+9lUaYkL94eu/FRcSrWFf8x30nTQNg5xs5bc9t2bem/Fl29IoZPnUW/6bAll3zmP/zq2ISKyODz4agLfLa/Ju/32tto5HdD8+puPm0dVYuHgTfruaCMty9dB20Ej0b10flWU/2Csd9y4ewpbla3Cm6lj4jWoCTQ5rgDhErPdHYMhhXIi3gH29TvCcPVmz390XlFtbNdP97KscZKU/QPSuBfAL2oW/EgvDvmZTzfsa4hDm1QO+8MGWuR1QWsMukRC1C0F+gQi9EA+rej0wafoXeL9iIRQsoOEb53m5mIUl6ibWC9R0031f08H4iAcID/gMATfbYPSo7nCpWhKaP+syEwmxf+DI5g04dLcO+k0YDOcSmuo++/rX9bWXBlidOnV68k5uZ9y01KoM3An8BaePWKFc92ooa5+Ce3FFUb55WZQuHIc/vr0HSxcHVPuoDIq86hMfPUTs1n9x9VxROM2riuLIRmZiCpL+zYF13eIorPEJbzJivz2Co+seIBtArZVucK4vGvSyf68Zz/rG65+8wa5du2QHWLqZfZWDzNRbODSrN3wutsHEiT3gEB+O0DgX+Lg3hnXCYXh33oLmW+ej0+uOyaJWwc09Dt7hE6DKq+IQFREHe+daGg+C0rsdnwfPKRsRnZqDnJ4/YM8YZ5RMDMPk4QFIfn8UOpY8izU/RaPhMG8MbFsXDho8fEy1oHu6dEuapqm+7mdfJeCwd3tMutAOXl6uz9bvPzV5xXf52k78b8pVvOvVCy0bVYANHuHm3/FAyVIoVdIWGt1wkPUQN8/uxAKfDbjz3kB8VONvbFhxGAU/WYAlfapr1sHyvFpbs7D0cRUmLeYAVizfhIMPqqBjZxe8cT8OSQXL4+3O1ZF08AD2H0xBC5+haPKqB1ZmpSLpj/UYOf4RJh36TAf9LhILWg7Bxpa+2DDaGiEeXgh1CUTYpLc1+z48V3FtLOiur4XbEw57o/2kSLTzmoSeDnE4HhoHF59BaJyuyViZhtjIaKQ71oejrQYXDaSB8iy2/3wW1++K22lTEPvHMZxNfAt9R7ijVwtHaDAs/qefqrMg58s6uT76Wm7N2k70Qg+H+4gIi0PDsX3gbHUWC4bsQOUpn6GDUzm88lwt9RJ2zt+LO2Ub4f2+rVCtSCYS79zFg9QCKFa2HEpaa1i3nGzE7vZEX784tB8/Gp2rWMHawQn1HDQaeV9YMzFTVZPfNVEzMaNY/Lbpasu89xcOb16E734BOgzsBWfLeFy5bImmw9rC4Z9DCJx8As2WzUS7kq9pwX+OYbTY10SA5f8Ohh5xgWu7WrABUL6VO1w1CWtesDvamoWll9lXUavg6r4QpfrOgkcrICYsAtYDJ6NzeXGc0glbm21DQOfXHEy+tGZOqGwDWGgjv8q8gROblmP5il1IaeqGwR6eaKPlAEuMj9roazqffRWzHRO8liK+di981KYCLC5HI6vRh2havzzitvliT2pjvNu2C1wqvWIsyriJMzvC8Os5S7ScOABv2QLZaQl4eO827luWR7Vymv7ypCEyxBdhpTqjlf1NbJk7F2GOvggN0DxkydvltFUzGxsbiLU4dbZlJuHh2dX4xHM93ug9FcPfy0HMgd/V72v4b79Mi41EdJojnKpoEDo/PgcMG98Xq2yGYlBnK5yYPxe7i3ki5IdeqFa0ILT565GWJpYQ0WwWlj6ORaCN8RGJOPZVP+ys8y0+/6AGShe1RPq9y/gnyQ4OZUuimOyrco+/rdnJuHl+P9YuCMBPkVaoXK8Lxs/7DM21HGC9rq/pOcBKxc1vDuH3axXgNLYmKtYuDHFxM+f+Xfz13TlEH7iHlAwAzrXQcHh1VEy5hcurohDzVzKybEqgvGtd1OleCmlHL+Ls95fxMFUcDZRG2Z514FT8H/y2Pgm157RH7YppeHT0L5yZG4W7CRYo3Kg6Gk1piCqOBXDvu404kNAILtb/4MzmOGSVKoeGP7RA7dpPL7Pm3IzB4c9vo8ZgW/w+9TwqPA6wXvbvNR2AtBVgiTVdxNUz7a59lY2MlOsIndIffgWmYMu8Lk9nXSWcgb/HeGyIVqXaOS4+CA1ohmg/bwSEReCauLpWrxO8Zk9Ga+yCx0BfRCQ+1uq7DOHt98Nl6Ab0DT4BTycgLmIVZnsH43h8OmzqucLTxxOdq1hLB4DDEj3hbbUP/lv/RJq9CzwC5qJfrbw/ljcROt4LZ3sMRMVAXyxvOg/bRjsj4/g0DP82B/3neqJTzVvYMsoXx94agrH9WqNeGc1us1TNwkrW+N5qsYijqJvutjiEju+EWfDBtoCuT+sX+9+aHBvvgFP+MxG4/zSuPLSEbc22GDlpPNrbn8V873n4+eJtJGUBaP0F5n2Ygu0btiHjHQ8M69EOlR4ew7aVK7H5YCTiS9RFq96DMKBrc9hfXoc1v/yGy5nVUen6Mey9kI4q7/bEp2Pc0aL84+sASTfw5y8LMSHkGvrPWY2+b1zHrwvd4XdxBAJX9oWWJlVKxCJ03bNtpgAAIABJREFUFDN6NNl0XzMgOWo3Vizfhyt2bTF0VDe8KX4cMu7hr8ObsTQwBMdiMwG7GmjQbSR8uhXD6aAAhIRH4U6WPRybdsPYCYPg9GgHvvCYh3Miq7AoAPRZquV+F4UQ14HY2m4Zto62wfqBfRHovAxHRYfW8iZm8oi6yZ2FJcZFsTagrqfsx4WOQ2dfwGfLfHTOPeHRdKx0v4rxncUMrN2qk7tnZlTWQ0/PaRjfuQqsI/3R2iMRg8cVxIlVexD5sAjq9Z+BqW6NUamEFf5zXnc/HItmL8Rf5XpgQP8uaFJB8+tyecuujRNrffS13Jp5/+SPjhUKQJrAkXgOwVO9sf73u0jMyEFOg+Hw926HokfXYc32AzhzMxWW5Zug97ARcH3bGufXB2HVtt9w+WEWciq3xcD+zVHxxlEculIarYZ6wLVaEi7/thUhKzbglxhLlKnXDm5DB6Nn3TRcCNuA6avT0LlbIo6sPoLrRaqj9bBZmNq9KlSnONnIyY5EQOuhSPQ7Cp9mQBqstRoS562bpmOk6iEyur1NN/32Hzi4PhgrL9TCZ3NGo5mYCpCdjLjLBxE07SuExmQAhYqh6HuTsPHLNsgJ/xbT54ch4loSCtnXQ5fJszHprdj/HMPs9gF8pQ78ur42Dy5DkzDOpyAO+G/DhXR7uIz6Hn79auapi+rikVfiLK2fSD8/vIrZ4KpZWOIHWv1NNftKtaC0TrdI4XYEfYM2wNM59xguARH+ozB+QzRUR5MumBY6H+9EfQ2fgP35r5n3LsztWBpWD89i43dfYsXRG7hfsDraDR6HkT0aovzdn+AxIwbV3gHizoUjIjoJ5dqNgMeAjmhaxVY6H1Ftmbh5bB22HDqKU38lo0KVxmg3SvsBljaOR/QxPiJ6FdynhsGx3xSM7FAXFWxEtJCCv3csQMDqvTj9byKyUQ2dPEajV9NUnNu5FhsPROFOuh1qte6FgX3eQ+m/dyN4yUacup0JlHoTLj2HYUyzR9i7ZCUiqn2GeWMao8DNs9i2aD5W/nwVmXaOaPHJFEz46E3YxobCq9dm1PTujMuBgTgeb4V6rtMxe1Krl9wFkoAwr3bwsZqL/bNb4VXX+OR81zUdH8X6cuJYRKe3V2ck4P7pIHSbeh59/JdjbCMZfa2l7Qv65TTk+KrOJ0IDuqB02jWEBsyQzs0SrezhMnQ2vN0bo3TcTozvvAE1fbrks2bA7wEuGLe9H77dORLONtby78p6QVHFg5xUs7BEyCBv00tfU2N8bJuwRbr7QczGFndGtRwyC9P7lMeVxZ9jysYLuJ+ahRw0wqiFnii9dyaW3X4f4z7rjeaVMnB2yzIEr/8FF+7moEqb/hjs3h3vOcRiz/diZqwlcizv4fzR35FSsSVcBw9G77bVUeLx5KDsh1E4eWg/dp0sgFoO/2LX7w46CbBeNz7qOcAC0k6cwdG513DvdlFUGVIPtbo7wM6+AB7tCMfZVSmw6fEmavYqCxvrAsi+cR+JDzNgUcoKKYcu4+LBZBTr0QD1HONxJegCbheqjbfmVINdegru//KHKsCa1RKVHkXj2MTLsOjRCPWbFsDdtSdx8XYNtP6xASwWbMKBdRYoN+Y9vFk/DddmnMCVKs3QbUEVFH1+5tYfv2P94Et5ZmA9/tK/7N/L6xPQVoCVe/Ch7aueOZkpiN3vBbdZp5Bm8xY8fCfBtVkVFEcaYraMh9tcwCtkLto7WMHW1hpxx3ciyqE5nGyjEDx0PDa4BODwJGdE+LWE51ZX+IeNhpOVLWyjxYHM4wCr1BYMcfVDgqsPJre3R2TIZARd64Hg9ROAoHcwdIM1XDzmwt3pHsJ8fbHlpVdWIvFD61HY2Ok77BjjjDtre+KL9W9j7NLRaFn1PrZ+6o215fpi+sj2eFtcqtNg09YTCcU6IdoNHf+7U3Fh4+DqE440G+dn6nf8+ZpYA/EndiO6TGPUKn4Nmyb5YGPlMQgc3RIpOz0wZ2NFdPf5FG3eqoEyt3bgf3NXqwKs1nY4EbwYYXcroGXHlqh09yB2/3YH5doOQo+aV3Bg1UIczGiB9t07omr8cezdfxmWbcZi1pBGqoOLlNuIPhyCGUvOosWUIAysegU/Tfsca672xfd7RqKuBnV6/qXiB0yszaPJpo+aIfky9q9ajuA1R5FarzW6un+Knm87wvrOcexaswahN+phmNcneLuMFQplJuBO1DnceaM2Sj88gZVzgnGqxSysG1wBJ+b1xoywHvDbNUIn/S4tahU8hgYhGlbIqTkUy4IG4ZlsWRPoPK8V08CTkhJln6CJ4EpM/9b2+Pif3Yvbj/E9fBCeYQNnj9mY5Nocjrapmo2VieJgMDfASsOWIa6Ym+gKn0ntYR8ZgklB1+AavAHjEYT3PTYhu+Fg+PRriMxTgfh+hy0GfOODbg3Kwfa5+/RjD36Fr1fFo85Hg/DRh04oLfd2uVfUWMxUTUxMkP0t0Etfe1yzExk2aDh8Oib0eBfVS2Yhdu90jJ7/AF0mfY7ODSuibAkrJF48jpiCDihjl4jwxd9jXWJjuA/qgXfS9mPB0nBkvtkN/Xq3Qu0iV3Hox1XYfaUMWg0dhIa3dyFkxV7cqNEZfVrY4NqRvdh3vSLcxg1A9ehgjAqMhGPLARjzfgnEhAVjdUQ9TA2ZiVbins6cLGTfC8WErrvhONAWoauPINGqJrr4av92NFEoTcdI8TRdnT8kIf0O/jy0Ed/MWot/y9RBq089MbSNE0pn/4OITV/D+yc7jPt+KlqXs4JNsULIiT+B3VEOcHGyRVTwEHhucIH/EU847HruGCZ9f776micCpeMXKxcP+Lk7IT7MF75bHeG7az7aP7mvRnXxyFf1nB4UeuHFN9ld45kXqp5ImCz7NhlxMm1jo4cnD6ZFYoH7EKy5Zo2ancdjkkdPOJUC0mK2YHw/P1hMXA2/9g6wsrWFddxxhKpTMynAysC+8QPgf7cVho1sh8q39iBg1SXU+2w2RlY6jRl+6xBZsBmG9HwXFe/twbpd8ajrNhz9uzZBhcfZXeaNI1i34RTuFimNMpmXEH27DFrrYAaWNvqaXsbH9Gis/98UrD55G0Wc++CTwW5oWbcMCj8Ix/KvFuJcqdbo3bsTXKrbwzr9BqL/TUR6oVIofGMfNv14Eo9qdUf/bgUR8eNP+DXBGZ+O6w/nMkDC1aPYKAVYYzD7o+I4vWAiFka9A/fxHVD+nzAsDg6H48QQzGzwGyb2nIsTjj2e/OZ5Bv0O9+Aj8HjmWtlNHA7civDoXTic7obZvtpfzkAbNRPHISLE0umTWXMykHLvFBZ6eGLTzWKo2XEsvEa5qtnXJsP55vP9Mh0HHl8QDw1oj3/82sMj9C2M8nNH/fgwzPXdinIi/Hc5Jo2j4Y5Pj1NeXLPHw1jaccz9YAJOdFmApWMboaS15X8vuGkwVKqeSKhaikLuppe+ps74mBaFwwfSUaulI9LCvNH/mziMW7kcna33YeaIeUjq/xW8OtZBudLZOPndaATcEAFWd5Q5OQff/fQIlT7sjlaO9/HrxlBcr9ILA11r4O72EKw+koxanT9EhxqJOL5vHy4XexefeIxFy+dmoKbf+RO/blyMRb9X11mA9apjkRcGWOkWaejR0fVJjbV3C6HqLTP/uYWrIedx8Zf7SK1ZB00+q4WS187j3IoUFO9TD7WlWwjTkfDbNVxeFY2YyEdIE0sNlSuLyv0bwOmtRPy7KBK3CtVBk++qoXhiIu7uUwVYtaY0Q+k/T+HY+sJovKwZKtlnIO1IBLZ7X0edxT1Rfv9GHFhXDS2PNUF5a+D2txtwcF1NtDvzFko/310UFWBZSAsT62rx9pzsLCREH8Cy+XOxISIRNl3mYot3K2Q8nm0grpapbiG8ieP+/ggIPYJrj2dbqWZmdcEtMZV+Q18E595CKCXNqgDLPXYcOvukw2fLQmnWQtrxr9HKc7f0A9UyTLzOFf5HJqOZFRDh3xQeG9yevs8zo5H+AizxseLkTJxUy73dQi9TUh/7JETtR3CA3zP1++f5muAmTvzwAwJ3H8GVB5nIygFyGo3BwhmuKHpgFGaudUSfOaPQXtxCeG0rJn2tCrD61biFneuOw7JxH7j3bYVK9w5iybLVOGv1Lro2ssKV0D3413EwPL7ogJLRe7Bl6TKcKeSOyX7d4Ci1LwMP/zmD7bO/QND5LBQqZIOKlUrhXlIHfL/9U60GWJovxGmBkiX1tHh7ejxiTu3FujWbsTfSEvU7DcSwj8rh6tY12HqzPsbMFLcQpuHRjfP4eckyhBz9HbHJAAqXROnWE7HcyxkxC7rii919EJR7C6FW+10aIgOHwGMD4OwMREQAbkHL4OGk3duaxDdEtZh7AsSVNDmbPmaFPGlXQjTCgufBb0MEEmw6Y+6WaXA6qpqZJWuslK5mPg6wXM5gfGcfpPtsRZBqsIRfq/HYNXAZDrcMQ5vRm9B+xk54trBH0UvB6DVlPRqMDYZHy6p4ZtJpRjS2+HyD3YVbYIB7d7Supu3r1CqN100Df3Ut9djXEqJxYJk/vtv0O+4XbgeflZPR+NJcjPruAXrMmQLX+uIWwru4sPFHrNiyB2euP0BKJpBTsxc+H9cfba2OImhJODKde2JQv1aolnMJ+1csUwVYH3dBmQubsfFYCpxHfoHBDbIRfXAzFgWdRFZPdwwuugdT1sWir/cSDK6VgBuHAzFw/mn0nbcDI+oIxExkRy5C6+GrYe86Fws9quC4Tx/MveaBVVsHobacDvGK12g2RoqHW+j29sEnTc9MQvyVcGxftRIhh+/A7s1emOTbDTYHvsKEDXbwClHdQpiTnYnY8PkImL8bR3IPTHJn+YQ/1y/z2deOtlLNIO/pfwRezayBiHlw8Xg6ozy3jXFRp3Et0UIkNAgNmIvQdN3VTMwIlzu7uGDBQrC1tdXtSfWTwqnWK5oXFIbLqIlxwWvQr1TekF51C2Hs8XnwDwjNf81EgPXOOUx388WjEYswu2stlLQ8j2D3GdjqNBLftr2J+UFbYdt+KkZ1dUG1+7vwv29DkPjWEAzr3RFO4nbTzFgcXbsWpx854J2ObyH159U49I/uAixN+5rejkXwEJfCVmN58E6cjC2GDuOmY2DzdByYF4SzpTrB7eNu0i2Ej2IOYe+mtfjpwF/456GYT1ce73QfCPfubyBq6yYcTGqCUVPELYTpuPPnL48DrKGY1D4FG71W4s+PZmGde22kxJ/DZs+JWO4wGWs/S8LXveYibuI6rO5ZBYjdhVE9fWHt/XiW5JPvlSrAikyMQmhoJMoPDUCge32tz1TVpGbimF8ExToP+FW/vshKv4UzG3/A90t+kdXXOuH5fvn0jo7QgCpY33II1rgGIdyzMYAYbBnYF36lfLHbJ12ayRrnteE1NVOdN4aOd8Ps2O4IDB6HhrYF88yG1N6Pm2a3EerxWOTxem6vGx/TorbA128pjlyIfzxzFegddBhjKx2C78C5SBwUBO/uNVG6aAKOfjMK/lKA5Yw7PyzAeus2+GxYN7SqnoHTi/yw+FwptOjREIUi9uLgwxroNNgdPSrexf7VK7Djoi1aD/sMvZ2eXcdTHwHWq/raCwOsq4WvYnSb0ToLsHLfOPHQGZxc+BAl+jqhgsXfiFqb+iTAKhh1BZFLL+NekUqoN7wabKIv48/Nd5HdTBsB1tPA6t63G3DABAIs/SxOrKpc1PoBcA8oJV1pdD7x7MGfmOnT2eca+gathqdz+pNb1zQPsJ4GX9KaEnmDsFcEWM/cQvhmHHYOm4GNldzgPaw9GlfUbAaW+Fhx1VM8jVDuSbV4Ipq4F16fW976Oax+1jLugCd6zoxB568XYcw7BXF89iB886Av5kzWNMDaj9vVBmPMxLYo9tcebFu6DCeeCbBUAjnZ2UhLTkZqWjwubf8fpt8ehU1TmkPTO+2f901MTJS9AL8haob7l3Bg/UqsjyyIZt3aoNT5bU8CrEaZUTi+ZR6+PlAU/afPQI+SV7Dt6ylYb6eNAOs1/S5mCwa6+aG+dBInwmU3eBzpoZOTalFD1aLgqcjJEasT5n8TswvElH29Pxo+aj0GuvujlO9u+KTPeibAUmuszOdJdW6A1enbfRjjbIuiV5ai1xcvDrBSfl+G/31/CqU7D8GAzk1Q+ZULT+bf+vm/FAcgYoyU88ALg/S16E0YMeIHWH+2Ap5WKzHhh0dPAqyciHmY8N0JlOnhiRGdayNu00wE/lEeHQdoHmBN3XgL/X1XYEClONw4FoiB3+QJsJ7MwPoS5R8HJrGho+DqW/MlF3Lk1+vJ8ZnMMVLUrFixYnoKQh63NuUu/j78I3wXn0CNUdPR/c7CpwGWXSbSY/fBq9dsXOuzAKs8Gz9z4e0dDQOs3CUQkOfCwMvuoI4O6YiBQc3ht98HrXSQF6elpUkzDNS9jdDCooB08VPM4tfrlnAYvu0nYv/A5Tjq9vxt0mImnA+u9Q3Kf83yGWDZdZuOER82QdX7YhZ5CBIbPg2wki5tQdDS1dj8681nKGq83wuDxnihfQXtC8k9HjHI+Jh8Fms+n4vNJbtgQt+yuLJmzdMAy/5vbP1+MbbFlEO7Twehq/15bFy5GxdsWmklwIL3rse30P837Hy+Kqrx0eq5GZHaq53cmongSszA0untg//5Ec5GzqPDmP3BJLX7mqYB1tNbsV9WM1V45RvbAwuWeMK5uAUKaGMNuxeUWszmESG/mM2v7maQvvaq8RGq9WdXO0/CtoBecIj8Ds2Hb0TPBYc0DrBOJNaTAqwOFf/FL6tXYscFW7xnoABL1Ollfe2FAdYp21OY3mL6k/pqbwbWA1yd+TcSKpdEyVoFkbz/L1w+VgRVJjuhfKEYXFh6D9lOleHYriyKp97C39v+xf0iFVGrtz0yf4nGxbBM2PWvjwYuqbi+/Dz+vvkGao6qgtJFspEedQnH16e8+BbCH0/i4sWqaLXHGQUWiBlYphdgic4lDj60PyhmIj35PNaN346k7h/CxSEBxwN9sTraFcFHJsDx8YLFrj4+aO9QCqXi/NHXJw4Dg+bDzSYMvu7+OP54Btb9kB4YGOSIUf7uqG/rgHpYj1avuoUwohMCwybDWrqFUF6AVTJ+N8aNXoIs1ykYVv4k5i8JQ+k+szC6ozMcbTVfIlDMLhAn1SLZl7Pp/okWolWRCBmyHgk9O6PZc/Wzfq4m5WLnot+sOPT4+iv0KX0Siz2DcLjyIPjPcIXdaR94L0lBg77d0dypDupZhuOrwE3IftkthGGxKNN2ELo3jMGhVa8PsLKzspAu1qdKuY0rB0MQsPICmvitx2cNtL/QpQhBxDoGcjb91Ay4fXYbDp2ORnKpt1Hd6ip+2x+KPws1QZ9+H8Li2DIsO10UXQZ+jKa2D3Dzjw344YAd+k0ehsb3QxEwcyeut56IFZPfxs3Vn2D06qoY5tdf+/3ucYBVymsjfNsXQ0SQKyaFD9VZgKV6cEIysrPVW+dFzC4Q46M+rnpGhgzB+gRXdG7mgMTjgfBdHQ3X4KMYGqda3F3WWOkQgUlP1uV50S2EEegUdACTrFS3EL4+wIrDsQAfBMXURt9P++LDBuW08FSaF/cmEWCJE2s5/U1ffS23Zp1cHJB0cjG+WXcJbfy2YXBmMDy+PoU3P/oU7evWQMXkTfBdFIVKPYajb6MkHF2wHDsfNcLgcf3RwfYUAhftxDXbt/Fhu/fRuOIjnN+zBT9La2C96BbCHdjzT2n0HuuBuleD8coACznIyb6Kjf36IdBhEpZOcsLvcwfA/9FkbFvWS7OnAb9kEJQ7Rurl9hgAj/79HSfCNuGC1ft4u2Iqrhxeh58iC6On99dofuVbjFx0C908PfG+QwlUfuMvzOo1G3EDFiDAzRZhswcg4HgzaTZki8hn+2VNx0j45KOvTbZS3UL46gDrJo6HXoO9sxNKpx9HsNc0bLHx0lnNVCdoKWpfUCtQwFKawa/r9QHFVy0uzBu+Ec7o0t4RxWJCMX9uqOqWo5aR8G7vhUhXH0xr7wD7UnEI6OuDuIFB+a/ZS28hPIGao+ZjbNXfMXPuOrwqwMp8FIubsbdxTyz2mXINp/fvRcQdezR390DntxxRqrCGD2N4QX/TpK/p6q6LvM18cOx7LDxdCjXrV0W5lAhsX7UHic3HwqN7WVxYGIS9SdXQ4oP38F6tHIRv2ILfbpXD+25dUCN+NzasO4aMRu4Y3LsCLm8PwcZL9ujs1gfNqpaEdWokdr3iFsJFS4+j9Phl+O7tU/Dq9Q1eGWAlROJwuDVquZSDTeI1bPUbgqCIvtJ5ivZX5IR0IU3Ob5qol7iYpuulDLJTH+L6QX/88GcjfNC6PIrG7MH33+xWu691sjr8TL8sVbMKIn1y18B68S2Exby2YlkrMVM877qdLwqwEhDhNxQeW4uhr+8wtCwl1um0Rtk6deFQxFLrQZYmT4/X17FIfsfHUjULY2fnT7HaxRfbfJwQFeSBKdti0TPwMMZWP4N5fachwmUIRravgap1KuNqsCcCY19+C+HlCt0wuFctPNj1Iw4nOhlVgPWyvvbCAOug3UF80/wbHQRYKbg5PwIXdsfifnw2ClYqi2rDnFCzpT2KpsfhSuAfuLjnLtIcq6Lu0Eqwu/cvolZewz3L0nBoYgPLwtnIrlAdjXsWRsK+KJwLiEacdUk4dKqOqhVjcXp9cv4WcTfBAEt3g6JYxP0qdvv4YPHJK4hPVy3MPvrxAutIi0SIxzgEXUiEjaMnAkKcECH97wyUdPHAGOf9mBXRU7XYX+x+eA/xxQHxiNt2vljtdgad87mIu+wAq2g2ru7yxbSgI7gSn40KHSdh+rD38Wb5Ylp5woVqHaxU6aBRziamEuv+oPEmQr0mIjD88n/r91xNVnmXwn7PiVhyPglFGn2CT946hRXRrTDHszMaFPwDwdMDsO1cLLIafIIprtnYuSUUFvlZxH3Z6wKsDDz45zS2zB6PJZHWKFq+KXqPmwiPFmXlsL72NWI2iEj15Wz6qRmQELUP29etwvrDMYjPtkP1pl3Qd0AffFivIK6f3IlV/sEIu+uABq0/hnvvbPz65XxsvW2HKk06oWP1c1h/owdCprVA0at7MXPMNzj4wBL2bWdqud+lIWr9eHgEREBo5tg4Y3xQwHMPWJCj/OLXiMcgiwBL3RkG4mk/IsDS9VpzotWxoRPhFRiO6Ph01WLRox8vsK7JWOmZkM+FpcUi7q8PsDKi12HK1z8h673RGNGjNeqU1DzMf1WV5fY3ffW1Z2pWsi4+GDYZo7vUhB0uY9u0aVhy/B+k2ffHF3NckLptKdYeuIQHlTqhu/N9RNwXTwntgm6NLHDuxyVYtvFnXMp2QfePm6PMwxM4k69F3Be+JsASujlIi9kKXw9/HIhP13lfk18zG4gLarreUm9fwPHNAViw9U/cTLFC6ZrvwfXTURjwXimk3TiO1VNnYfWVHJSuPQZfLemA7B/HY8LCSNVDYEY744BvBHqJpQ9snjuGCbJBcL4XcX9dgBWJkE4jERSvuu1ZPJzGWzzUxkE3OqrHxYt1sNS7zVpc+BQnaPoI+BMiAjHJb7O0MHuOWHjYfRImiUWfIZ4i54HxQZFIsHGEZ8BqOEWo/ne+a5avRdzXvjLAeqYyKVHSDARd3kIoPk9+X9PH8SOQ9Oc6+C/chIPnY5FY4A00+HAQhg1oi0YViuL2kSUIXLYDv8ZYokW/0fiwygP8tn0t9l8sgrdaNEbZLEvk2NRAt9GtYX1mC1YuWI1D9yujSadP0L9TOk7kaxH3na8PsOIOw3ugtzQ2ik2X682paiZvbUfxcAsxE1znAVZ6Im6fXIIZ83fi3PUUwMYRLQZ6qd/XSj3fLxfCNji/i7i/LsCKhL/LEGx4ptM1hdfGuehSsQistHxYIi58qtbBUn/Cgb6ORfI/Pm5Eq1hvDPENQ5yVeJBPF2DuXFj5H4JHQwtc3TwJ3ktO40b2GxgwdRYqH/8SK+Lys4j7EqMLsF42Pr4wwNptvxsLXBboIMDSzY+20t9VG4u462tQVK51OtJRCAVhoZXgKtdBk9kF4j30siiggoqWkyMWEAastD/p6hkFcaD/6NFDWTKs2YvZxDqF1jo+bxXBlQges7LUmwIuTqjFDANdHzTK+kKZwYvkLgrOvvaSL4ceOpvcMVIvC7grrs+k6fSpkbkc4oKaCPjVvV3X0rKgtJSB9mfwK65QBmmw3L7G8fFF5dJPX5NbM3F7tTge0ekC7gb5Fhv/h8p98Jaolfhd08cFUONX1H8LX9bXXhhgbSmzGcFNljHA0lOdtBFg6Wvavp5IFPMxIsASJ2dyn7JlZ1eSJ9UGqLb4IXvw4L6sT2bNZLFp5UWibqKvqbuGgbjiKcZIHjRqpQxqv4kIHh8+fKD269jX1CbT2gvkjpElStgxCNFaFdR7I3E8Im5rErfsqrOJEzMxw4ABvzpq2vtbuX2N46P2aqDuO8mtWe4C7jwWUVdc87+XO+FA1Er8rnF81LwGct7hZX3tPwFWNrLx4xs/Yt3b6xhgyZGW8Zq8AdaOXTtQsMBzzzrPx3uKVN/a+vEzgPPx9/wT7QmI25rE09HkbPb2qqftcNO/QHx8nKwPLVnSnkGILDnNX6R6EuEjtQMscYu1CLC4GUZA1O3+/Xi1P5x9TW0yrb1Abs14Uq21Eqj9RqoAK1ntNTlFgCVmGPCkWm1yrbxAbl/j+KgVfllvIrdmxYuLmTyFZH0mX6S5gAj3xZPj1dn0+bR4ddplLn/7sr72whlYIWVDkDdU0d4i7ubCrd5+amMGVrFiNvp/wpZ6u2myfy339hgBwgDLcF8LuQEWa2a4molPFrd+qjsDiwGWYWsm92Cffc2wdZMzRvKk2rA1EzOw1F3jRQRY4nY0boYTkNPXOD4arl7ik+XUjAGWYWsmN8ASv2vcDCfwor7GAMtw9XjyyQywjKAIGjSBAZYGeAZLIROPAAAgAElEQVR8qZyDD4aOBizY449mgGX4GqjbAgZY6ooZx9/LGSMZYBm2dgywDOsv99Pl9DUGWHK1tfM6OTVjgKUde7nvwgBLrpxhX8cAy7D+L/10BlhGWph8NosBVj6hjOzP5Bx8MMAyfBEZYBm+Buq2gAGWumLG8fdyxkgGWIatHQMsw/rL/XQ5fY0Bllxt7bxOTs0YYGnHXu67MMCSK2fY1zHAMqw/Aywj9de0WQywNBU0zOvlHHwwwDJMrfJ+KgMsw9dA3RYwwFJXzDj+Xs4YyQDLsLVjgGVYf7mfLqevMcCSq62d18mpGQMs7djLfRcGWHLlDPs6BliG9WeAZaT+mjaLAZamgoZ5vZyDDwZYhqkVAyzDu2vSAgZYmugZ7rVyxkgGWIarl/hkBliG9Zf76XL6GgMsudraeZ2cmjHA0o693HdhgCVXzrCvY4BlWH8GWEbqr2mzGGBpKmiY18s5+GCAZZhaMcAyvLsmLWCApYme4V4rZ4xkgGW4ejHAMqy9Jp8up68xwNJEXPPXyqkZAyzN3TV5BwZYmugZ7rUMsAxn/8pP5hpYRlqYfDaLAVY+oYzsz+QcfDDAMnwReQuh4WugbgsYYKkrZhx/L2eMZIBl2NpxBpZh/eV+upy+xgBLrrZ2XienZgywtGMv910YYMmVM+zrGGAZ1v+ln84Ay0gLk89mMcDKJ5SR/Zmcgw8GWIYvIgMsw9dA3RYwwFJXzDj+Xs4YyQDLsLVjgGVYf7mfLqevMcCSq62d18mpGQMs7djLfRcGWHLlDPs6BliG9TebAOvu3bsYNWokduzYgTJlyuCdd97B4MGfoHXr1rC1tYWFhYWRVkJes0whwMqt2c6dO1GqVCk0adIEH388AO+//z7s7e1haWkpD8eIXyXn4MOYAizxQ3zs2DHMnDkDp06dQsWKFdGiRQu4ufWDi4sLihUrZnJ9TfgrPcAyt/FR1EzpAdbDhw8xY8Z0/Pjjj9K+NGjQAL169cYHH3yASpUqwcrKyohHOvlNkzNGGlOAlZ2djevX/8W4ceMQGhpqFscjphBgmeMYKaevGVOAlZCQgBUrViAoKBC3b99GrVq10KlTJ3Tr1h1169aFtbW1yR2PyKmZsQVY5tbXTCHAio+Px/Dhw6RzbHG+1qxZM+kcWxz/lyhRAgUKFJD/o2+kr2SAZaSFMcUZWJcuXcKECZ4ICwuT1AsWLIi2bdtizpw5qF+/gZFWQl6zTCHAEnsuavbFF5/jwIEDyMrKkmr27rvvwtvbWwpErK0LywMy0lfJOfgwpgBLtCUpKQkHDx7EV1/NkUIsEQ6LAyRx4DhlyhTUqVPXSPXlN0vpAVZuXzOX8dEUAiyxDzExMfDz+xqbN2/GgwcPpFDfyclJCke6dOkCO7uS8r/URvpKOWOkMQVYglWEWBcuXMCkSV7Sb5upH4+YQoBljmOknL5mTAGWqJkIrlauXIlly4Kl8VKcSFetWhWDBg2Cu7s7ypevYKQjnbxmyamZsQVY5tbXTCHAelnNRID11VdfoWHDRiY36YABlrwxSuevMsUAS6Bdu3YNw4YNxaFDhyRD8WMmTqi3bNmCatWq6dxVXx9gKgFWbs1Gj/bAL7/8gszMTKlm1atXR1DQQinlN6WZBnIOPowtwBLtSU1Nxa+//gofH2+cOXNG+toXLlwYTZu+g2XLlsHR0VFfXUEvn2MKAZY5jY+mEmCJ/bh165YUYq1fvx5xcXFSYCxmPnp7+6B3797SDGNT2uSMkcYWYOV+/8QJ9YgRw03+eMRUAixzGyPl9DVjC7BEze7fv4/ly5dj0aKF0jmAGCPFLBF390H4/PPPpVmQprLJqZkxBljm1NdMJcDKrdnYsWOwd+/eJ+fYtWrVlmaKv/nmmyYVYplVgJWenI6/D13Bpd2X0GH2ByhiV8Rox0xTDbAE+J9//okBAwYgMvKPJ/7du3fHunXrpRk+prCZUoAl6nHx4kUMHToUERFnpBBLbG3atEFgYCCqVatuMtPA5Rx8GGOAJdqUnJyMn3/+GZMmTcLly9FSzYoUKSKdVC9evMRk+prYL1MJsMxlfDSlAEvsy40bNzB16lTs2rUT4rYZsTk7O8PXd7Y0y9iUpu/LGSONMcDK/Q7+9ddfJn88YkoBljmNkXL6mjEGWKJmYibW4sWLsXTpEum/i03MxBKzVUeMGGkyJ9ZyamasAZa59DVTCrBEzS5fvow+ffo8c44t7sBYvnyFtPyLqWxmE2CJ8OrS7ovYM2Uv7v9zHzXb1URX/64oU8s4k3+lB1hXrlyRZum8bBOzQlq3bgUxcKgCAHts375DWhvLFDYlBlivq9nZs2fRrVtX6eBDrPki7qv+4YcF0q0yNjY2plA2yDn4MGSAJdbhSU9Pf+kVTHE74a5duzBkyKfS34kTaTH76scf1+Ltt982iZopMcB6XV8z9fFRiQHW1atXUbly5ZeeaEVFRUHMVD169Kh0i5pYb27cuPEYPnw4ypcvbzJ9Tc4YacgASxxj3LlzR1qXzFyPR5QYYHGMhKzjEUMGWLGxsdJyBWLse9F28+ZN+Pn5SSGWuBAq1sDq3r0HZs6c+crzBSUNnnLGR0MHWObe15QYYKlbs5IlSyI4eBk6dOgg9TtT2MwiwEpPTMOFHX9i14RdSLitujpa0Logan1QC70W94RtueJGV0ulB1gdO36IyZOnoFWrVi+1LV26FB49eiT9/+L2pvnz5+OTTz41ulrIaZASA6z81KxOndrSOgbiBE0MgmJ2z8iRI1G6tHEGwerWTs7BhyEDLBFOiRPmTz75BHXq1Hnh7kZGRqJlyxZITEx8MnX/m2++kRbkN5VNaTOw8tPXTHl8VGKAJWYufvzxx+jYsaP0e/Wizc3NDTt2bJdOzgoVKoSPPvoIn3/+BerXr28qXU3WSbUhA6y//76C6dOnY+zYz9C0aVOzPB5RYoDFMVJ5Ada0aT6oVKkyevTo8dKLat99960UWIllDsSagWKNHnG7dcuWLU1ijJRzDGnoAMvc+5oSAyxRs/HjPaWHxrxse/4YUswSHzNmrElPOLC4detWzvMgIWVDkDdUcTvjpojBJvVRKi5su4DdXrufhFe5DS9gWQBvdq0L962DjG5flB5gWVkVQt26byIkZJW0eFzeTcwEEWHV//439Zl/7+MzDT4+PkZXCzkNUmKA9bqaLVq0SDoRSEpKfEIiZhdMnfo/k5lhIOfgw5ABlqiJOGjs3fsjaUFiR8cqT2ojZsldv34d/v7+WLDghyf/XlwdFTWbOHGinK+2Ub5GaQHW6/qaqY+PSgyw3nijjDRTOCgoCO+99x6srJ5exRSB1U8//YTZs2cjKurSkz4ibh8Uv2vNmzc3yn4jp1FyxkhDBljnzp3De++9CxeXZpg/PwBvvlnP7I5HlBhgcYxUXoDVrVs3iAtmU6ZMlo5JxKyP3E08BEisyylmYB04oHqQk9gaNXpLuv1ahF6msMkZHw0dYJl7X1NigCVqVrNmTaxdu/Y/59ji/DMgIOA/59jDhg3Dl1/OgZ2dnSl0tRdeTDOZACv1oQivIhE28wDir8Y/UzCLAhYoXqEE2nm3wTvDXYyumEoPsCpUKA/xKNbatWvD3z8A7dq1k4xFeCXug581aybE7U+5m1j7ys9vLsaOHWt0tZDTICUGWK+qmVj4e86cL6VbMUQwIjZx9UxcARg/fjzKli0rh8noXiPn4EPshKGm7a9atUp6sqdYFFXMDPnii4lo2LChNEPu33//xcKFC7FkyWJp9lXuJn68Zs/+Urq1yVQ2pQVY5j4+iu+dGEfu33/2dzk/30dD9bW6detA3EYo1m2ZPn0GunbtKt0qI8b6PXv2SOPj+fPnn6wRKMbHLl26YvLkyWjcuHF+dk0RfyNnjDRkgCWeNti2bRtpbTKxLpk4gM+d7SFOXJYsWWLyxyNKDLA4RiovwBo4cCC2bdsqLdA+cuSox08ZLC89wfq3336TAmTxFHIx+0psYkkDsWyImIHVvn17RYx/r2uknPHR0AGWufc1JQZYr6qZOC+YOnXKf86xxfmaOB4R3zdT2Ez2FsKU+yk4v+kc9nnvR+LdpydvUtEsgKL2RdHJryOc3RujYCHjWzhc6QGWq2sPhIaGStxVqlTB0qXB0u2E3377rfTEprzhlfgbsYaSuD+3Z8+eptCvpJOahATV7ZHqboY6QXtZzb777juIad/iCVu54ZXYp6JFi2LmzFnSQUreK23q7q8x/b2cgw9DBlh79+6Bt7e3dOIsTqbbt+8gzWIU65PNm/cdQkJCngmvRNBVrpwDFixYIJ2Am8qmtADL3MdHJQZYAwZ8jG3btkkXYcRTBkWIJX6vtm/fDn//eRCLgec+4ELsn7jNUIyNn302DrVq1TKVrqa4WwhF6Dh8+DAcPnxYenBF3bp18f33P0i3E4qr1HPn+pn88YgSAyyOkcoLsGbP9pUuUIt1UkuXLo3Ro8dIyxtcunRJOoYUfTB33VsxIIrbrNu2bYdp06aZzJqcco4hDR1gmXtfU2KA9XzNxHrE4nZCcY79zTdzpSd/5t3E+cFXX30lPflTnLuZwqaYACsrIwtXDv6Nu5fuwvFdR1RoVB5iFtWLtqS4JJzfcA77Z4Qh6W7SM38iTuCKli6K9ye1QcvPWxhtDZUeYO3YsQNubn2fHNCL9ZLEP7lrXj0PLxa5/e23Y6hQoYLR1kSdhikxwFK3Zm+88QbWrPlRuj3GyspKHR6j/Vs5Bx+GDLDEemTidjPxeGpxlVNc0RT9TIxz4imEz29iVohYK2v37j1wcHAw2jqo2zClBVjq9jVTGx+VGGCJWVaffvoJ4uPjpSBfjHmir4l+Jvre85sI9WfMmAkxK8FUHnIh9lHOGGnIGVjiYpl4hPjnn0+Q6iTGRlE78U/uEyNN/XhEiQEWx0h5fc1QF0BFHzpx4gS8vCYiPDxcGiNFYCzGSHE8LIL/5zdxUi3W4vT19TXri6CGDrDMva8pMcASNevXz03qW2J73Tl2uXLlsHPnLjg5OZn0Ez+N7hZCaR2rrZE4GvAr7l2OQ53OtdFyfAtUdnH8z4CYdC8J5zacw6G5h/DgnwfP/P9izSv7GqXQdur7aOxu3E/gUnqAJQ4axRVrMV1Y3M70uk0kwuKR40OHDkWRIkVe9+dG//8rMcBSt2ZihoFYEFAs4i5mJJjCo+LlnJwZMsASB4ViFtasWbPwxx9/PDND7kWdRJy8iSuj06ZNl2aHmEJfE/uptABL3b5mauOjEgMscfFF3C69desWiKd7vm4TAYl4wpZ4TLy4dU2czJnCJmeMNGSAJUIrMQPks8/GSmvwmOPxiBIDLI6R/2fvPMOiupoA/CK9gygg0pQiCiqgYMcWK9bYezeWxF6isZtiib23GIkNu1HsvYtdUVRQEUURRZr09j1nYQ3k0wjLKqxwnic/DHfvvTuzM2fOe+bMKB7AEn5RNIhZv/4PQkNDPxmPCJ9Yo0YNSekDUS/wa9gIlcU/5jfAKuy2pogAS+isf/9+7Nu3L0dzmoj1R44cxdChQyVrALEWUPRR4DOwUpNSub3tFmfmn+Hl7ZekpaajrK6CbUNb6o+tR9l6Zd/rIPb1O655XefkbycRWVhZh8jW0i+tR9Nfm1KpU+UCeWww6/sqOsASuy9+fnfo3r0H/v73cmQn4tiT6PK0cOGiHF1fkC9SRIAli85EZoGnp6ekq0zZsjYFWSU5ejdZgo/8BFji2SIjxNvbmzlz5hAS8vyT31MKsYStzZkz95PXK8IFigawZLG1r8k/KiLAEjoLCAiQAHtf38sfzCj4t62IoLFWrVqMH//jf3bkVQQbk76jLD4yPwGWeG9Rc+f8+XOSToSBgQE5EvfXZG+KCLCKfKTiASyhs+Dgp5I6cwL0/7tUyIcMT0CrChUqMGTIUHr37p0j2yzIF8niH/MbYBV2W1NEgCV0dv/+fUTn45yusXV1dWnXrh2//vqbBGIp+ijwACvg8EOOzjhG0IWgbLJWVlXGvok9DSY2wKKaJbFhAl5d5dSc08SFZz86I4FX5vqSY4M1hhS8gu0f+hEpOsCSfqfHjx9LuqOdPXtWsmstHIXYdRHZO8JpR0ZG/t9Rp06dOks6pymygSkiwMqJzoQDFMcuhC6z1sNq0KChpEOhKFasyLtosgQf+Q2wxPNFkfZjx46xePEiSSaWONYk6vGIGhNiES3sTWSQxMfHv3c34jhhx46dEDXOFNnWxBdSNICVE1v7mv2jIgIsqc6Cg4MlBdtFdvGbN28kc5qAwiKFXwB9kRUp7DFrPSwXF1dGjhz5vvC7IgeOsvjI/AZYQt5iTha+UTSQuXjxosRHFpZ4RBEBVpGPVDyAJdWZqIH1xx/rJBtrwl+KuEN67FocGxRDxJFZjxVaWFjy3XffSTYIFLnItCz+Mb8BVmG3NUUEWP/WmcguFnHHv+c0Eff/e73m6dlCknQgwLEiZ4YXeID1+kEYZ+ef5db224jC7FmHmo6aJBPLpaszkcFRnF98nshn2Y8NCtBlXMGY+uPrUbmT80frZhW0gPJrAVhi0hKT1LVrV7l37x4hIS8kBaZFrStRRHX79u3MmvVbttpYYtEtOqqJc/Hly1coaKrJ0fsoMsD6mM5EzSQBqI4cOSIpEP78+fP3qavCCYpuMuKIjYBZAnQp4pAl+CgIAEu8gzgqIxbUt27dlGSKREREUrx4caysrLC0tJQEk8uXL8tW1F3AxqZNmyq0rSkywCqs/lGRAZbQmfDvYj4TLePFAk3MWaLGRKVKlSS2t2TJYq5evfq+PoWAxaKQu2hj3alTJ0qWNFZE9yh5Z1l8ZEEAWNLfnAjmb9y4wf37/rx48bJQxCOKDLDy6iMdHMor7HEZWWwtP2tgZXVqwkeKDWzhI4OCnpCSkkrJkiUlncmFDQrAdeDAgWwdCUWtR5FRIiCWpeX/l4hRBKcpi84KCsDKq60p6npNkQGWVGdiThOnnsQaW6y/LCwsJGvs/fv3I5orSGt3ChuSHt2dOHEiNWvWUthSIgUeYKWlphHqF8rpuae5u+cuSbHZCwGqaqqiaahJWkqapGB71qwQkXllZGtEo6nf4PRtRVQ1VBXB/0ne8WsBWFKBi7oT4j+pfsSOtQjqxS7MhAk/smbNmmy6EQsCJ6eKkm5pbm5uCqM36YsqMsD6lM4E5RddLkS3maydLoRTtLYuw+jRo2nbtq0EnijakCX4KCgAS7pAk9qa+LewM+lZd7HQnj59Gps3b/6qbE2RAdanbO1r9Y+KDLD+S2eiDqAIhr28NrB48WIJzJIOMd+JTQDRBUjUehR1AxVxyOIjCwrAkspbwH4RixSWeESRAVZefeSSJUskHe4UsUanLLZWUACW0Js05pfWnROxiNCDiI9PnDguKXtw/vz5925Q/M3AwIDGjZsgFtei4YyiDVl0VlAAVl5tTVHXa4oMsD6lM7Femzx5EmvXrs2W8SjWa3Z29pKu5aJ7oSImHRR4gCVxgqlpvLr7ilOzT+G3y4/khIyq+9IhXaD9H7yyMcJjpAdu/dxQVlNWKD/4tQGsjwlf6EykF3fs2IHjx49n6+YkAn6RqfXHH+sldUTEvxVlfA0A6790Jhz+iBHD2blzpyR7Tmp7IgAxMjJi1KjRknpmJiYmCrX7KUvwUZAA1n/ZhwgiQ0JC6Nevr+RIb9bOaYpsa18DwCps/vFrAFj/ZWvCPy5atFAC+YXNSRdwwj+KxUr79h0kxd3t7OwUbmEti48saACrsNnb1wCwZNWZmVlpiR3WqVNHcsxXkYYstlaQANZ/yVrEyD4++yUNaEQ2a1bIJcoeiO7WopZW5cqVFcpHyqKzggawZLU1RV2vfQ0A6790JmpA9u7di0OHDmUrIyLiEdFNfuLEn2jfvr1k7aZIxd0VAmBJIVbYvVdcXHGRW9tu/1+dq6zKE7CqVOVS1BleOyPzSlNxMq+k36OwACzp9w0MDGTo0CGcPn06W0cFYWC2trYSINK9e3eFqa/0NQMsqc6kGT2inWvWYp3CAYpMgw4dOtKnTx9JyriiwEdZgg9FAVjiPUVdHlEHZsyY0ZKdz6wduRTV1r5mgPW1+sevHWCJ7yfqwIhdzz//XC85Zpg120dkGTRq1FhyVKZ69eoKVYdCFh+pKADra7W3rxlg5URnNjY2ko7JYlNNZBooyiJNFltTFIAl9Cbixr1790pKUvj7+2c7QSM671at6ibpmtaiRQvJMW1FGLLoTFEAVk5sTRHXa18zwJLqTBznnTRpEgcO+GSrOy18oTi626tXL3r16i0pOaIo2aoKA7CEElKTUyXHCUWtq9s77pD0LvH//JmSshKmjibUHVeXCq0c0dDVUASf93/vWNgAlsgGuXjxAgMHfvd/XYKkRy9E8DFlylSFmMgKA8AS8EPUW5o0aTLnzp39P7JvaGhI/fr1JYGjWKQpglOUJfhQJIAl3lXsxpw9e4Zhw4bz6FFgNt+jiLZWGADW1+YfCwPAEv7xyZMnkoYk27Z5SxqWSIcIGsVCWhxtEnWxWrduozAQSxYfqWgA62uzt8IAsD6lM1GjTmQZiI6gipJpIIutKRLAElA/NDSUTZs2SY5ch4a+zOYjRcacyFLt2bOnpEuhIkAsWXSmaADrU7YmNrAVab1WGACWiEdEnSyR+X3jxvX39TmFwYm1mWjkJI7ujhw5AkdHJ4VdrymFhoam/5uoeJl4ZavL1Pla53wBQ1kh1i3vWyTH/3OcUMAr43LG1PqhNq49XFDTUgOlfHnNPD+0sAEsITBR7H337t2STCxxLC3rkB69EIBrzJgxknPyBXkUBoAl5C++58mTJyXnqO/cuZ2t85ZYpIldNAGxhg79XnIMVHTDK8hDluBD0QCWCBpFB65du3ZJJitFt7XCALC+Nv9YGACWZNMtNZXr169Lar0cPHggWw0KaedCJycnycZNhw4dkHbo+tp8pKIBrK/N3goDwMqJzgQ07tatu6TZjChyXNAzw2WJRxQJYAmdiYW1yA4RdXBXrlyRbSNU/F1AK1EvcMCAgRLYL5pAFeQhi84UDWDlxNbEd1KU9VphAFjS9drBgwcZN24sQUFB2U5giHhExB8NG34j8Y+i9nRB7yivUBlYUqclIJaoieW79jK3vG8T+yYWFXUVzFzNqDG4Bo6tHdHQK9gL5U854MIIsIRMRHeSrVu3SICI6Kj27yF2zkSa46xZsz4lwnz9e2EBWELIoobZ0aNHJIu0mzdvZlukib9ra+vg4VFHcgy0bt26+aqXTz1cluBD0QCWFB6IAuGiM+HUqVMU2tYKC8D6mvxjYQFY0kD/8uXLLFu2lMOHD0vmuKxDZBmI7oUC8nft2vVTLirf/y6Lj1REgPU12VthAVg50ZnIDBc16KZOnSqp/1KQhyy2pmgAS8hflDYQDS/WrRNHrv/8v001ARotLCwlJSkmTJhQkFUmU5dWRQRYObE1RVmvFRaAJXQmNq/37dvH7NmzuH//frakA/F3HR0dGjduLMlUdXFxUThbK9AZWFJppiSlSI4TXlpxSXKcsIRtcWoPr035FuXRNNAq0ELPycsVVoAlZCOOWsyePVsS8IvjTlmHoMQipdjP725OxJhv1xQmgCWELDpdbNy4UaIzUc8sa4Fw8XcRKM6YMZO+ffvmm05y8mBZAkZFBFj/AIQI5s6dq9C2VpgA1tfiHwsTwBLfVUB+0aRkyZLFkgYKYsGWdYgFjNiYmTdvXk7cVL5eI4uPVFSA9bXYW2ECWDnRmbW1NQcOHETUxirIQxZbU0SAJXQgYmaxASqOXP/9997/2wgV2SCiFMWxY8cLssoKFcDKia0pwnqtMAGsjHg5Gi8vLxYuXMDz58//LxNLHAFdsmQpLVu2VDhbUwiAJaSakpgBsQKOBqBlqEXlzpVR11NXmAKN//XLKMwASxxxevbsGWPHjpEUeMzanUQcHZw2bTqDBw8u0IZV2ACW0Nnr169ZtmwZGzb8ycuXLyUFOQVwFB1lWrduzciRo3B2di7QepMlYFRUgCWFCIpua4UNYH0N/rGwASzxfUXB4u3bt7N06ZJsBYszFmY1GDdunGTns6APWXykIgOsr8HeChvAyqoz0WRGuqEm4hEBi0eOHMngwUMQ2VgFechia4oKsIQeRHbIuXPnmDXrN0mTGWnjC5GBJYpL//TTJHr06FGQVVboANbX4B8LG8CSrteEnW3evJm3b99KbEpa9qVr126SWln29vYKZ2sKA7CkECsxOhFR/0qruOJnXkl/LYUZYAkZCGh19+5dpkyZwqFDByUBiIBXY8eOk6QRi4JzBXkUNoAlXZCKc9WrV6+WHAN98eKFBF55enpKzsK7u7tL/l2QhywBoyIDrK/B1gobwPpadCaCqIiIjMApN0NRF2ji+4rOhAJiiaMyIn1f1HcRhdyHDBlC06bNJIXdC/qQxUcqMsD6GuytsAGsrDoTRwWPHDksyegR9ZPE5qeIIS0trYpqYBUwZyN8pChtIOqqLlgwn0uXLkkW1dbWZSQL6o4dO1K8ePEC9tbZX0cW/6ioRwil31zR12uFDWBJ12vitMyiRYvYvXuXpIyIqIHVtm1byXpNJBuI8gYFeShkDayCLFB5vVthB1hCjgJaXb16VdL608/vjmSHukuXrpiYmBT4LLvCCLCkQaOoZbBq1UoOHjwkSfkWxwZdXV0lBd0LevtqWYIPRQdYim5rhRFgfQ06K2wAS+ofQ0JC2LFjh2Tns2TJEpJgsW5dDwwMDAu8fxTfQRYfqegAS9HtrTACLKnOrl27xvTp07h165YEXokY0tLSUiG6fspia4oK+KVrJzEviDIiR48elXQmjImJlnRMbtWqlWTj+muMIRUdYCm6fyyMAEuqM39/f8nJmePHj9GkSRN69OiJaCwj1msFfRQBrAKqoSKAlaEYsWsmDCwiIgJHR0eFmMDEexdWgCW+u6jvIqAngnsAACAASURBVI6liWOEYoFmbm4h6T5Y0AMPWRdnXwPAUmRbK6wAS9F1VhgBljRoFMetnz0LRl1dgzJlykgKpyqCf5TVR34NAEuR7a2wAiypzkS2o4ghxZEYUY+zoHcflC5LCiPAkoJ+Uafn0aNHklha6E0c91QEHymLzr4GgKXI/rGwAizpWvXp06eS7HAzMzNE/SuReaWotqZQRwgLKH/K82sVAaw8izBfb1CYAVa+Cj6PD5cl+PhaAFYeRZevH4+Ojvq/wtifeiEBVbW0tD91WdHfP5MECivA+kzi/GK3lcVHfi0A64sJWc4PKswAS86i/KK3k8XWFD0D64sK+DM8TBadfS0A6zOI84vcsjADrC8i4M/0kKIMrM8k2Lzetghg5VWC+fv5IoCVv/KX9emyBB9FAEtWacvvc0UAS36y/FJ3KgJYX0rS8n2OLD6yCGDJVwe5vVsRwMqtxArG9bLYWhHAyl/dyaKzIoCVvzorAlj5K39Zn14EsGSV3Gf+XBHA+swC/sy3LwJYn1nAn+n2sgQfRQDrMykjF7ctAli5EFYBubQIYBUQReTyNWTxkUUAK5dClvPlRQBLzgL9QreTxdaKANYXUs5HHiOLzooAVv7qrAhg5a/8ZX16EcCSVXKf+XNFAOszC/gz374IYH1mAX+m28sSfBQBrM+kjFzctghg5UJYBeTSIoBVQBSRy9eQxUcWAaxcClnOlxcBLDkL9AvdThZbKwJYX0g5RQArfwUtx6cXASw5CvML3qoIYH1BYefmUUUAKzfSKnjXFgGsgqeTnLyRLAFjEcDKiWQ/7zVFAOvzyvdz3L0IYH0OqX7+e8riI4sA1ufXy389oQhg5a/8ZX26LLZWBLBklbZ8PieLzooysOQje1nvUgSwZJVc/n6uCGDlr/w/+vQigFVAFZPD1yoCWDkUVAG7TJbgowhg5b8SiwBW/usgt29QBLByK7GCcb0sPrIIYOWv7ooAVv7KX9any2JrRQBLVmnL53Oy6KwIYMlH9rLepQhgySq5/P1cEcDKX/kXAawCKv+8vlYRwMqrBPPn87IEH0UAK390lfWpRQAr/3WQ2zcoAli5lVjBuF4WH1kEsPJXd0UAK3/lL+vTZbG1IoAlq7Tl8zlZdFYEsOQje1nvUgSwZJVc/n4uxwBri/Fm/qq68f3bdr7WOX/f/Ct/unwysLRRV9f4yiVVML9eUlIS797FyPRyRcG+TGLL84dkXVCLBxfpLM/il/kGQm8xMdGkpKTk6h7CN2ppaaGkpJSrzxVdLB8JpKWlERkZkeubFdlarkUmtw/I6iMNDAwpVqyY3N6j6EY5l4DQWVxcHImJCTn/EKCiooKurl6Rf8yV1OR3say2VuQf5aeD3N5JVp0JO1NVVc3t44qul5MEhG+MjY3N1d1E3CjmtaL4MVdik9vFH7M1pdDQ0PR/P2VXiV2sdV/7/n8XASy56eGDN5IHwBKLM7FIKzKwz6urf99dGJYAWLGx72R6sL6+AcrKyjJ9tuhDsksgNTWVqKhImW5QpDOZxCaXDwkQImBx7gGWeibAKlpYy0URubxJamoKUVFRufwUFNlarkUmtw/I6iP19fVRVlaR23sU3SjnEkhPT8sEWIk5/1AmwNLR0S0Cj7mSmvwult3WiuJH+Wkhd3eSVWc6OjqoqqoVrdVyJ265XC3WawJgCcifmyHW1Xp6Yl4rWqvlRm7yuvZjtvZBgHWw+EGWVF+SLwArNewtr26EExmSDMWKoWqgg4GTEQZlNVGVw9ojOeApAWeVMOtsgYFWwdiNlwfA0tTUlAAsee18pifH8/bhafZfD0fFogZt6pVFW/KLeI3vBh+ianWika2mbL/P+ACObjvPC8mnVdAoYYFzjdqUKy4H5xAfyImdF0h1a01dWz3UlD+vjmV1iFLByTudOD7wKNvOh5BuVpv2jWzRkZfOEp5y6bAvjyNjSUYZNX1jbCu6Ut6iBDpqeZRxWhyRz/25ciUEXfcmVLdQl+13lYtPpaQkEx0dnYtP/HOpvHWWFHqbC9fvE5RcGpcqTlQw10eVWJ7fuMmTCDVMKztjZyTDjl16CklRDzm115eXn8XWMuyYvPiCXGpAgCsBi8WElpuhpqYmAVjFisnBx2Q++LPZWqaP9c98jqqeJbbu7riXzrDmPI3EZ1w9doUIU1dcyltQQkt+8viv90pOTiImJvdZqvK2Nd7PPaWp1a4Rtpkife37Jz5RtenwjS3aMrmzGJ5c8OVOwDNEnpmyhgEly5bHsVwZzPXU8qQySCct5RVXNx3Gv3xzermXzOP9cvZxWX2k3DMMUiIIvnub6zfD0LB2xKVaBUw0IDEimED/GwSrV6VBldLINmtkxDOfxdakdlze84vpTPjF+Pg4yaZaboZYmImFtVzB4ydsrWMjW7Ry85Lvr/2cOntHsO81bodrYFG5IpXNZHvD3H4tWW1N/v4xI35+nmqCm2d97IzUUFGCt3f2cOp1GdyrlMNMXwNZlmLxYffxv3mJOy8hvZgqWvqlsXWoSHl7I2RcSWQRc+Zv4gvamqw609bWRk1NXY4AK4mYV0+4fsiXl7qmOHo0oGIJZdJTEogKOIfPTUOadKlCidz+KDOvF3PjgUwHma6qj6WtO+7upTPXFjLeNNu9K9C8lztfYlYTG6ACYMXHx+fqxQXAEvOayFSV35D6MR3KN2mLu2lGLJYRV+rnSSZvrm3mqH8SSamQrqpLKcvKuLhaYaSlSl4jvoQ3j3h48xYvilWkRgM79OUnkI/e6WO29kGAdcrgFHNqznl/sy+ZgZV05yE3Vwby8pUqemZqEJuOikNpyra3wqyMGjLFltJvItKr95/i72lKuB+uS9kSebqb3NQmD4CloaGBhoam3ABWatwbAvZOpvdSP9Rtm/HTr2NpXFoY710WVO/H08kHWOhp9HEZJD3j3K4AzFo3oOy/Z6fwfYzw/JkH5WpRxSyN0JBwSroNZsSQmpjk1brC9zPu21kkDdvMzy3N0VGTZarNuWqFQ0xISCAhIXcOUfoEXV1dyW6MvEa4z3A8Z14i3aop036fRDMLAT78cqyz87sDMfX0oIy2MsWymkfkKeYOmc+FVFOszLVJio5C06oR7To3wdWmOBp5MaXkNzy+6M3ihZcoPXIpY+t8fpeYl2Of8tZZzPU/+W3Fdk68MKV5z/70bF4Na90wLqxey5EAHVz7DaSVw0cC6bQEIl8G8/DeO8w9XDHLuopLi+fdk71M7LGER/bVcCklb1vLsGM+5Qvk9eMGRL05UeMltwBL2JgAWPLcQcurrX3UP2baq7d5Fb5x0CA8KIz0Cq0YPbwjdhm7CLKPqLMsHrWYxy6DGNixDhWM5ed7/uulZKk7Ie4nb1sjc+65hBVNpszjp+YWCAn4LahGv6eT2Tffk5LFlD4SZyTz6tYJHqs74mBlhqFm1rnlOUd/WciGs08pZmNGCeKJU7ekevM2tPBwokSexJxKSsItFtcfyraOa7g00kl2/efik7L6SJHJI4Cx3EZ8IKe3bGDl6oskuzSl86C+tKlcnLhHp/HxXs1Jgx+YO6T6RwJpAf/ieH75AI9KtaD+/wUjGXPjZ7E1qR13WvfFdCYAvwBYwk/mZgi/KBbWKioybJR87EGfsDWfhS3+Y1GdxLNzuwg0a/2FdfaCUwuW8+d9Azz69qRvNePciFHma2W1Nfn7x4z4+UKiKXVGz2R0S3uMNJQJ9OrMBL9GjPq+HW6WBnz4V5JCxKPrBMVpYWThgKVB9sX+21s72bZ2GfueW2Njp0dadCLqZerQqvu31C2d1/InmXb8BW1NVp1lnJYRAEtea5N3hNw8yspBczlX3I46vSYyulM5dOMjebJvBgPW2LD06FAq/MevM+LuPg4k1KBblf/HXGJu7O9tTpVvHNAIDyIs3ZFWo4fTIc/BSMa829+7E2svjeJLzGoibhTrtdwesf4ssYh0fkAP596/8+ugyhQHMuJKq0/K5L905r/8G4Zt08W6qh268WG8TbWido8+fFvFkuIaefvdRfofZM+adVxW7cmPs1thJbPXy/kHP2ZrHwRY13WuM8ljUj4CrGfEmZtj21SfxFMBPLqthFH7ilRurkv66xgi7r4lOiwFJQNt9B1LYmSqRFJoJK9vRRH/Lg0lbU10HY0xLqMGqSkkPAjl5d14UlU10QoP4OxyJdy3VUTpSjiatW0wNVeG+GhC9r4ipaoVVrZyDL5yoCN5ACwRMIosLHntoEkA1r7p9N8USXntV1D7Z2YNcsNIOTvASgjz58qlu7xMSEPVqCwubi5Ya4Rz4/AfLJx1gzL921HBxo2WHmX+2WXJDGxiv1vFlHpKXP9zCr8dq8TcwzOpo5NKdNANrtx4THiyMuqmFalbyx4DYnh06SJ3QyNJSFVFt7QjNarbY6AMqZEPuXDmNi+TVTE1CWfXxHUwfCW9NAIIMnCmXhVLDDRSeXn9JDffmuFYxY7ShprIg6VnOMR4xAJNliEmMwEe5TUkzm9VJJXUn5BYew7zv6+OkXJ2gPVfOls05yZWPVvhYOdO81pl0FNVzljMZQKsQOe+9GxsTeLlDaw7kE6dod/RvkE5tCOCeOj/gKdh70jRKY1dhfLYWeiSEhrEo/sPePo2jmRVfUyt7SlfzhpDpRjeBD/gpl8wscpppEU+4NQef0wGTKO91l0epjrhUd8G3ZREXt/y4WyQNbXbuJK5SZFncYkdGBHoyzLkrTMJwNp0nodPXqBn35CWHbvQ1EWJG2v+AVjNrRJ4EeiPf+ALYoppY2RZDkd7MzSi/Dm1cyc+pyIp2745lcs5U981MxshE2D91GcVyf0XMKF2Otc3TPu0rSkn8PLaRW4GvyYmWRkNIytcq1fFXPtftmYazvbRq1CevJdRBme4FFmRRp7lMRST8I0dHA+wpk67qpTKK5TOoiRhZ0JvAhznZoidM01NLbnWnsirrX3UP2YGNlub/cyOvhYE7Z3F2I2RDN6yh15lPuIfM3V269lrYpKKoWZoSWU3Vyz0VSDmCTd87/IsOgW94tGcW72LtzWH8K1TMZKTdDGvWJ6ypfRICr7G7fvRqFtVwMHeRMZMpP/XishSFT4yt7ue4k7ytrUMgLWKyEqaPE6sxez5P1DDSDk7wEp6TcC1K9x7GUuSsgGWFVyoWFaPxMcX2f3HUi4qVcGlnCu1G7hhZ16cjCS2TID12IDaHZpQk6ts23maCNtW9B3Qlcqab7PZb0krB5zKW6GTEEaw320evIoiAU30S9lQyVlkGKWQFPmMm1dv8jQK9Eunc3niXHxarWCb+8MvYmuy+kgRh4g5TW7lDCQAaxtbd/oSZmqOReUWDOnTGNOws/8ArEFVUHv7jAe3bxMYnkoxbZEh7Ez5Ukq8unqQv1Yu4bZ1H9pWsMG9lQfW79fLGXPjh20N/j1XumX6wYSXV7l0M5iwmBSKaRSnTJUaVCmtDbEhXLvky6NwMLJR4eLon9nfeh1n2kWy51IklRq3wMFA4iDZeTwA6zrtqCJHBynAlfCPuT1iLTL3ha2JzBC5jU/YmgRgJYRx31fEdYmkqhbHxsUdZ2sNwm8cYv3CWdywHsC3jjnXWc8ykPj6Add97/EiLhllfUsqVXHB0lCdtLf3uH3vCc9fx5GqrIOJfUUqljXFQCmaJ/f9uB8UTppuMUJPHePEGyvqtalHdd1I3iiXpkLF8pgovSEo4C73w9Wxd3anrEHeFoJZ5SyrrcnfPwqAtZbXtioEpVRj/JSB1LPW59mmLADLNJ2X927h//QN0alaGJepQAU7E9Tf+nNy+x8ce66OiV1dGtR2pkIFS6QcKwNgbeamZlt69LPl7cldeJ+Iomz/aUyrr0/E8/vcuvWY8FRltE1scXWtKPGDsS9ucOXOM14XMFuTVWcCXolYRF6nZSADYK0ftZg7lvZQrCy9Z4ygiVF8FoA1hAopMQTd8uXGo7ckK6tj6lgDNwdj0oJOsmnpHP6Ia8qoeqWwa9gRlyy5CRmQqRkzt/fDMmgPs8ZuJHLwFnb3KiscZHb7dc/wgx/1j8QScu0ivo/eglFZVC+O5uf9rVmx3Z2Ai5FUbORJOQMlikXcZv+ZAIxdmlDZXAd1OcWQopSB0FtuM1Q/SyySGeddrVSJ18/1GLj8F9oL35cVYKXGEHTzcq51lgGw3Bm0sCcO8RdYP2srQR4T+K1XTez04gjOar92TjjZmGFY7C2PHzwgICiMdykq6JjaUN7BFksjZeLCnhLgd5+gGGWKxQfz4Owpnqi1oO9QOyIexVLatQ6ORqm8ex3ItctPUXb2oLalHE4MZDrJj9naBwFWiFoIA74ZkI8A6wXJTmWp0MOYtKN3uXskDs2mTjjVSCfi1FOe3UggTUXsrIGatRk235qiGhJC4K43JKankhyZSGppK1yGWqMd+4YH867xOEQDw7J6aMWF8vC0NtU2liF44EUSBzbjmx764O/Hoe6BGC5qSo3aed0NyF0IIA+AJXbQxGQmr2weCcDa/xtD/jZnaINA/tytStf5M+li9/SfbJ760fisWcHeO/HoG6oQG5OIqUd/vm9tyJnZI5h1JAXnBtUp7diSkd2c/0k5zQRYGZkbegRtHkTnpSWY4TObhqlX2LB8F49TNdBQTuHN21Qcu42krwucXbmMsxHKKCW+4dFTbRpPmUAXO7i/6TdmbAvGsIINNsZxXN55DpORy2h0ZRpLw1owbWZXqhi/Zv+kcexMb8vQoS1ws9L7yC5S7nQn65Em6VNEMUeRmiqvIZxf8w02TG71gOV/Qfels+iaC53NPppCRQ93zB2bM6ijCyU1VLIBrJD6ExjWzhntG0uZtvYF5Xv2p4O7Bg+PHeGS/0sSUCIhIQW98rVp3KgGFm9ucPHMee5EJPAu4h3JhuWp16E9HpqPOOW9hV23YilpY4xuShgPH8RRrvsw3B8sZMm96kxd+j3OxZ5xfFpv5rweyJp1XbCVB3UESSHw3O5Sfy6dCYD167YQtPViiX4ZhUbFFnTp4EjEdq+MDKyeHakYfwWf/ae5/yYVkbCnpGuOa4OmVC8RzP5Vq9gXqI1jrVpUqNKIns3LZRzNyARYk/qtRu3HHcxpok3QliGftjU3LR54LWb30yTS02MJfhiFzYAZjKmrRcC/bO3itjOUnrSbvk9+YOC+iszdNo06+lGcGtecic8Gs+Gv7tjJSWfiK4njgyL4EFAkN0MEi2JRLTJV5TXyamsf9Y//ytyIOz+dBqPP0nfDMfoZfcQ/SnUWnER6WizPA6Ox7DqOIfVLEH5oFYt33COxhAlWpdIJPHsDtSajaKF1gX2n3+HUpR8dG5QhYu9cVh2Jx6ZNb7o2c8BQTuszoStRt0wWe5O3f8wAWBsoO6ktD5dvIL37MmZ1tePp+wys+sQe+YM/9t0mWlOXYvHxJJeoyrc9PLEM2sHi5X/zRNsGB2tnGndqibuDGYIRvgdYL6xo0b8r3xreYM26zdzR8qBPr7YYPz/NseO+BMWpoKKUSJqWBZUatKFB6Qj8fPZw9lUiSfGxRMTqULn7D/R0Sufx0dUs3HSHVAtb7MqoELj7MLc9l7Fa9ZcvYmuy+ki5FwSXAKydHL/2BlVrbUKDUqjUZShtSj3khCQDawgzO5sSdMCbHeeDSNLSoVhyGqrWdenSrTbqJ+czYfFp0irVo5q5Iy1HdqPy+0zG7JkbWW1toMUTfNas4vRLLfR0Uoh5G4Nh3WEMa12G9HteLNkdRJJoKhH8kBjbAUwfU4vUUwuZsdyXZEt7yttrELB9P7darONUw1N0H/g3FeduZ2odfaJOjcVz4jMGb9hINzk6SAGKRYZBbgG/gI1iE1RbW36Ljk/Zms/C+sT4rGblXj/i9Q1RiY0h0dSDft+3wfDMLEbOOkKKcwOqmzvlWGcDzJ9w+M91nA5RRUszldioWPTcetCzuSOGrw+x7dA9nr9NIDbsOe+Ke9ChSyPsky+ze8shbrxWxrisESlBD/BXqUqLRuXQu3eU01HlaDOwL/XVb7B3y0YOvipP39FDqC2v3bQ8xCPy948CYG3E7IemPNmyi5Rmkxjb2YXEXT34SZKB5Yl5yCn27L/AkzglSYJAio49dVo2obKSH397beXsKw3Mbd2o36QBdWpXxDQzHyADYO3gQYmejJrkRtzxHaxcfR3VHmP4seIbjuzaz8236mipJxOfpIJ53b70aWBMwt2trN4fTKKYRwqQreXFP4psR3klG0gB1pZpG3nn2Zq087uIcJvEpN62vPPJyMBacrg/Ja9uYuWGy4Sq66KdEkGUZkXaDx1EtYgVDP9uK/fL1KKFoyHufSfT2OyfKClbllTceWY0GMXZPl4c/c6cJz6rWX0qFC19HVJi3hJjVJcfvm+DcdCH/GM9ioceZ9GM5fgmW2Ff3g6NgO3sv9WCZavV+E34xzneTKxtQPyFqXSZEUirmQvo5mqMjmpejnj8811kzeAXd5C7rWXGeZGjfkZt9xT8nOaycEJtVA5KM7CGY3rFi+V/Xsq1zjIAVgMme/9Adb2HrOs9nSPO3zOrnxt6jw6z8+Rd3iQpQ3I8cZq21PdsSk3rOK4fP8MV/1Bi48IJTylBpXqtaF1dn6dndrH94C0ida0x007g9YNnpJvWo3XzBA78dRPTXj8zpo4ywWc3MHPpfVymzGNEFbFTI5/xMVv7IMBKUkqiTbM2+QiwgohUK45ZNW1S/N8QmaRL6Q5lMY55zsN1jwk3MMW8igZJ918R/kyF0iPdsNYK59npd6RrphJ3M5igB+pUXFAHs9DbHJsQivHo6ji6Qvimi1zerYv7YXdUfjnEhXAnmq+3gb+OcWCjPh47qmMmP7nnSHvyAFgZhFh0IpTP2eqMI4S/8cMGa35bU5lTE3/hkt0wFo63YnvdjCOEs8t407XvfsqN/Y3vqmoTvGcKYw+U5OeN8yh/YTjtfoMJ3vNoYqKChkaWVWwmwHrdcgSdK6kQfHwbp2jHz791pvjpobSd9pI6vTvgahDL7X2rOWE7j8NTKnB321b8043RTrrLnpUHeTdkI3s7vWPJt4M45DyW3wZWRfnuFmb8tg+TEVsZqb+WSXNf0HDmz7Qxvsz88VtJbT2aQS2csdLL+6o6rwXchc5E4CgKFctrN0ZK71fur8OJET9y3m4Ui37Muc46zIJRXr/R1FwTbQ1V3jdty8zA8ivdgLpVzEh/eAbft7Y069EBNw6xfPUJXug44lbJjOTAs1yOtqLet91oXSoc/1v+PEtOIeLhdS4+UsKmVRc6G/njvfYUsR696OOhx7PT2/A6GobL4Ol0KLabaYtuUW3aQnqX9GXukN952nUNa7qUkUvWnAjuRQH33EIQqTHLW2cZRwifUbqBMyUjL3H2oQZV2zTE5O4JLj3RoXJrN5Su7WGfvy51u7SjqvJ9Tvjs51qxmnzXqxqRB1ex7kZZhv76vSSbRF0987ctzcDqvZyI5oPp4KRM8PHtn7a16VUI+3sTJ6J10Fd5xdn1W/CtPptjE/VZn9XW/DYzeeZeLCcfYFaZXfTqvx2XBbv40eEmMzuOxb/7Rrx62MhFZxIeJ2MBd6mdSXc+5ZUZkldb+6h/lAIs9z781Kg0Ude3syXYkcmzx2Nz9SP+MVNnJ6N10FMJ4+KmHfhWGs9fI0px+sepHDRoSZ9uHlhEnWHtir3Ee4xmcI1YDv2xm7eVOtOjuTlPNq/m0LsKNO/amWbl9WWqc/KhCU9kqUZHR8lkb/K2NekRQquVPtQ+MZwJ5+0YuXACVjs8Mo4Q/laGPX0HccBqEON6V8M44gSLfj5IerepjK32Gu9pywmuNojv2tbAoZQOKsWKZR43zMzAup1CGY9qVFJ+zNWHERhWbU3H2jrc3r0e78sJ2NWuQ9m0x9y8/pyUcp0Y3duat+fPcCdehbS3AVw46UdMg7Es6aTFgYlj2ajcgZljGlD8zSmW/7SOyy3WcKrJxS9ia7L6SLkXvM08QnjsgSrl67ny7owPN7Xq0aGxEaHH13NKry8j60Sza84GHlcZyIhWFsT77WfxittY/TiP8aXPMKHfcoqN2cicJsaoaGhk8UmZAOsDtuYStpyufTei33YwzcpC8Mm/2PaqO947e2H8eA9bTsSgra9M6Nn1bPWtzqzjg3k7sj1z4jszb1pLTCNPsWTsSi61XMulwcVY06s/O10WsONHB27N7MDY+93ZuKEnZfMeikjMLqMDYazM2eACPMq1kHtmnPcxW/OZXYZtXfvi45ARu2kH72XKWB9K/ryJ38ufZ0T73+DHbfzexCTHOnMOW0GfQVvQaNyTb2zVeX15F/tCvmH6/O5UUrrBifMviU1LJ+reEY756vHNqM5YBu5mt28aTp5t+KZ8Ate2b+PvN+Vo0bUZLs992HwuGsvWvWhpcJPdW07ysmxXRg+qnfdyF5nOMi/xiPz9Y8YRQpNZm6hx7VfmnS9Ju3HfU/76cH550JhRA10I+WMB++OcadH+GyppPmDnah+C7drQo5kpwdu9OJ9SiRbdOtLATl9SM0i6D5IBsNZzNqEmjZuZk/DwLndeGlGrewsqhGzjl1U3MWvcDvfiUQRcOMnl9C6sXNEK/UcH2HH2HVp6xXh19s8CYWt51ZkAxfI7Zp2RgfXXjJ2k9B1F/Vd/sMRHH89JA3APXMzgNWVZ5NOGZ6M6MyOqk8Q3mcf6snLMPJ528OKPPjEsqT2Une2WceoHp3/ZmvSYnzu9f2pM6ahr7NwSTIVJcxjn+orlXfuyWb8tg5rZQPAJ/tr+im5bd9E+be8H/OMMyh0eQIc58XSeP52WJpGcXDKGlZdasvZUUy726s8u53lsHFOegIV9mHKnGb/M7YazsTby4FcZ67VESQF3WWJ/udva+9Iuu/ghaRYjFqTQcsmvtHo+jTaSI4Tdef59W6ZFZcwnudFZBsCypemAhtgoBXJ8fxAlOw5lgIcGl36fycbnxlSpXglLShrBbgAAIABJREFUHnH2hCj1M4gujSyIFBnMoXGkRj/g0qW7KDm1paNHCR7u38q5RBe+7d4I0xdn2bf1NG/MWtO/jwHXVm7lgkl3pvc358mWOSy47czkBd9TVTdH+OOTF/2XrX0QYIk7tvm2NUkJGefo259tj4qWnGbZT7xuRg2sAEKCxY55CklpWpi0roBTBwMSD97Hb1kwMVbFKVE64xS2iokOhpVKoHrjCQH3k9EwVCb1VQSvX4D9r40wf3CBY8uVcfP2wNo0nZQzl9kxKkFSA6u0/yUOjUjAcacLqdMOcd/Cg6YzxfGb3O3uf1ID/3FBUnQSu+rvklwhimhu3bpVZpghirhraopC7nnPt3wPsLxsWbivB5qHZvPjrCe4zesBw6cQMvkAk9Vm4Dk5icm7VuBpBokXZ1F35AF6rj1Dp6eCIsMUn0U0/3eprMzA5q5VZezVQ7gRZEr3hb8zxNUQv2V16P9XKdyblpecB5YEZrZtGOByh/ULzvPaxJTiqpH4H7rEU3HevecTSR2epMm7WS5eIvYcvzafwOthm5jp8YI1Y6YS9M0MuqnvZt6+YrQZMRTPyqWRA7+SLKjzUv9K+rOQZ82Qf9JPf8Dg8M+MnB6I+4KeOdZZy59h/M65NC+lln3SyARYZ+P1KKEdR0iYNlV7DaG/Z1VULv/M/A3XCdUqi5W5AZIcFyNHqlUpjdbLa5w6/5gYDS2UIp/xOFIL+4YtaW50j+27n1Pu+6kMdVUm+MrfrJlzFL0R8xho9YAt0+dw2e1HxtscZdzc53RZu5IuVvLxQWISe/dOtq6Rn0NnUoBl2aoVjWyecnDtYR6XLEuphFfExJnh1NCGd76HuZ5Wi4EjuuCY7MfRHWtYd1uHrn27oX95FStv2DBi/jBqZi0flgmwJvRYzENLR2zVXuTI1n5o+Iats3fir2ZESa1UQq6e5LbtZA5MhpmeM7PY2lmmNxxDhMikbBzNxt5d2eG+jGVuB+g35h7dNm+gh7X8aqqI3TPR/jgtLXcF3KU6EztoInVfXoU482prH/WPUoBlXB53k3fcuxNHlWlr+bmpGQ8+4h+lOruvVhwjrXRCb5zBz3IY60Zp4z1qKWGtpzPhW1fMVe+yftgs7lYeQN929rzePIft0ZVpWFWZe8evkOjYmi6dGlFeTz7pV/KA/PL0j+8B1trLfG9wmF9GTiPQbSE9lIYxJWQy+yepMafdDGKHrWd2Sxt0ucGqzlPYW3U4izqms2/GSoJrjGRIhxrYl8j6284EWKcCSDLWQik6DnUnT7r27UIdVV+8vTaw86YStg7WGEoyEoywsLbH0e41p3f48lJdF63UKIIfPyPRbShzeqixucdsznWazcHvKpKSeB/vHv1YUmMNl77X/uy2llcfKV2gyQUWSwFWgC61+3TF+N5mNh18gqqNK2aJp/DT68YglxD+XHgak5ELmFhbh8igYyzsv5zrXWfh3eghE7otodiE3cz/v2AkE2B9wNaijw7Hc/JDKtZ1p/T7U/7V6T/BmftrZrHTX43iJbVIC7nKyTu2TPEZwAPPfnh3Ws6lkVWAQDZ36MbimqIGVjmCNvam2w43lixz42C/Mdzrvpk/u5eRSya4+EXJWv9K6h8zsvi15XfMWgqwPmJrByarMdNz8j/zSeJFZtcdwf4e6zjbOSOu+3B9xf/Q2bGRfDv9ATburpjrSOt4OtNugDNRZzZz4NpbUtW1UI4K5NYDHb4Z3hrd04c4llSBbgM60tIpnet/LmWdny5VOnTnW63zbNx2gZclquJm9Jzzl95i3WUUg2qVzHMxZKnc82pr8vWPmQBr7kEGmF5l7czZ3LH8gWYaq9kU1oofe5pzceE6Hrv0ZXDHejgaPmXvlPlsTapK9852xB/axrnkKrTq1ZUGNtlLY2QArCXsfmKMcYl0YmO0sG/+A8Nb6RGw93emeb/FoYojxpIAUgNtPTc69LXGf8MS/g5Qo3iJgmNredWZfJtuSQHWLpSHz6V/aT/+mLuSy/qt6WV/jXneZVmwrxZnmnzPpjZLM31TELt6dGK20Ux8Fprxl6gD+JH6YRkZWMaUdzfh3d07xFedxqqfm1E6+ggjPCfzsGJd3P9xkFTvMQiVgx/yj4uw9MqoebX88ihc0+HR5vZ0W1yTtZd+QGdjb3rsrMrc+VU5PXoq95rPZ05XJ4y1Mk+B5GWhDZK6qbLWv/occX+22sR1X7By1Bj2aPVjgttZxi8pw9pLjTjl0Z+NbaXzSc51lgGw1DFxMCb5aSBx9gP4aUwbXHX9WTl6Hmfi9DG3MsUgsx6WTd2m2Ke84PL5yzyOLYZesSgeBT5Cw6UdLZy1eOpzhBdlezN0XEOKPz7D316bORfXnNE/lufV3vWsP6WD53dVCfVayU2nScwdWgU9OXGU/7K1jwKsfoP68jI4VKK3ZtuaoW/z+Qsri2dlAKxnxJYyw8IxjYjLEaRYWmLfsQTFrj7Cf/MrUus7UaVjCdSV0klNSCQ24AX3Jz8kqrEzdfrpE7v/Omc3x2A/qzHWz65ydFYsdr/XxN6+GAlHLnNwLhlF3NVfcaXDaeKblSPJ6yn6y5rhVv3L1r8KvxvO0Z5HJXK2s7NjwYIFMgOsjDovmnI5RvgPwLJj8cGB2MfeY8fIcSzRsKGS72XUJh9kZskVtBvmR+sFC+jqoEb40Rl0XxjKiM3eNHkwmmZToxnuNYemJdXQMdT+J1DLDGxi+i9lvN0Vfp9/GbvvJjOwqS0R2zrSdaEFY72n0EzUlEgIJybViFcb69P/r6pM3D2XxionmdFyEieEw+3/huktx3O/40Lmd3FALfwYs/ouInm4KOJuSODa75n0rAI1Io7jZzaIcQMaU6mUjlyCD9EZQdD83Nab+LcfFpkh8krdz3Z+Ovkh24aOYHEudOY5PZrBq3+hqZk2+oZaqCplFjTOBFgBFXvS2SWeCz6+pDp60rZ1HUo8Xs3CtQ/RqduZTm3dsVJLIjG5GMnPT+O9aRdXi9WkZ59mlPTfjdeeOyjX+pbWJg/YsfE2eh2G8V1NbV5c2cuGdTckRdxHVH7HrW3TmHK0DA0r+nI8pAerV7TDPI8TmPTj4jiTLGfgsz5eetxCHgu0fwBWWzo2NyZ423rWn/UjJPQdpWw8qNusEilX93PyVVna9u+Ic/o9ju/ayoEwW/p+14JiZ1ax5JIx/acNobaROlp6mfXd3tfAWklir9mMtLnGvAWftrVivqPxnBxCl+XrGGwXwsYhfVhlNJkDM3VZ2nJcFls7yszu894vMp5t7UlPb2fauR9hx/1e/LWhCxZy0pnoxCZsTdTAkmX3TLyGWKCJI4QC9Mtj5NXWPuofpTWwGk9ja5s4vH7zJqrlWMZ3ciN+94f9o1RnnZeuYaB9KLvGDmGt+iBWjjPm4Ni53Ko8gO87Vcda6RZeU1cT7DZUUsTd+MEK5m4PJ131Ga9TyuDRqgvtG9ohp80zia6kxz5llbk8bS0rwBrplMzDbYMZuVgTm0q+XFabzP4ZJfij21jufDOdqZ0qYRh3gWUjlvOg6WR+bZHE3slLuF+xD33bVKO8uSGa6qpkNLrNBFiBetRoXhmT4OtcizCiStt2NDAO5siWbZx8ZUO7Qd2pY6FOimhGEBbAzUOrWe5rTLcfh1E71ZdN81bhW+4H5vXW4e+hU9jnNIzVw2qg/e4WG0dMYqtHRhH3z21rAvDnxUdmdP3UljmWyfZbyQKwPL4fQ7WUCxza+Bc7zseiUTYdTfue/FA9nK3zdpPQZgJjGhnz7uEBFk39m4TBi1jsfodJnefxbug6ZjUtibquIf/sx2bWwPqArWnd+jkzvllE7ypGqKbEEB6vQSnOShZuIV2Ws2awPS82DqbvaiOm+AwnrG8XVtqNZ+uE+ugn+eE1ZAxbPDKLuD/bQq8eW3FuX40jO+7T6y8vOsvPQb7fTMvt8UGprMVclrEJKqf6ZVkA1ods7cDMkqxsNwy/NtLYTcwnC3gxYgvbmtxnTLOpRA37iznNcqOzX+g65i4Np/1Kj2pm6CjFEZWgRvH06yz44Xdu2vZgRL86FL+7mtl/ihIIbTG9uZ+Dz0pQv1M7mjulc3vrejYHmVKnU0/6ln/Ngc3bOHEtlDQdfZL1ytFtWD+q/0f/otz5OXG8Ou+2JuJHecQiZDZBMpl7kMGumoQemsC0FfFomfrxQKcHvwwuh//K5VwybEKX9g2oqBvI7nl/ct7gG3q1tyVyr8jcLsc3nb+loYORZL6Vdo/PAFibuK7RlFbNtXly/BIvTFvRo6U17y6sZ97uVNr8NJbWDnooJccRkwhakSeZ2GcR4Z3ms6y/LS82DSkAtpZ3ncl3My0LwBq5lJFVk3l4fBkzFt/B0EaTB4HuLNzfGL+efVlsMTqbb/KpupidP+niVa8PfzX6HZ8hTqhq6qOXpdB3BsBqzNQtbYj3moV3VAvGjO+Cm9YNfsm034W9qmCkmkxMeAKaatf48YP+cREO+1rRdaUd470nUk8vCT+vwYzd4pFRsPzZFvr08sapdVVO+Tzi2wWL6OSgl1ljMndW9aGrRSdkUUspL+s1ucYi/2qu9friLIZMuEqpSir4+rqz9tK33OnUhUUWY3OtswyAVYX+v7dE7fQGDoY606Zne+pahrFz6m+cNWxCty7NcbfUITU2kWJa4VxYvIK/7mhTu19XWpsFsHn9X/jpNKBt9ZIEH9jDHZ2m9BrcCJMX5/HZ7MNdlZb8+IsHXP2bjcu387ZsNRLvvMR56hz6V8prtyGpBv/b1j4KsKbNmIrvpSuSu9T4pQZWTb9ErXkpwMqsgdWxOEnHHvDgdBxaDcph45DEm32BhIRqUbyWEboiIUNVDXWzNMKW+hNiZI5DPU0Sbj4h+GICFnOaUU7lKZen3ibSxIqyVXRRDn7I7d1aVJF0IUwlbP5BLhxIJUHZnPp7qmCiKZ+ztjk1t6eHnnLxp4uSy6tVq8bkyZPzFPRJ67zk9UhadoA1CIe0FKKvLmHQj1t5EgfVRdZFzYfMH7+ImwbVaFBBm5CrR3mo0pEpcztg5r+CvqN9MGnWjiqlRb0QF0ykQslWA0uJqyvGMflQCfrPnkgL1cOMn+FNikNbGrmWgJhgsO2My+ORDF0IjUd3wTH9AXs2bMTXYzWXRhbn+E9jmHOvJE3aulFGLZida/djNGQrv7QwR+XhekbM9uHZ4wSqjp3HoEblKKWd9+yC9HTRjjUjHTWvQ55HLv7dwSLm6kIGjtuSY531H3uAEo1a4WLuQsO2zpipq2TAvkyAlVEDqxwp51az7O8wrJp15dvK8ZzZu5erYcWxr+iIhV486JWlrH4sd4/t4+RzAyrVroT+ixucvRVF8QYd6Vc5imNrtnEuyYJatSxReePPWd8wKg5Zytgayrzx28eUcRsI1lGl3MDVzGtaKq9ilnxeFHGMjo6WGYJkDfbl1VY3G8Bq6YT2s9Ns+WM9W4/5o129C726tcD82RF2HHlAWilbLNXfEhwUhV6ldvRsb0HYCS8WbgvEok4z3OwrU6exA5L4OlsNrO3MbpLOtZU/ftLWGqStYeD4C1h160eDUlFc+XMtf5uMwGehK7ey2FpZtWC8V+7FZGxmR9IXBxjWawkBKnGUGbKF5S2zFFLIo/aE3kSgn9vug1kfK+xM2o0wr/5R3DevtvZR/5itBlY5gvfMZNTyIOpNm0svkzNM/oB/fK+zrn2pVyqGW1u88NHvxaoZ7rxZN4+VV9Kxr1kJh5LRnP/7BCl1RvN9+zpUULnD+nkbOHTND7UG/RjQsQ0e1vIKPjK6RgpgLCt0FHKWawvrbItqUXzmCosGjmPLkzjSq4suhDV4snQyK25q4Vi9HHpv73EhMA2PAWNpVz6O47NmsTfSDCcnO6rXbUxl21LoS+peZwIsSQ2sTjRVu4b3pgMEaFWlVYfqaDw8wd6jDylm44prWT3SlDTRMtBH/9l+1hyIolyzRpRLD+LSoQs8dhzI0iG2BG6Yyvxjyji3rIODfjQXN2ziQsPMLoSf2dby6iOFzkRmiNhUy/PCOhvAGkcj43ACzu1m9UIvziZaUKnVICa31uLa+jXse1mCys5mpIfc43q4Ee1GT6CJ7i3W/DCFwyZN+NbVDOfGXXAxkWbZZ62Bld3W+pd/wvLxC7ldog6etWzRSnrNS4N69K/6igUDf+SCVVf6NjQj6sofrPvblJE+s7DcM5Sftqfh2q4BTiViubD2T85/I+1C+IKDw3qyOECF+DJD2bS8JaXz6BelHxdZqSIWyQt0lEJ+AUPkkqX6CVvzWViTgPnjWXzLgGr1K6AdcpUjD1XoOOV3Opj5s6LvaHxMmtKuSukc66yfwxPWTFnKLR03GlS3Qz89itd6VWlbMY79v8/jeEolPGqUQ/fVCQ4cjcdlQH+qqVziwO5rvC3hQEUnI6JunudioiOeXUQXQk0eH9+K94btnEisRK2W3Rne3VnSqEQeQx7xiHz94z8ZWINdddFKuMWfE2ew5cYLIsv3Z8GkRmhd3MjmM6/RKlsGE15x90kM1g270s7DjOc717HtagQ69pWoW6sGlSs6UiqzrFrWGlgjxlYi5pQ3G/YGotewO20sX7LX6xBhpatRt7IZqqnxxJZwo3WZIJaNncV16470qGtK9NX1+W5r8tKZtGlCnv1jZhH3v2bsQll08a6tRWzYbXb8PJlVV2LR0O3I4kN90Ng1kZnbkrFrXBXz2HucvBxJpWGzGV0jgYOjBvJrRFV61rfFqkZbGmfpMJi1Bla54N3MHL2cp3WnM6e/A4+Xj2fxnRLU8ayNjWYib14aUq+THts+6B8XUf/lOob+tI101/Y0cDIi9vw6/rzQMLPj3gsODe/N8sBiRFv0Z8Xcltjrqssl2UBAfdF5UGRgFZhY5N/d4ZOD2TVhCL+fe00aojPjD2juGMsM79zrLGsNrKqpF1n361pum3fmu27VUT73J1vOh6NfwZny5rqkRWtStro5sef34n0uguIubrgWD+XGyZNEWjalTesaxF/YxA7fGEwr1cBO9SUPLvoTVaotP872pPiz6xxbN5OVvhrolGnO9Hm9cZLPHvEn12sfBVibN29m48aNEh9t0cSSWr/WlIe//uQ9UoJCeOwTTop1KSy/KYlmxCueHQ7hbZoRFi3M0Il8w4sjzwgNEF0FNdBzNse6iSEpVwN4cDQGjPQp6aYLF8JQ6+uOlUkS0afu4rc/hjS9kti1Vefpn++w+qUipnpKpN26yZ6+91HpVJ/m40zkVq/lk18084ILEy8QfDhY8q/u3bvTpUuXPAV88uq2lZYYzYuL3qw4bsZ3Mz2xJJ309OecmDWP/WHg0GUG37nrER14jK1eh/GPSUbTqiZturTF3UQVkp9yfNlK9j+NR9O4Ld9NqPtPu83oy6yaugUy70H0dVbN9OJtzRGMaVuat7672bL/Ck9jkknXNKZ2j5G0N/HHa+EWbsSoYFWzLW5sZ4fK9yxoa0VyyGlWL9tNYLIuldu3wej4ZkLrjae7W0k0le7j1X8sm966Mnj29zQqZ4wc+BXyyr6S/k5EFpbYsc7rZBbtu5KpW4wZseDbTHmHcPy3uTnW2YnlqzjwNB7VEp70GlEXWy3VDJuIvc2OpbsJr9yRVrXsKaX8mIN/7eGeiitNmrphnniPM8dPczXgFTFoY+XemCYeDmg8OsvRo5cJVLKinJ0x2upJxOtXo2MNPV5cPc5un6u8K2FJuYp2aD70I63+ENo7aRD35h57Jw9hbWhNxi6fjTz4VV5rhPzbpuWls/jAo3j7vKZk9Zp4VLNGlygCT/pw5LgvEWXq0bBxM1x1X+F3/hjHzt0lTLk4ZVzr0bhBdez0k3gbdJ3j3n9z6a0WZg4t6NK3ChJ0lJZE/KuLeC08iEqHn+hXVQeib3za1mzDMm03BR2HFrS0vc7mwFrM+M4dzSy25tyhLcWPePGicYYvgNf4DGvBzLtVmeS1jBZyWp0JvYnOWnnJvpLqTp5ZWHm1tY/6R56ye+QCzniMlPg34Uv3/b6AM8W7MuE7F5I/5B8zdebzNAVt+2Y0s/Xj76dVGNrZDZPYm+zw2s/t16lYNWiAaeBlomyb06C6E5YGcVxfP4OV+55j2X4Y3VvXRF78SgSNoiZPXhfVQnfysjUy5x7jEQsRohXjxfFfmbs/jHSHrkwb6Ib+u0ec2bGFI/feEqdSGtfGbfGsboWhJoRe2cb2Q7d5+k6Tai2606CKDSUkHRPecH3rHo6HG+PetB51rVO5f/YQx2/GYlq9CQ0d4Mnl4xy/cI+Qd+loWThRvXEjaqo94tgOH67E6FPK3hmnks+49q4Gw9qXo1jIdXZs3smtcE2sG7fAJXgrOw2HZ/wmPqOt5TVjTmproqOdWKTlGRYnveTOqaPcCNHCqVV7XI0g/pU/vse82XNfizLVWtGvmRWpz25y/O/9XAhKQtnIntqebWniXALllHc8PrGGPw4GE6dZkrbfTaTu+/3Y/7K1aqgEHmX79uP4hcWDii5Wbb5nRK3iPD2+jFX7g0jWdcCzhS03twRSa/og3FLusGWdF74vVLBq0QG3oL/YUXxEps7gjc8PtJh5l6qT/mKpvBwk5Dn7SqozuWZhfcLWxHyiFx3A8S1eHLofQ7KmFbXadKWNuwmqJL+XcZymcY519uNAd1SfnGTvrhPcfvmOlGLalG7Uk761LUm4swPvQ3d4mWRKtVq2RN2NpHTdOrjZF+PBSR9OXg0itWxVHPUiCEsxoqzrNzQup0/8o2Ns3vAHe8Id6TxwCN0qywdfySM7Vd7xIzG+rJu5DcP+M/G00ZR0f3t1YQVrDj7iTclGDOxcm3I6Edw68jfHrj0mNMkQu+qNaVKnItYlVIl8cJLDh89w/XkadtWb0bhBLawzawrHPDnHmUPnCNH7hrbdXNEOfYDvER8uxZSjRfs66Dw9gc/hywRGJKOiZ0a5Fr3oU0mdRyfWsv7Ic1J1y9Hc0yZfbU2eOpNfFlYC4Y+vc2LzBZTaDKa9kzbpSTG8uu7NPO+HKGt6MORXTyySwriydxN7LgQTr6KLQ9NedGloi4jc3t7wYuHm68Sgi0vPsfSs+E9jqae7R7DwjEfmmiKZp/9j7z7go6j2No4/s4BUpVgCFoqoFEFAFPDqpdhAUQnqFbARbERRCV5KoiBdgqgERQUbYIFgI9gAG8FyARVBVF6wEVCqSlFKBLL7fs5ulmxCyibZ3exkfnPf+/G+ZnfmnO9/ZzL75Jwzb09Syid11CcxXu0q/aiPXntNH323XftVSUc3iNWAhHbKLOj6eMyf+nbOC3rxi02q1OAK/efcDXrx9dqHv6/88Z5ZO/k7NRs4TZPMFP7KpR9sYM6RUIy+Cvm5ln2ft93/PVjS/m9f1IMvfK1DyvY+uF1fpL1c7JptfCdJ0z9prT73X6WmtSppe/oLmrnkoM6+5j86/5QD+vHTRVr8xQ/a8neWjjqunbpd3UXNq/+o9IWL9cUvWTqxZXOddGCHXNVPVpNLuqju9i+VvuBjffnnMWp0RmPFHPWXNu09Xdfd0kHH7/lV37z/jJKeW6fT+4zSwzc19y0jU8otmHOtwABrzZo1GjZsmPcv3pXrVFa3Od1U9bjcc5pL2b6yfbs7Swf3HNI/K9do8eCNavTClWrRMjQnS7Ad2//Hfi3qs0iZOzK901smTpyoZs2alTrECNUorGD7EZ2vc+vA3n3K3POdXh85Vu83SdCYm/+t04+tkr3obslb7Uvz//F+qQ7VFtK/ooWqUWWwH487S4cy/9KOzWv07rTReqfacE0b01EnhKAtJnT8++/SjQYJbAY1y9HIyvxb+/Zs1YLkG/WMe7xefuxi1Q1BzcwuzJBvM4qnpFNj8jbDPwrLXHOdvLkP7FPmvj/11euTNOf/6qvzddfryvYn+p5gWcrN3Hz41izbU6q/eAZ+sQ7ViMdSdq3M3x7ec+2gd4RqKDZzfTSjecwXtdL+YSYU7SnTfWRl6u99e7RtwQTdON2t8a9M1kUhukCae3QTFJfkKZ/5mZjrYshGYZUpeikP7j6kAwf2ace6T/T66x/rx+rnK/7Oa9QsRKupmPuRUJ5rXB+z6x3Gcy2UNTOtNQG/mbbL9TH7+rhwom55LkvDnh6vSxpW1VEh+EruW6vY93TWUGzc92cretzKOvSP9vy+Qd9+mKoZC3er+5hJujpEj4oP5lwrMMAyTYyPj9fGjb7RQS36t9CZt54py7fgg/23fbu08a2t2v7BOm11n6Hzn2mm2qFbb7hIH0+WR98/972+e+Y772vr16+vadOmFfm+YF5gbkD8a2E598K4X798skgrvv5Yb361TxfEP6jrzz1FtSuX/vMbyjQ/sJ6hnV8dzCcl+l5zaN8ubfp6vj5evlpLVuzXWfeM033n+ZfzL3l7zRdqE4KE6ibf3xJq5pP4Y8VcffzFSs1/b4OaDXlCwzseV/JiBbzTP2rOjOIpzdDvwMaYESH+tbCce32Udv/4ib5e8bkWfPyzPG2u0Q09u6h13VD87cy3YGoov1Sb+nGuhf9cC/U10oRXZmSx08Ni/fGVXv34C61Me08ZzYdq6vBOOjYEi9yaa6L5cmb+oBaqgN83Cquy94EXTr4+at9mrVnzlT5a9InWbqmhM7vfqJsvO03ZM+JK9fstHPcjXB+zSxLGcy3U18dQzZgp1YcxGt7sr9n8BdrQJEEPD+2sE6tUKPWTkP0PkTHXyNIsP5GXiHPNrMeyR3/8ukafLvpMX6/4Vn/Xv04JiZepYQietRXs9bHQAOvdd9/V008/7f3FWOW4KuqY0lF1mpX+y2Q0nC/atVlfD1yjnTVPUJPEFjr5xBBEvcXo2M7/26lPB36qfX/u8w6xv/POO9W9e/di7KHwl5oTzIzECslaBiFrVSR39Je+mD5cL39rqXG3ePXpcrqOr176p1n4nmThu2EMx1a9enWZqRdOvXH8Z+d6DUfeAAAgAElEQVRGrXpjjGasOkHNL7lZcT2aeoc4l2bzPz7XPMEuHJv5gmZu+J1aM2P685xb9NCH1dT44v66q09LZc8aKBW3/+bD99hjd6n2lffN3DhKW5ak6MUF67S7blf1iO2sNg1rKRSPMAnHCFV//TjXwneu+dZ0DP010gQh5vpY6qmEIb0CRHhnP8/WrQ99qKqnXqw77r5eZ4VoFI/5Y9q+febL2aGQdsiyXN7RIeY+0rG/13as1tvvvK13vjmks7tcoSsuahvwNMqSc5vfa+E617g+mpuR0J9r4ayZGYFl/qDm6JDfX7NGF+mWO3upVZ2K2Q9HKfl5Zt5pRu+b72uhWMYgb0scf64d/FPrV7yvV2YsV+YZndWz7xVqe1zp06vinGuFBlhmxf7Bgwdr/fr13tqdcM4J6jCqg6rVC8Ukg9J9MO387r1b9umrkV9qy4ot3m40atRIjzzyiHfUVCg3c9NoQixHXxhDCOobimoWAtwfwr3m3pW5yfdPuwjbQRy2Y/9UplD9hTovn2/BYjNVJhRf/x1WnEK6G866mZr5Qyznhvyh/6zlhI57QzZiLrCVnGuhr5nZowlCzEMSQjXKMW/NQrdgcXj6b8e9mi9nvqcgHwxL87kXCQtr2M817kVCX7dwXx/9I8IdHfKHuGy+wQaZOnCg5E+uLqxJ3IuEuGDZuyvOuVZogGX298033+ihhx7yrh1jtpM6n6S2Q9qq6glVZblKPx0rPATRuVeP26P92/drxcMrtGnJJm8jjz76aN1///1q1apVyBttTjBzYTT/NX9RYyu5gC8VzvQ+hjUcN/mBLTOBo1nPgF9mJa+X/50mtDLXrlD/hTpvy0ytTM0Ii0tfM7MHc/Nh1k8qzSOPi2qJuT6aEQbmyzXXx6K0gvu5qZepWyiH63OuBWdf0leZWv39918hm4KWXzv8YUhInkpY0o6Wo/f5H5BgQv5w3o+Yepk/qPF7LTQfnkida9yLhKZe/nuRSFwfzUhVR494DF3JvNdE/1MHw/WHa9Nc7vtDWLTs+/7inGtFBlimeXPmzNHrr7/u/fJutpj2MWozqI2qn1hdlapHcOGo0FpFdG8H9x7U3s17tXLySm1bvs17bDPi6tprr/U+eTBcm/+pW06ellZaW9+CxAe8n/9wfjELbKfvi3V1QqxSFC+UT0ELphnULBilol9j6uZ/6mDRry7dK8wNiG+kKiF/aSTNNdJcG03dQr3OXH7t4lwrTbVy3hvJa6T/qVvmnsSx09JCUDb/I+FDue5VYc3yr4fFH9RKV7xInmtcH0tXK/+7I1kzExab+xAzkp/rY8nr518yxIy+isT3Nc61ktcq8J0lOdeCCrDMQZ555hktWrTocIhlRmA1vaGp6netrwqVK6hCFd9NiasSI32Ml/ug25sCZ2VmKeufLG1ctFHrXlmnfdt9T64zax1dcskluuOOO0JT/UL2Ym48TIBlLo7chBSP27+ei0nzw5nk59cq8wvNhFhMcSpezcyrfdMr9oZ1BE9+rapQwfzF2rdoMTchJa1b+KbF5Nci/0gsplsXv17mHf4nDprwKhI3jP5Wcn0sWb387yqLa6TvATPVeDJhCUvnC4n3e/+gFs6RV3mbV7GiWYy/GvciJaibP9w3a3CGeyR4YPO4PpagWAFvKavro1kTy4QifFcrfv0iHe5zL1L8GuX3jpKea0EHWOagL730kt5++22ZC7H/l2fVmKqqd349nfivE1WxWkXValxLYmahdv20S4f2HdLm/23Wls+3aP823+g136Olq6tXr1665pprQlP9IPYS+CXNXBj5cl04mvl8B14MI3mzGNgyc8PvD7GoWdEfdFMn/8Uwkl+mA1vGdJmi65T3Ff6bfPOUn0gHxf7rsm9NLLNmYEWuj0GW0NTKLJBq1gUsi7qZc61GjaMJjIOslz9wNNfGsjzXTBhiRhrwJS24wvmvj2XxRxl/CznXgqtV4Kv89yNmWjXXx+L7lcU7ouFexIRY/gdfcN9f9KfAXzMz0CCUT6wu+sg5r+D6WBwt32tLe64VK8AyB/zyyy/15JNPateuXd6pAmX1xb74VGX7DnMRMkPoa9WqpQEDBujcc88tkwaZL2nmwsjNY8H85oln5rNthuhHYjpMUR8E/2OtzS81wsf8tcx1yPzX/4TIsr4u+WtmRj4yGquwcy266uabUpjzF1BuHgs+38xoAjNMv6zvA7g+FvUbJOdmMVqukf77IXOusS5W0ddHsxCxOdfKIgQJbB3nWvDnWjT8AdT/xxlzz8/9Y+G1i7Z7SPN90dTNjH4k6C/8vt+MSDXf18K5ZmowZz7Xx2CUfMFVKO5Fih1gmeaZEVhmJNa7777rXSDZXKjNfz3mP25PcD0o568yC9yb/5gLj2+ht6PVvXt3XXnlld4RWGW5mZPMfKn2f1HjS1rODb5J782F0Hw5K+sQJO9nxP/l2veXGTPMkaGOkhkpZ4Ir39NGyvoGP7+ameHg3DzmlYnuupnrowkfOddy180/osD8pbOsgyuuj8HeRUTvueYLssz10XxRY+RjTkV9NTP3Iub3WlmNJi7oE8a9SMFfqP1PqzZfqqPpfoSaFfRpju7ro2/QgVkbqxIjwwNK6FuoPef6GE3f1zjXInOulSjACmzasmXL9O233+rn9T9p575d2rp+6+Ev/h4rJ8wy4VZ520xA5d8sT+4woUGjBqpRrYZOPfVUtWzZUh06dIi67vuDLHNhNCm/+acTN5Pamy9j5obD3ChG04Uwv3r41jQ7ylsz80+nbiZsNI8QN/+MphvFgmoWeJ45+S9qdqsb55rvqZDmGmnOt2gLrgoKjZ1+fTQudjnX/COy/PchTn7qnV1qZj5f3Iv4rj7m/iPw+hjN9yPULOc3hl3OtZzvakd5v6c5eV3cwPMs2r+vca7lDA7x1y2U39dKHWDl92XtkHVI2ypv0/aKv+vvCn9pX4V92uvaq/2u/XJb7nLxfbtqVlXVcNdQtaxqqpF1tE44dLzq/VNPFT0Vbds/c7L5pxZWqGBGjvkWoi4vN5P+kYK+f2YdvumItr9uFucD5F/bzNSqPNbMWPh/SZmaZWX5aldW89yLU5uCXmtqZm5AzFpL/pr5R2qWp9GQ5bFuvsVVy++5dng0tcedfa65vaFVtN8oFnaulfealbdrpP+ewz91xlwjLcs3kr08Bf9cH0Px2zSy+/Cvjeq/hzT3I2a0vvkjaLT/4TM/KSfcP5a366Ppj/lOZoIscy/ivy6W/+ujCYmj/4/VTr4X8V8fff8M//e1sARYkf2VwtEQQAABBBBAAAEEEEAAAQQQQAABBMqzQLkIsLZt26b58+drz549uu+++8pzvegbAggggAACCCCAAAIIIIAAAggg4DgB2wdY27dv14svvqjHHntMderU0c0336yhQ4c6rpB0GAEEEEAAAQQQQAABBBBAAAEEECivArYOsP766y+lpaVpzJgx2rdvn7dGtWrV0k033aSkpKTyWjP6hQACCCCAAAIIIIAAAggggAACCDhKwLYB1u7du/XGG2/ooYceOhxe+St3zDHH6IYbbtCIESMcVUw6iwACCCCAAAIIIIAAAggggAACCJRHAVsGWLt27dKrr76qhx9++Ijwyl+kGjVqqE+fPho9enR5rBt9QgABBBBAAAEEEEAAAQQQQAABBBwjYLsAa+fOnZo9e7Z3zav9+/cXWqhq1aqpV69eGj9+vGMKSkcRQAABBBBAAAEEEEAAAQQQQACB8iZgqwDrzz//1Msvv6zHH3+8yPDKX6jKlSt7Q6zk5OTyVjv6gwACCCCAAAIIIIAAAggggAACCDhCwDYB1j///ONdsH3SpEnavHlzsYpTsWJFnX/++Xr66ae9i7yzIYAAAggggAACCCCAAAIIIIAAAgjYR8AWAZYJr15//XXvtMEtW7aUSNflcunMM8/U3LlzCbFKJMibEEAAAQQQQAABBBBAAAEEEEAAgbIRiPoAKzMz0xs6TZkyRVu3bi2VkmVZat68uV577TVCrFJJ8mYEEEAAAQQQQAABBBBAAAEEEEAgcgJRHWCZ8MqsefXkk09q27ZtIVMxI7EIsULGyY4QQAABBBBAAAEEEEAAAQQQQACBsApEbYBlnjA4a9YsTZs2Tdu3bw85AiFWyEnZIQIIIIAAAggggAACCCCAAAIIIBAWgagMsDwej1566SU98cQT2rRpU1g6bnZKiBU2WnaMAAIIIIAAAggggAACCCCAAAIIhEwgKgOsN9980xterVu3LmQdLWhHhFhhJ+YACCCAAAIIIIAAAggggAACCCCAQKkEoi7AevXVVzV16lT99NNPxe5YjRo11LJly2K/r1mzZho3blyx38cbEEAAAQQQQAABBBBAAAEEEEAAAQTCLxB1AVb4u8wREEAAAQQQQAABBBBAAAEEEEAAAQTsJECAZadq0VYEEEAAAQQQQAABBBBAAAEEEEDAgQIEWA4sOl1GAAEEEEAAAQQQQAABBBBAAAEE7CRAgGWnatFWBBBAAAEEEEAAAQQQQAABBBBAwIECBFgOLDpdRgABBBBAAAEEEEAAAQQQQAABBOwkQIBlp2rRVgQQQAABBBBAAAEEEEAAAQQQQMCBAgRYDiw6XUYAAQQQQAABBBBAAAEEEEAAAQTsJECAZadq0VYEEEAAAQQQQAABBBBAAAEEEEDAgQIEWA4sOl1GAAEEEEAAAQQQQAABBBBAAAEE7CRAgGWnatFWBBBAAAEEEEAAAQQQQAABBBBAwIECBFgOLDpdRgABBBBAAAEEEEAAAQQQQAABBOwkQIBlp2rRVgQQQAABBBBAAAEEEEAAAQQQQMCBAgRYDiw6XUYAAQQQQAABBBBAAAEEEEAAAQTsJECAZadq0VYEEEAAAQQQQAABBBBAAAEEEEDAgQIEWA4sOl1GAAEEEEAAAQQQQAABBBBAAAEE7CRAgGWnatFWBBBAAAEEEEAAAQQQQAABBBBAwIECBFgOLDpdRgABBBBAAAEEEEAAAQQQQAABBOwkQIBlp2rRVgQQQAABBBBAAAEEEEAAAQQQQMCBAgRYDiw6XUYAAQQQQAABBBBAAAEEEEAAAQTsJECAZadq0VYEEEAAAQQQQAABBBBAAAEEEEDAgQIEWA4sOl1GAAEEEEAAAQQQQAABBBBAAAEE7CRAgGWnatFWBBBAAAEEEEAAAQQQQAABBBBAwIECBFgOLDpdRgABBBBAAAEEEEAAAQQQQAABBOwkQIBlp2rRVgQQQAABBBBAAAEEEEAAAQQQQMCBAgRYDiw6XUYAAQQQQAABBBBAAAEEEEAAAQTsJECAZadq0VYEEEAAAQQQQAABBBBAAAEEEEDAgQIEWA4sOl1GAAEEEEAAAQQQQAABBBBAAAEE7CRAgGWnatFWBBBAAAEEEEAAAQQQQAABBBBAwIECBFgOLDpdRgABBBBAAAEEEEAAAQQQQAABBOwkQIBlp2rRVgQQQAABBBBAAAEEEEAAAQQQQMCBAgRYDiw6XUYAAQQQQAABBBBAAAEEEEAAAQTsJECAZadq0VYEEEAAAQQQQAABBBBAAAEEEEDAgQIEWA4sOl1GAAEEEEAAAQQQQAABBBBAAAEE7CRAgGWnatFWBBBAAAEEEEAAAQQQQAABBBBAwIECBFgOLDpdRgABBBBAAAEEEEAAAQQQQAABBOwkQIBlp2rRVgQQQAABBBBAAAEEEEAAAQQQQMCBAgRYDiw6XUYAAQQQQAABBBBAAAEEEEAAAQTsJECAZadq0VYEEEAAAQQQQAABBBBAAAEEEEDAgQIEWA4sOl1GAAEEEEAAAQQQQAABBBBAAAEE7CRAgGWnatFWBBBAAAEEEEAAAQQQQAABBBBAwIECBFgOLDpdRgABBBBAAAEEEEAAAQQQQAABBOwkQIBlp2rRVgQQQAABBBBAAAEEEEAAAQQQQMCBAgRYDiw6XUYAAQQQQAABBBBAAAEEEEAAAQTsJECAZadq0VYEEEAAAQQQQAABBBBAAAEEEEDAgQIEWA4sOl1GAAEEEEAAAQQQQAABBBBAAAEE7CRAgGWnatFWBBBAAAEEEEAAAQQQQAABBBBAwIECBFgOLDpdRgABBBBAAAEEEEAAAQQQQAABBOwkQIBlp2rRVgQQQAABBBBAAAEEEEAAAQQQQMCBAgRYDiw6XUYAAQQQQAABBBBAAAEEEEAAAQTsJECAZadq0VYEEEAAAQQQQAABBBBAAAEEEEDAgQIEWA4sOl1GAAEEEEAAAQQQQAABBBBAAAEE7CRAgGWnatFWBBBAAAEEEEAAAQQQQAABBBBAwIECBFgOLDpdRgABBBBAAAEEEEAAAQQQQAABBOwkQIBlp2rRVgQQQAABBBBAAAEEEEAAAQQQQMCBAgRYDiw6XUYAAQQQQAABBBBAAAEEEEAAAQTsJECAZadq0VYEEEAAAQQQQAABBBBAAAEEEEDAgQIEWA4sOl1GAAEEEEAAAQQQQAABBBBAAAEE7CRAgGWnatFWBBBAAAEEEEAAAQQQQAABBBBAwIECBFgOLDpdRgABBBBAAAEEEEAAAQQQQAABBOwkQIBlp2rRVgQQQAABBBBAAAEEEEAAAQQQQMCBAgRYDiw6XUYAAQQQQAABBBBAAAEEEEAAAQTsJECAZadq0VYEEEAAAQQQQAABBBBAAAEEEEDAgQIEWA4sOl1GAAEEEEAAAQQQQAABBBBAAAEE7CRAgGWnatFWBBBAAAEEEEAAAQQQQAABBBBAwIECBFgOLDpdRgABBBBAAAEEEEAAAQQQQAABBOwkQIBlp2rRVgQQQAABBBBAAAEEEEAAAQQQQMCBAgRYDiw6XUYAAQQQQAABBBBAAAEEEEAAAQTsJECAZadq0VYEEEAAAQQQQAABBBBAAAEEEEDAgQIEWA4sOl1GAAEEEEAAAQQQQAABBBBAAAEE7CRAgGWnatFWBBBAAAEEEEAAAQQQQAABBBBAwIECBFgOLDpdRgABBBBAAAEEEEAAAQQQQAABBOwkQIBlp2rRVgQQQAABBBBAAAEEEEAAAQQQQMCBAgRYDiw6XUYAAQQQQAABBBBAAAEEEEAAAQTsJECAZadq0VYEEEAAAQQQQAABBBBAAAEEEEDAgQIEWA4sOl1GAAEEEEAAAQQQQAABBBBAAAEE7CRAgGWnatFWBBBAAAEEEEAAAQQQQAABBBBAwIECBFgOLDpdRgABBBBAAAEEEEAAAQQQQAABBOwkQIBlp2rRVgQQQAABBBBAAAEEEEAAAQQQQMCBAgRYDiw6XUYAAQQQQAABBBBAAAEEEEAAAQTsJECAZadq0VYEEEAAAQQQQAABBBBAAAEEEEDAgQIEWA4sOl1GAAEEEEAAAQQQQAABBBBAAAEE7CRAgGWnatFWBBBAAAEEEEAAAQQQQAABBBBAwIECBFgOLDpdRgABBBBAAAEEEEAAAQQQQAABBOwkQIBlp2rRVgQQQAABBBBAAAEEEEAAAQQQQMCBAgRYDiw6XUYAAQQQQAABBBBAAAEEEEAAAQTsJECAZadq0VYEEEAAAQQQQAABBBBAAAEEEEDAgQIEWA4sOl1GAAEEEEAAAQQQQAABBBBAAAEE7CRAgGWnatFWBBBAAAEEEEAAAQQQQAABBBBAwIECBFgOLDpdRgABBBBAAAEEEEAAAQQQQAABBOwkQIBlp2rRVgQQQAABBBBAAAEEEEAAAQQQQMCBAgRYDiw6XUYAAQQQQAABBBBAAAEEEEAAAQTsJECAZadq0VYEEEAAAQQQQAABBBBAAAEEEEDAgQIEWA4sOl1GAAEEEEAAAQQQQAABBBBAAAEE7CRAgGWnatFWBBBAAAEEEEAAAQQQQAABBBBAwIECBFgOLDpdRgABBBBAAAEEEEAAAQQQQAABBOwkQIBlp2rRVgQQQAABBBBAAAEEEEAAAQQQQMCBAgRYDiw6XUYAAQQQQAABBBBAAAEEEEAAAQTsJECAZadq0VYEEEAAAQQQQAABBBBAAAEEEEDAgQIEWA4sOl1GAAEEEEAAAQQQQAABBBBAAAEE7CRAgGWnatFWBBBAAAEEEEAAAQQQQAABBBBAwIECBFgOLDpdRgABBBBAAAEEEEAAAQQQQAABBOwkQIBlp2rRVgQQQAABBBBAAAEEEEAAAQQQQMCBAgRYDiw6XUYAAQQQQAABBBBAAAEEEEAAAQTsJECAZadq0VYEEEAAAQQQQAABBBBAAAEEEEDAgQIEWA4sOl1GAAEEEEAAAQQQQAABBBBAAAEE7CRAgGWnatFWBBBAAAEEEEAAAQQQQAABBBBAwIECBFgOLDpdRgABBBBAAAEEEEAAAQQQQAABBOwkQIBlp2rRVgQQQAABBBBAAAEEEEAAAQQQQMCBAgRYDiw6XUYAAQQQQAABBBBAAAEEEEAAAQTsJECAZadq0VYEEEAAAQQQQAABBBBAAAEEEEDAgQIEWA4sOl1GAAEEEEAAAQQQQAABBBBAAAEE7CRAgGWnatFWBBBAAAEEEEAAAQQQQAABBBBAwIECBFgOLDpdRgABBBBAAAEEEEAAAQQQQAABBOwkQIBlp2rRVgQQQAABBBBAAAEEEEAAAQQQQMCBAgRYDiw6XUYAAQQQQAABBBBAAAEEEEAAAQTsJECAZadq0VYEEEAAAQQQQAABBBBAAAEEEEDAgQIEWA4sOl1GAAEEEEAAAQQQQAABBBBAAAEE7CRAgGWnatFWBBBAAAEEEEAAAQQQQAABBBBAwIECBFgOLDpdRgABBBBAAAEEEEAAAQQQQAABBOwkQIBlp2rRVgQQQAABBBBAAAEEEEAAAQQQQMCBAgRYDiw6XUYAAQQQQAABBBBAAAEEEEAAAQTsJECAZadq0VYEEEAAAQQQQAABBBBAAAEEEEDAgQIEWA4sOl1GAAEEEEAAAQQQQAABBBBAAAEE7CRAgGWnatFWBBBAAAEEEEAAAQQQQAABBBBAwIECBFgOLDpdRgABBBBAAAEEEEAAAQQQQAABBOwkQIBlp2rRVgQQQAABBBBAAAEEEEAAAQQQQMCBAgRYDiw6XUYAAQQQQAABBBBAAAEEEEAAAQTsJECAZadq0VYEEEAAAQQQQAABBBBAAAEEEEDAgQIEWA4sOl1GAAEEEEAAAQQQQAABBBBAAAEE7CRAgGWnatFWBBBAAAEEEEAAAQQQQAABBBBAwIECBFgOLDpdRgABBBBAAAEEEEAAAQQQQAABBOwkQIBlp2rRVgQQQAABBBBAAAEEEEAAAQQQQMCBAgRYDiw6XUYAgfIjsG/fPv3888/asmWLdu7cqb/++qv8dI6eIBAmgdq1a6tOnTo6+eSTdcYZZ4TpKOHd7bp167Rp0ybt2LHDe+6zIYBA4QJHH320zLlfr149nXrqqapRo4btyDjvbVcyGlzGApUrV/ae98cff7waNGjgPf/Z7C1AgGXv+tF6BBBwqIDb7da2bdu0ZMkSffDBB1q/fr33///zzz8dKkK3EQheICYmRnXr1lWTJk3Uo0cPXXDBBTI3uXbYMjMz9fnnn2vevHn68ccftXXrVu+5z4YAAoULmNDanPuNGjXShRdeqC5duni/zLpcrqin47yP+hLRwCgVqFatmk444QSdcsopatu2rbp166YzzzxTlSpVitIW06yiBAiwihLi5wgggECUCZjwauPGjZo7d67efPNNbdiwIcpaSHMQsI9A8+bNdccdd+jqq6/WUUcdFdUNP3DggF5//XU999xzWrNmTVS3lcYhEM0C5stsz5491atXL2+gFc0hFud9NH+SaJudBI455hjvH6xuvvlm7z8rVqxop+bT1mwBAiw+CggggIDNBLZv367Zs2frySef1N9//y2ZWRAtJdWVrOo26wzNRaAMBDxmpu1vkr72HfzYY4/1nk8dO3aM6i+yH3/8se6++27vtEGzmb8mn3TSSTI35WwIIFC4wN69e70jFr///nvvdHszhbB///666aabvCMyo3XjvI/WytAuOwiYANjMTjDLbWRkZHj/UNWhQwcNHz5cZ511lh26QBvzCBBg8ZFAAAEEbCRg1rz68MMPNXHiRO8vY9WRdJVk9bWkFpJ1nMdGvaGpCJSNgGeLpK8kzxOSPvC1oV27dnriiSe80wyicTTG5s2bdfvtt2vFihXe9l566aUaOHCg2rRpw5oeZfMx4qg2EzBfYr/99lu98sormj9/vn7//Xc1btxYgwYN0uWXXy4z1SjaNs77aKsI7bGbgH+t2IULF+rll1/W6tWrVatWLe/yAUOHDvX+AYvNXgIEWPaqF61FAAGHC5gFXKdMmeKdOugdeXWFZD0mWaxJ6fBPBt0viYDnZ8nTXdI637vNX2TNdMJom0ro8Xi8I8TGjRvnbWezZs303nvvqWHDhiXpNu9BwNEC5qEnSUlJ3t+jZhSz+SJ77733etfFibZt6tSpnPfRVhTaY0sBc66/8cYb3t/z5gEo5kEOiYmJuuqqq2zZHyc3mgDLydWn7wggYDsBM5XggQce8C7a7h1xlSxZ5gs4GwIIlEjAM1Xy3ON767nnnqvU1FRVrx5dc3HNunfdu3fXypUrve2cPn26N2hjQwCBkgmYAHjEiBH6+uuvvV9kzf++7LLLSrazML7LtInzPozA7NpRAj/99JMefvhhPfvss96p99dcc40mTJjgKIPy0FkCrPJQRfqAAAKOEXj77bf13//+17t+hzpL1hzJit6lOxxTFzpqXwHXj9KhM3ztN08o++yzz3T00UdHVYeysrLUunVr75Qns/3yyy/ehafZEECgZAJmFNatt96qBQsWeL/ImtGN1113Xcl2FsZ3tWzZkvM+jL7s2lkCe/bs0UsvvaS77rrLO9L6oosu0owZM5yFUA56S4BVDopIFxBAwDkC5glkZhFns1mXS9a7zuk7PUUgXAJuK2fPZppuzZo1w3WoEu3XBFhmsXb/ZqYUsiGAQOkEzBMIX331Ve9OkpOTFdcrDaIAACAASURBVBcXV7odhuHdgYvLc96HAZhdOk4gLS3N+wRSs7Vv3967Hh6bvQQIsOxVL1qLAAIOFyDAcvgHgO6HRYAAKyys7BSBqBYgwIrq8tA4BMIiQIAVFtaI7pQAK6LcHAwBBBAonQABVun8eDcC+QkQYPG5QMB5AgRYzqs5PUaAAMv+nwECLPvXkB4ggICDBAiwHFRsuhoxAQKsiFFzIASiRoAAK2pKQUMQiJgAAVbEqMN2IAKssNGyYwQQQCD0AgRYoTdljwgQYPEZQMB5AgRYzqs5PUaAAMv+nwECLPvXkB4ggICDBAiwHFRsuhoxAQKsiFFzIASiRoAAK2pKQUMQiJgAAVbEqMN2IAKssNGyYwQQQCD0AgRYoTdljwgQYPEZQMB5AgRYzqs5PUaAAMv+nwECLPvXkB4ggICDBAiwHFRsuhoxAQKsiFFzIASiRoAAK2pKQUMQiJgAAVbEqMN2IAKssNGyYwQQQCD0AgRYoTdljwgQYPEZQMB5AgRYzqs5PUaAAMv+nwECLPvXkB4ggICDBAiwHFRsuhoxAQKsiFFzIASiRoAAK2pKQUMQiJgAAVbEqMN2IAKssNGyYwQQQCD0AgRYoTdljwgQYPEZQMB5AgRYzqs5PUaAAMv+nwECLPvXkB4ggICDBAiwHFRsuhoxAQKsiFFzIASiRoAAK2pKQUMQiJgAAVbEqMN2IAKssNGyYwQQQCD0AgRYoTdljwgQYPEZQMB5AgRYzqs5PUaAAMv+nwECLPvXkB4ggICDBAiwHFRsuhoxAQKsiFFzIASiRoAAK2pKQUMQiJgAAVbEqMN2IAKssNGyYwQQQCD0AgRYoTdljwgQYPEZQMB5AgRYzqs5PUaAAMv+nwECLPvXkB4ggICDBAiwHFRsuhoxAQKsiFFzIASiRoAAK2pKQUMQiJgAAVbEqMN2IAKssNGyYwQQQCD0AgRYoTdljwgQYPEZQMB5AgRYzqs5PUaAAMv+nwECLPvXkB4ggICDBAiwHFRsuhoxAQKsiFFzIASiRoAAK2pKQUMQiJgAAVbEqMN2IAKssNGyYwQQQCD0AgRYoTdljwgQYPEZQMB5AgRYzqs5PUaAAMv+nwECLPvXkB4ggICDBAiwHFRsuhoxAQKsiFFzIASiRoAAK2pKQUMQiJgAAVbEqMN2IAKssNGyYwQQQCD0AgRYoTdljwgQYPEZQMB5AgRYzqs5PUaAAMv+nwECLPvXkB4ggICDBAiwHFRsuhoxAQKsiFFzoDAL7PxhseY9/4Smzv5YK387pNont1KPO+/WwAF91LpmmA9us90TYNmsYDQXgRAIEGCFALGMd0GAVcYF4PAIIIBAcQQIsIqjxWsRCE6AACs4p3L1qmXJss5LytOlGDXp1E1xCYmKj22qWnbr8KYlSnlgjJJnfaxt/rYf31HXJYzUI/dfqFPs1p8wt5cAK8zA7B6BKBQgwIrCohSzSQRYxQTj5QgggEBZChBglaU+xy6vAgRY5bWyhfQr3wAr5/UxveZpZWqs6tmI5rclkzR8zCOa9fFRuvDmQRqSeLPaHF9RFY+qrGOPqWqjnkSmqQRYkXHmKAhEkwABVjRVo2RtIcAqmRvvQgABBMpEgACrTNg5aDkXIMAq5wXOr3sBAdawBTuV2EHatWGx5g67S4mLtkpqpckrVymhtX1sMj4cpBFjU/TyJ5eo34gRGjXm36pvn+ZHvKUEWAWTf//99zp48KCaNm2qKlWqRLw2HBCBcAkQYIVLNnL7JcCKnDVHQgABBEotQIBVakJ2gMARAgRYDvxQBARYE5Z6vAGWd1uWKOu8id7/2WPOZqX1rif5X9tphtanx8lKS1D/pFQtWttZaVtS1aOuefVOrZs3XRMmPq1ZyzdKaqD2feOVmJig2KYBAcDOtUqbnqwpMxcqfZ2Z6NdA7Xt0U+9ed+jG61rr2AouWds/18uPTtOst+fp85/2av8xDXX2vzur19W3q/flZ+vkY6vIFViyg7v1Q/qLmvL4VKUu/kE79ub88PxeCXpwwmRd2kjav+0HfT7/BT31/Dx9/sUG7andWO26X6vb74rXtefV01HmbVl79Mc3s3RT26H6rOa9enfzWLVY+6zuuytZs5b/owkrtyrRRqFeYZ9sAqyCdYzN9u3bNXPmTDVo0MCBFwi6XF4FCLDsX1kCLPvXkB4ggICDBAiwHFRsuhoxAQKsiFFHz4GCCLB6z9uiObF1cwIs9dXkyZlKHjQ3e42pCVrqSVQHbVVa3HnqOSsjn/6114SV6UpsbUKsDM3s1kj9FuXzskuf15q3blYTzzI91PZKTVq3S39l5X5dnRse12ujblTn02rnDrB2f6HpCcM1aeYH+jnPrn0B1iNqu+8dzZiQqHGvrNXuPK+pcUpz9Rg1Ry/ccpaOOhxgJWhx1Ta6d9SVWjLsQX3hi/SUuiVNvbyBnf03Aqz8a5iamqoBAwZox44dGj9+vOLj41WnTh37F5weICCJAMv+HwMCLPvXkB4ggICDBOwYYHl2VZBVK883MQfVjK5GvwABVvTXKOQtPGIKYaa2rlqoyYm36JnlHkldNXP9QvVtaEZl5V7wPaZTX8XFtlZdNVVsQjfVTR+mhl0e1jbFqNecZUrtbd6Uobm9O6j33G1S1xlavzBODbemKrZeH82XdNWM9ZofZ16XqYxlaVqurrq2XS1VWJGimK4PavvOPbrjlZ80pkdjxVT8WxlffayM6h3U8owYHVstf40CpxD+vVaLnp6kIcNm6MdTzlG3/mOVfGtrVf71c82e8qAeeGW96p3eXWNee1m3tTiQPQLrbi00h7EqyGpwpe4Z2FGNVFsd4uLUwXar2+fvRYB1pMvu3bt14YUXavXq1Tp06JBOOukkvfHGGzrnnHNUoUKFkJ+G7BCBSAsQYEVaPPTHI8AKvSl7RAABBMImYLcAy7VKOtRF0mTJFRc2FnaMQKkEnBRg9evXTzNmzCiVV7l4c6GLuMeo84Q0LUzsoMqms4Gv7TFH69N6y0RP/m1ZoiXfrMNhWupJln82Ys50xF6+qYaVFyq+zmWabl7aoIcmpIxSfGzr3E87/PZpXdh5qD7bsUc1212teweP1G2XNVNMjUq5R13lU4SCAqy/f1qgpyfdr2HPbFG77ncq+YWR6nKCpEO/64f3n9V93R/QonpN1GFMmj7td3JOgFWhsqqeM0SL08eqfTlcBokA68gPUXJyssaNG6e9e3Pmofbv318jRozwhllsCNhdgADL7hWUCLDsX0N6gAACDhKwU4B1OLzalV2gGYRYDvqo2qqrTgmwzHo2/gArLs7hiXJ+AVZME3Xq1k1xcYmK6xwwTy7gtYfXxTr8Cd+q1Nh66mOGVRW45Uy9y0jtrQ59/FMQJcU0Ua/EaXp0YCedaFmylKkVj8eq+4OLtW33Ad8e6/1LvQeNVGLcBTrz+GqqWMBxCgqwtn39lB5/aIAeeuNMXXTd/Xpy7vVq4t3Hbv36aaomdozXkzUb6IybntKnKR3l8q6BdbcWVqmhauM+0t7/trPV+RxsYwmwcktt2LBB//73v/Xbb7/J4zGjEH3b0UcfrdmzZ+viiy9mQfdgP1y8LmoFCLCitjRBN4wAK2gqXogAAgiUvYBdAqwjwis/HSFW2X+IaMERAk4IsHbt2qVGjRrJ/LNWrVpav36995+O3QpaAys/kGADLBOANc1vgajWSkxNUbfsH+1av1AzkwYqee4P2WtpSTHXvaGlL/ZQg8oVvCOtfv/6NT35yEN64u3vtWPPQW+rmvd/Qc8mXasODY7OdzQWAVbxPs0EWLm9evfurTfffNP79MG8W6dOnfTUU0+pefPmxUPm1QhEmQABVpQVpATNIcAqARpvQQABBMpKwA4BVt7wyjVScqd4/9jv2wixyurjw3ELEHBCgJWQkKApU6YcFhg4cKBSUsyJ6dAtZAFWptITqqqLoY2ZoKVbzaLuQW5bl2laQk/dOXerpI56Zs0i9W1SRUcFPGLw798+0rODb9cj767Xlj3/0aPvjVPfrmfo2FyPIfQdr6AAa99PCzR90v26r7hTCBmBFWQhw/eyunVzAtHAUVGhPuKSJUvUtWtX/fPPPwXu2lw/brrpJtWuXTvUh2d/CERMgAArYtRhOxABVtho2TECCCAQeoFoD7AKmjbo/fedCbFC/4lgj6EQKO8BVkZGhnf0Vd7NjMJq2DBwNadQaNpkHyELsKTMw4u4Sx2GLtC8Md1U1yyelblLGesWa9H65uof20Tamq4Z6dK/unVQk1q+RaW2pvVTvZ4zcwIs10dK/aGuzv33WTqtZiVVsqR1L/TStaPe0Xe/di9RgKV9P+nD6ZM07L5ntOaUc/NZxP0HnXDaBRr6ygL9t+3BnDWwCLDK/MMcqQCrbdu2WrVqldxud4F9Pv300/Xyyy+rXbvyOaW0zItNAyIiQIAVEeawHoQAK6y87BwBBBAIrUA0B1iFrXl1xM/iJFe0ryO9T3I/LGm0JPPwpd8kVzl5fHxJPpWe/ZLneUn3mLlMkjVKsv5Tkj1F33vKe4DVpUsXpaenHwHfuXNnLV68OPoKEokWhTDAMk8SXJbcSeclfZF/yycslSexgxTwFMIjXnjp81rz1s1qsvoJ1ct+CmHe19S54XG9NupGdT6tdrGmEJr97PllsV56NElJTy0/PBjWv/8apzRXj1Fz9MItZ+morD0EWJH4/AV5jEgEWGZtvFtvvbXQ8Mrf3CFDhujee+/VySefHGQPeBkC0SVAgBVd9ShJawiwSqLGexBAAIEyEojWAKs04ZWV7lJWF99ffSsuldznZgdGkty/SbpQ0o+SBkiuYZJOycH3TJI8T0iqK1njJOvSEBYmxAGWJ9UlzzS3tMTXRqu95ImVZMI8GwRjBFgh/GwVc1dZWVm5ngBWnKlEgTfr+R123rx5io01H0SHbSENsHx2W9KnaXTKTC2cv1wbzL9o0F6dOscqPiFevVvXkjJXaWbCKM1KX6b0ddu876nbpJO6xQ3U0IGxalLVkmvbZ3p87ATN++AjLfvlH2Uekuq27KxO192rYbderJb1ji72Iu7+yh7Y+bO+fG+mHn/8NaV/kaE9tRvrnMuuVr87btX1nRrqKPNCAqyoOhHCHWAFro0XTMdr1Kihl156Sd27d1elSpWCeYttX5OxKEHxCalatHab1KCTnk5LV3xrG3bH49bWuT1Vr89b8j+EIiM1Vh36rFTsgm80rVu0rYW4Qk/V764Rv96sqd8P1VXNj1P1ELITYIUQs4x2RYBVRvAcFgEEECiJQDQGWKUJr4yBZ1cFeWpn+UKdmS5ZfdzyfZOS9Ikl900eaaOks7NHbZ3l+5Fnr0ueGz1Smke6RbKGSFbTkqgW8J4QBVimf+qWJc/yAo4z2ZIrIeeJTyHsQUh3FdIAK9GSe6JH2hId4V15HoFlpg6aKYQFbWYKoZlKyIaA0wRYxF3KuzZeMJ+BHj16aOzYsWrZsmUwL8/nNZnasuINPXnvjRr/P9+PK1U+Wo3OvVrXDxuhQVc01jEl3HPI3rZzoeLrXKbpaqAeA3urbkZdxaclKJT51c7vP9CcGU9pVupifbdptyo3OFeX9hmg2+O66/wmx8k3yTgEW4EB1jJ1mbdKc2J9f0FbP7OTTk27U5vTeqteSQ7rH2HaY07ufRweeTpBSz3BrBFIgFUSfie9hwDLSdWmrwggYHuBSAVY7gzJFcTSOKUNr/wFcZv1sT6RLBNEPS6pmu8nnnGWPJM90o7sV6ZJrsvkDbisdZJ7gOT5SDILxVt3S57jQljiEAVY7m6SFvnaZQ205Im3pCpuWctc8oxySwuDsw5hz0q0q1AFWIGBJQFWcKUo6QisUaNGafRoMwe28G3kyJEyr2VDwEkCTg+wClobz0wPbNCggSpWrKhNmzZp48aNOnDgQK6PxvTp03XDDTeoevWSjI3xB1i36LHvT1Lj1vVV85892vzjCm2r0EDXTP1ML/6njKcoBoQx69N6K4jboWKcOge07o0kDRg9Ux99m6W6TRrplLrVlPnzL9rw21a52lyvhOHDNejqZqEJ8vIJsI5sbIZmdT5VcbVmE2AVo5K8tGwECLDKxp2jIoAAAiUSiESAZfWzlJXmUcXFkruQPzeGKrwyEO4US/qvRzpOcv0gqWZ2gHWFL6DSmZJ+kFwPWlI/j3Ss5PlY8iRK+lKynpas231TDz1/S3rb97RDz4ps5i7m55asizxS9qwHz8+SJ9kXnOlRydVG8oyw5FnskS6XXJMKXgPLOx3QjBQzodQcl6ze+S98Gzg9UhMkl2lvEZv3PSluaX72CzuZ91lSt5xRWm7z0LLsP5G69kvuVEljzGPIJKutZJnXd/fI86FLnolur5F3muWdLllxHinGty/rR8l9r+RZKFnmKWpnWvI87ZE+lGS+P9xnyepjyarqVqEBVpYlz3pLnmfd0iuSzOyo0yTdIbnulPx/SnavdUnxOdMoAylcAYPQvAbJ7sPBn7pKFUZJnqAf71aUcu6fl8cRWPlNDerbt6930XbzxXXWrFmHEWrVquUdhWX+yYaAUwScHmAVtDbe4MGDNXz4cNWsWVNPPvmkxo0bp61bzS+dnK1FixZ64oknZNbRK/7mD7AG6Y2s2/T4uw/poiqbte6tB3VNXJp2dknWorT/qMrsOJ1190ma99t9ssbcpfgpixS/1COznNyW9BQlJU7WrOUbVbdJV/UalaJRvZvKXMEy16YqMWG0Uhet1TbFqGnXWA1MTlZ86ypal5qogaOzpwXGNFHX2AQlJ8fLzPA9vG1dpITecZqyJKDP2evY5dq3eX/vUUpJ7q2m3uFSX2hy7Ys097/z9erFGXpk2COaVe0OvfFUX3VqVNt/6yFt+1Cjbx6mae9XULeJ4zWs/4VqWrOCtONrvfLQKE2Ytlg1r07UAyOHqc2OqZo8fpBe/auPEh56SgkdamnHD2maOaGnkr+6QLelpGlM+yz98NFzeujxuUr/eLW2HlVdp/87TvdOGK87z60p5RNgbU3tkTOlMPYfpSXGKX7KEu+vbt82Qe/PW6tLe86S1XeedsyM9doqM10JVbtoivrqzZ0z1TOXW6pi6/XR/GBGYO1cq9TRCRqVukjrtjVQu5sHaty4e9TlpIqq6Mo7AmuzXm/fR6Mb9NODPfZr9ZwX9MrivarXeaCSRvdT93NOVI1ifAiZQlgMrCh9KQFWlBaGZiGAAAL5CYQ7wPKGVzOzk4RaKjDECmV4ZfppLZOyzjdJlqRvJNeZknuLpAvM6sMmSJFkFhC/RHIlmbVlJM/TkudReUMva4JkmZBqky+UcpsF4vfmETxesuIla4SZryAdDrBM2NU1O3QxI6XqSBorueIKCLAWWnJflm1URCjlSbDkmZIdFu2sIKuWb6pkQZs3yBtUwHTCgGMFBljqpMPrauXar1lgfaEkE+gFbK4JlnSrRzIeAQGWTpe037dY/eHtBMlKkKzBkudQAYu4H5Dcn0m60SwClKdnFSTrAsky7agiuc1SS/5gLs9L/QFWYQaueZLCsFxTeQyw4uLicoVUhtss2G6+cJoF3c2X18DNhFtmMWc2BJwi4OQAK79rgL/uwQRY5rVm5Oadd96pmJiYYn5kjgywLjlmp35d+oJu6fSQvj1lrN7+4QbVnH2Dmt2+QhdcUF+ffOJ7QMKEpR4lZCaoYZcpUqe+GhXfTZkLUzRo1nJ1m7FeC+J2KaV1Gw36pr36Duut1nUztGzaMnVIXaYEpah1m0Fa3b6vhvZurboZy/T0sg6auyzP1MCMhUqZNlMzJ87V6la9NDSug+o2jVVC03R1a3SLFqm+2vftoqZrP/YFaD1m6PM3+6qR60ul1L5II089S2duW6Fvtv6j/Z0e0QfP3ZIrwNr24TDdNOx5fVj3bj0/+k7dfE6M9zkxZtv8WYpGjU3W7ENXaejwUbq9xqtFBlgPnXdQP7z/vPpP/Eltr22qYzO+0jtz39Kqf67UM6tf1w31j1wDK1eA1XWDZk5MUUpgf9VUPeKraHrDLpq4LSesykxPUNUuU3KHWv7qBz2FMEMzuzVSv0UN1GNCsvrUXa6Z90/RB+5BSls9Tpcev0bPNQhcA8sXYI36aat2V2+qjuefJlfGJ1q6OkMn3PCYHh5yu7qeHnyERYBVzNM1Cl9OgBWFRaFJCCCAQEEC4QywcoVX/gbkE2KFOrwyh/JOKzsuS8qSXK9b0pUeyYwAi5OsjpKrr+QeIumAZJkRPu0kT0/Jkybp9uz1r06XPNMkj3ly4O+Sy/z7eyy591rSVLc80yW1kawHJSs2IMB6LruzJri6TlILyxugqZ0n11MIXXska5WUdV7264MYUeWdGmkWbTejqI58CFyuMptpm2qU/a96SUrx/W9XSvZ6UWaA2VLfKKRcAZZ5zQJLnvYu6UOPPHFuaV/2fiZKVp8Ksta75b7DI62TrCt8gZ9a5AmwjpFcgyT1c8mz2SPPJI9kAqNLJcvMQmtVQIBl2j3Sknu2RzpH0mu+da3c30oy0yd3SXrGV0NvrQNGr+WdQpjLIDCwMyPlTHAZI7nM8UK2OIivTeUtwCroy2lhAZZx8P+cKzACThBwcoBV2Np4wQZYxx9/vMxUwp49exbz45LPCKzKm/T9G0m68M5FqnTFVC198VL9M7uPmtz+gSq0ukfvvPeYunmXatqq1Nh66jO/k2auT1dfM7fPPyqo0wytT2+qVOs8Jam9JqQvVGKngCFC2Q9usNpP0McLE9W5sAGn+YQxy5Lr6bykrdlBmTmwvy0xGv/5Jg3psEJTj71ID+7ao389tFhPDDhfjY+pdDic8iOtfa27+o96T/sumapJCX3VuWFO+LJ/3ZsaOXq8Jn3dUHclPah7my/W80WMwHroomNz+R/Y/as+GlFfV8+opXEf7dR/zy0iwOpdL+cJqXlGT61Maa2zB32juHk7NCO2qtITqqrLlBgNXZyhiZ3z/CIu7Cmr3hZmr4G1LFl1z0vS9oGLtT+lsyqb9bdmddGZd3yivm9s1qRLf9WLp10RsIh7doD1xVGKnfG8Bl17tur//raGxj+o59c21z1TknR3bAvzt8ygNgKsoJii+kUEWFFdHhqHAAII5BYIV4AVGF5ZJqiICxgJFBBihSO88vfQfbWktyTXPZY01iPPI5Y8KR5pqGTd4JLnao/0tcc7Ra1CK8l9j+RZLFUYJyneN3jLM1TSC5J6+kZaWW2yQxMz3fBBSSsk6ybJeiZPgNVYsqa6ZHULmAqYdw2snySZKWxmjH0vyWWm7RWxHQ5GekguE7YVsuUKdtbnrIuVa82o7FAnV4BlnmJoRpxlb+7a2aFRB8n1hqQTfT9wm6l8c3zTMc06Y96phoEjsIxLomQ1zzabnG12omSZpz/2KSDA+lRyd5R0gnlKpCXdlz2CzIycG2HJ/YTHGwy6Zmfvt5AAqyCDwGCr4srCp7YWVZP8fl7eAqyCpgYVFWCZ0VnmNWwIOEHAqQFWUWvjBRtgmc+ICa/MdMOzzz67GB+ZvGtg1VONPZv144rf9E/dVuo7c4Ee73SUfprdR83uTFenZ9boY29SZbZlSvYGVPltJiBJUOWUbrpskG86XN0mvTRsWooSOtf1PgU0pVs3DVpifhKjM3olanpKgsyPjtiOCLD8YZVvFJiZxmi2VckxapO0XVe98qte7bVJTx13sR7c1UfP//iwrmxcS1WtI3cd6gBr7PkurV/+umY8+aze+9+XWrXJd8wqNUofYGlV9qi1vvP057RaGm2mD8YM0+KMZOXNr+Q3i2miTk0DUbdq7ZJ12pYdYDXMnr6YXwUvf36tZl//l14548p8Aqx/678fJunGixqo1oHvNPP6ezTxjRN09XMP6N5bzzJ/3wpqI8AKiimqX0SAFdXloXEIIIBAboFwBFh5wyul+6a6uc1son7Zxzd/qZwsyYzQMSNqzDbDN83ObEcEW3lClWDq6J5iSUM9ss6QrCWS+2JJq6UKr0qeyyS3CaDMMQdbUnOPPA/J+2Q/63nJ6itZGyV3kuSZK7nukKzhkucU35E9X8v7eplA5yrztEN5F4b3roFlRmCZoOt9yRX4J7zAAMuSLDPqy/8kwf9zydU0/3WvAvtarBFY/lFGxjPPLMK8QViuACvPSDB/gOW6y5LG+NYLM5t3BJsJuprkH2BZt1iyTADYxHdwj3E362pl+ka46eZ8AqwekntBEdP6zNyIqyTXm9m1KGwEVoBBQZ8Z/yi0YD5Twb6mPAVYZhpgv37+Eze3QFEBlve0njFDZvohGwLlXcCJAVZ+a+PlrXNxAqxq1app8uTJMlOQK1c2Y2mC2Y58CuFR1erozItu1T0PDFG/9sfLnbnbG2A1vytdV836WW/28j8Xzx9g9dDkBQlqnWsQUF217uxbB2vXqjRNS05UylwTnMSo9+Gn7e3UqrTpSk5M0dx126SYXkpblaoeeUOsUgVYA/XyxqHqesox+Q4WDukUwuTp6ntorm65NkU/teihEclD1bWZpRWPtFC/EIzAMgtr+qb79dKMGXXVr98UtZq8UqsS8lkgNcgphP4Aq0nCDE3rkXt5/GNOP0dn1VurZxrmNwKLACuYs8sJryHAckKV6SMCCJQbgXAEWHmDqsDF23P9LFAxxOGV2bW1XMoyU+4ypQrvSVnmO/g2yfW1b/qa+1VLesAjXShZdS1prse7FpZlRmC1l6z1YQyw8n6CghyB5YmXb+qi6V8Ra2C5QxxgKdGMiJJ8K69GIMAy313Mwu15x/G7JKu1Jeux7GAs2ADLrO2Vz1YxhRFYHk/+66QV9eXUBFP+RdwLWu/K/HzlypUs6F5ufmvQkYIEnBhg5bc2XmkCLPPef/3rXxo7dqwuvPDCID9s+ayBlXsWXCEBln8kVCsNW7pMyR0Kn0++a2G8al823Qybksc/bMrbyp1aGF9Hvh/ljKg63IFiTiEc8tHPGt/pe009sQiDuAAAIABJREFUzkwhLDzAylnE3a2Lxk1QUvwlOvPY/BdxP3fHC5o8frBm/H6p7hn7hO6/sKp+XjxDD996n+ZVv0C3jX1CsTueU/uhC9T8nllaOfJfytqxRq/e1VLx75ZgBJZ3GmZcrqcu7kqLU+2es7xrnW3bVleTV65SfvnV4RFYRS3inj2FcFuPOcr/CY/5L+I+Kp8phM9tPFeJjw7RnZefrqOD/PQxAitIqCh+GQFWFBeHpiGAAAJ5BcIRYHnDjTyjrQoNscIQXpk2eKfKnZjlXUjcTCN0z/LI6i5ZZqH2epL1neS+UfKYp3Yf733gj2+q4H2S1Vjy/CV5Bkt6tgRTCIsageUyTyq0VKG1pawu2SOvJltyJRSw4Hp24YJ9WqG3/4HBTnGmEBYwAqu4AZautWTd78mZdumfQthIssx8DbNumFlI/x5JzSVrlGRdYxZOyh4tZ/5APkZy3Vb4eVvoGliBn8MtvrW0IrGVlxFYRU0NCtbSLM5s9sWGQHkWcFqAtWrVKrVpkz2vvpDCnnLKKWrQoIEqVqyoTZs2acOGDTpw4EChH4WkpCQNGjRIZl2sorfSBFhS5rJkdT4vSctjOqlvXKxa15XWr5qj3d3ma2bvDCU3TNDanr3VuoGUkT5FU+ZnqP3T/6dlrdPUIGGtYnu3UiNtUHrKFM3f0F5P/98yxTfN0+r8RhNlpKp3hz6au62BuvaPVcOMNE1ftEFW+8n66n8D1dr1pabUDiLA0gGteyNJA0bP1EffZqluk0Y6pW41Zf78izb8tlXHnHeLhgwfrtsvb6RKv32mGY+O0eCUparZtK3+9a8TtWvlh1q08ncd3+IC3Tb+SV3/10xd0+85/dHkUt10U2tlffWu5r6+TH8XZwphZroSvQu2x6hT3zi1UqYuS07xrTt2+GfmgTcztH5h7oCrsNDP+7PDa2Nlr4GlDM3t3UG9525Tgx4DldC5obR1nT58q74GLxuk84/5Xs/Wz2cR9y/WKCOmmS5u11za/KVW/t9GncQi7kWfbuXwFQRY5bCodAkBBMqvQLgCrKBDrDCFV/6Kuc3i5WbhcDNqaIcJr1yy+rmlYyTP3y55unqkpTmhUYWJvkXcPWbdJxMCPZ89LXBr/ou4W2b9p/st6XpPzlMIg5lCaKbB/Za9OHnASKkip7NlSm4zQt7/bOoJUsVu0qFakmutJc9CqUKcR+7WeRZmL2gR98UueTq7cy/iHqoAyyzifrekW13y/Jy9iPsHxVjE/UWPVF9yvWRJHT2S+b8/K8j6X5bcZwRMuQx4iqM1xyV1s+TZ6vFOycy7kL01LefJje61LmmZ+/C01VCe5eUhwMrIyJBZmLmwrVWrVt6RVWak1jfffFPoa9evX+8drcWGQHkVcFqAVdDaeKGo7xlnnKHx48fr2muvDWJ3pQuwzAF2LpumpFEpSlvkmyLYpFM3xSenKKHDLqX2jdOoRUtkZgiqQXvFxU/UyMROapiRqri4UVroXY9Jqt++r+6cOEqJnfK5zhUwHS5zbaoSE0YrddFabYtpoq69RyklubeaegeCfaHJQQVYPqKd33+gOTOe0qzUxfpu027vs1fqXzZAwx5I0i3nn5Q9/fCQ/vj+fb34+Cg9MneNPCdcqBvvuFpnV1iqKS+s0YUpb2p4y9/1/lP36b6pH2vboZa6csBgDb7odyX1GKluwS7iLiljUYLi+0/Rog3GZpimLUzWZdkjuJclWjpvotRjzmalmUXf89uCnELoXT4sc63SUpKVPG2Wlm8wdWqnKy4ZrIenxOqMaqs1Pb8A66c2umHICdryyTy9881BnXblUD048Hp1aXacjgriU+d/CSOwioEVpS8lwIrSwtAsBBBAID+BcAZY5niFjsTKyFlYPBRrXuXXP/dU3zpYZhSW2Sq8LXnMWljZswQ890seEzj97vu59bJk9TYv9P3/HrOulVnrapqkvXmOcLxkxfsWd1elPIu4FzUCKyDAMlMcPZ2z18MK4ql41jIpKzYgxMrTrMAQLNfopLxAgU/l2+oblebdQhhg6ZBynmBo9m1GvpkRbgMlz6ECFnE3A9K+kTx9JY958mDerYpUIV3ytM+ukRlpVzvriJf51/0q1CCIxfBLcuUoDwGWWUzZ3JgXtgWzBpb//bGxsZo3z6TJbCEVOLyQdBXFzVumGbERGmYY0k6UYmeBTyo7YlpXKfZbgrc6KcAqbG28EtDl+5Y+ffro/vvvV4sWLUK1S8fs5+D69zUlaYwee3eLWtw+XCMG3aR/n1IxOvqfuUyJHc7TxG/66s2dM9WzsKc3hqXFqzWrfR+N+iJgDaxSHIcAqxR4UfJWAqwoKQTNQAABBIIRCHeAZdpQWIhlfh6u8Mrs2/pCyrpIknmC3XGS60spcDEGz4LsaYJrJKurZI2X1Da3nGe/SzILiz/rkWd59mitjpJ1q2R184VXZvP8XIxF3AMDLL+BfyZGEOtheadHTsuSzBS5db7jWybQ6WBJo1zeRfP9m9fXzN6an/1vOkmuhNwLpQeziHtxpxC6Eix5zBMoX/dI6dnrWf3XkmWmFlZ1y7O/gADL3/A/JPdzkjVX8qzyOZs+enpI1m05I6m8fV8muRNyQkBdludJima01US3r46+B0Z5nwBZIcE3Ai3Um90DrPT0dJnRFUVtxQmwzL78ry9qvyX7+U59/8HLennmHM354Ftt+N2lExqfrfaxPdTrP1eqa6vGOq7w5W1KdtiyflcUBThHUOz/Qz+/97BOu3aSatQ+QWMWbdOgc3O/auvhJ4j1UOqWNPUqbv4WRf13SoBlRlyaqYNmlGYwm3G56aabVL16dW8o/tJLL2nHjh1FvrVOnTp68MEH1b9/f1WpUh5P3iIJSvWCfT+9radGjFfKO3/qzNuTNGLwzbrgxDIMsbYuUvKoeUpfkqZFa7ep/YSVWpLYWsEu1V8qjFxvJsAKnWX52BMBVvmoI71AAAGHCEQiwDKUBYVY4QyvHFLCqOqm9aPkvlfeqYx5n0IYVQ0Nc2PsHmCZqYPBfDlt3br14SmEZj2cojbzerOge+i3bfrskXs15PG3tOzXzDy7r6ELbnlQI4YP0qWNyvDLW+g7nb3HTK2bN1MLNlRRh7g4dYj4aIZCOkaAFbaql3THdevmJIQFPbyhqH0Xd2284jyFMO+xL774Yg0fPlydOhXwFI6iGsvPo0fAHzY3aK++CSlKSejgfyZMhNtIgBVh8Kg/HAFW1JeIBiKAAAI5ApEKsPILsTRZ0iDzfOrs9sTlHjVDnewnQIDlq5mdA6yUlBTv4snh2iZPnqyEBDMEMHTbgdUzdNuACXrtsx91cve7NOjuO3VRfemP9Yv1wYc7dPy53XT19e0Pz5IN3ZHZU6ECBFhR9wEpbYBlgm0z+sqMwgp2K02AVbVqVe/1aMiQITzJNFhwXhdRAaYQRpQ7LAcjwAoLKztFAAEEwiMQyQDriBArsEuEV+EpcIT3SoBl7wDLfCk1o6+K8+W0uB8xs+i7WdDd/DNU284lY3T94Ke18KuTNeCJSbrv1s46tWo+e9+8XCmTxmlQyjs658pbNfKx53TFaeZ1O/TzezOV3P2/eu7YpmrT73G9P+kSHXc4gJmmWsffo7Qf75br2SEaPPUVfbEhRmf0StSsaQlHjHrakj5No5NzFoRu2jVWA0clKz5weNSyZFnnJUnZj5m30hLUPylVi9Z21ssvVNGNt8yS1OqIR8xnpieoapcp3nmwQxdnaGLTNMXW6+ObIRy4BtTOtXr7+Uf15IsLtXjNZh3IOlGtL+6inv+J043/OU8Nalf1LfX390YtfXuWnp/5ut5e9oO2Vz5JrS+4VnfdFafYjk11vH9+z6bP9fCE8Ro2P0s33jdaY6+Wlr+QrAnP/6IqLW9WyuzB6pD98IvD8qUNsLama9qoZKWkLfIuoF23SVddlTBKE+MDRm4UMIVwWbIlw2sNXKz9o6ro6YQEpcxarg0xTdQrcaamhWH0hxOmEAazNl7eM+/8889Xx44dVblyZX355ZdasmSJ9uwx8/qD25o1a+YdhXX99dcH9wZehUAEBQiwIogdpkMRYIUJlt0igAAC4RCIdICVb4hFeBWO0pbJPgmw7B1gmYWZzX/DvcXFxcn8N1TbgdXP6NoBD+vtz37Wad2HaOTIe3X1uSerWt4DlDjAekyVKsWoXbsT9fnnX+Xaq9VqmP63LFkdvEv0ZGplSjddNmjJ4QeF5rw4Rr3nrdIc/yLr/gBLfTV5cqaSB83Nfs8ELd3ZVNNq95Q3wpq8UqsSWmfvJlPpCVXly6+GaXFGsjrvSs0nwMrQrMtP0x3vZ+lA3ucbnD9e786K10WN66jyjk816Y679fh7q/Vb9oMuDrf3mLbqmzRGiXderqY1JfkDrCc36Pzzz9YZp6zTm6lfardaqmPsSE2fd42a5vUuRYD1z8oUdb1skJb4n7gasO+YXvO0MjXWN6KuiABLMZ3UqeESLVmeu3Gthi3V8uQOIV1/p7wHWMGujReq8zpwP2YNrZEjR6px48bh2D37RKDEAgRYJaaLmjcSYEVNKWgIAgggULRAWQRYuUIswquii8QrbCdg5ymEtsP2NvgXvTXsNo18frFW/Snp2Bbq3OsODRpwrS5sXk81/J0qcYA1SXJVUbVGvTXtjQm6sr5b6+ffp8v6+UKnbjPWa0FcQyljpro1ukWL5FH7CUu1MNGMFNqpZcnddF7SFzmhkwm7DgdYvsbFdOqruNjWqqumik3orIzEBuoycbusVo/p61WD5I2wMtOVULWLTH51ONjKL8DZmqqrT75Bb2W5demT32jOLWeqZpVD+m3V+1qR2UYdW9ZT7epZWjntGt2W/L6+3tBIVz84VkNu7qz6B1Zozvixmjbvf/rp1Js1fEyihvVsphqHAyzzJASpat3T1ebi7rqkbQs1a9xGna882/tshFxbQIBV9OcqcBH3DM3s1kj9FpkHN0zQ/xYmeke57VyWrMvOS9Jy/+izzlWKDrCMba8ZWpASq1OVoXkJXdVv7nZJXTVz/UL1bVh0y4J9RXkPsMzUwWDWugvWqzivi4mJUWJiYsinHxenDbwWgfwECLDs/7kgwLJ/DekBAgg4SKCsAixDbC3OfgKc5SBwuuoIAQKsMijznl/0wZThGjH9LS3/da+5wsiq00I9707S/Xf1VNuYKlIpAqxKxxyrS59aoXduaGCeOSppuZJjzlOSyUJ6zdPm1Fj9kxqrRn3MZL4eSl2fpl7+cCQjVbGNzDS/GE1YuVWJJo0KDLB6zNYv83qroWXJfznMTB+mhl0e1raAaYQ50wcDphbmF2DtXKi7ju+uZ7PcOlS/u4aPT1L/a9rpxKqV5Dpcmu80veNNmvDpKm3sMUFzx96mq1se551WuPGDURo8eqpe+7y++o4YraShV6rJ7uwphE8ukBpdouvuG6upA9rpuIA2H1H1kgZYh72kHnPWK633YUilxjaSIT5hwkptM5BFjcBSJ834JV1xjbJbtyxZdc9L8gaPvedtyRkRF4KPbHkOsMzIzH79+oVAqeS7uPzyy72jsNq1a1fynfBOBEIsQIAVYtAy2B0BVhmgc0gEEECgpAJlGWDJLQV8myppF3gfAlEnQIBVFiXxyJ11SH+vX6H3X3xUj7y0SF9s2COXq5muuW+EHri/t1rtK+kaWJNU+ZjjdM0L3+qVa/xPcduiOVedqOvfNnnVHG1O662NEyuoQ6LvwlbpqEpy+dMoj1sHDxyUW5YmLHUrsUPuAOvKV37T/OtPOhxeefXcX+vRNm01eLWls6es1Ip7m+iT+2qo0+Qs6ZLn9POiW3Wq2X++AY5bP798vS689XX9etAjV4UKqhDTWJf3H69RA7qpeZ1qqrTjAz1w+b16dvlanTr0BaXc00sdTvZNutz9xRMaOPwxzfpggy67+2ENTxysfyknwGp4cV8NGpeie9rXyt3mvGUPCLCq1TxOg2Z/p3va5n7R9rdv11m3exGVuiVNvQzv8omq0CHR9yui0lGqlAMp98EDOuiWrAlL5TaQRQZYgSO7JG2Zox4nXq+3vGXbrLTe3omIIdnKa4Bl1sQ7/fTT9ccff4TEqaQ7MQu6DxgwQGPGjJH532wIRIMAAVY0VKF0bSDAKp0f70YAAQQiKlCmAVZEe8rBEIicAAFW5KzzHsnjzlLWoQP649vX9fioR/TcO9/pQNcBGj7iAQ1ulFHCRdz9AdZ3euUa/0S5rUqNrecdDeQPsDZkLxwunaJzL2iQ7/pK1z/xqe7MMwIr/yDFra8mtda5Q79VhXOm6OtP2+jFmh316AHp4md/0qLbGvvy//9v706As6jTPI7/8uY+zC0h4AUoBHUG2EIQWHHXExYZQIYMgjrOUuAolIK64IGOw32s6IjAyLiMCGQQQdYFHJnFXZRBQMQSCxCBlWuAiAmEXJDkffNudUeHiCCQvG9X/9/+dhWFlm/3/3k+T3chv3T3e44Ap9Z/SoVf/kWLJ4/VzKU7dLA6qKjYeOX2mqFFLw3Sjcmb9Jtej+i1TTvVaswf9dKIfHWuF2CNHDtDr//3PvUcPlXPPDVa3eoFWC1u/6Uem/A7jehkvRzrR7YfvAOrUCM7fv/zhW/2VbN77DjpdIBV7+60yzv+o6603y92xjZoptZZkBcbYNX7PAGWdSfh+TcrwNqwYYOCwQv7/PmP2LBPREVFKTc3V23atCHAahghe4VBgAArDKgOH5IAy2FwlkMAAQQaI0CA1Rg99kXg7AIEWA6fGTU1UnS05Dv9gFwwsFurRz2tCTOX6qPbh2nss89qXKtDfw+wrv+XB/TkC3M1OC9WqjqkT5e9opGDp2jdWb+FcLpiUjLV9d8/1AcPXvftI4SbNa15Z405LEUNfVfFc3vq2LyuunrIBkm99PruAvVr8kOHuKRUJcR8/w6scwUp/l2/151tHtb/xNym1964Q+MG/ZsOaKAKvl6ke5p82+s5Ahxr5WBtjaoqK3Xq0BYtnjJCY9/apWPVXTRpxXwNvblcKwfcr3Grt+pg76la/Nsh6nt9lh2KHVwzTk/8dqaW/DVX9z0zTk+P6au80tN3YDU8wPpao244I8Ba3Ee5ZwZYX81Tt1ZD9JEl+cddKrj7B2/XkuKSlGpBnjfA6qDfbf1Uj/z023U/nqbLOo/RIUlD3z2muT3P/OrEhp+7kXoHlhVc+f3+hsOEcE+fzyfrlxVmsSHgBgECLDdMoXE1EGA1zo+9EUAAAUcFCLAc5WYxjwgQYDk76D0r7tO01QFl5/XWLV06Kq9pvCp2r9DLU+aoYPV2ZfQdpWefHatftTykN1+YpKcmLNbBVt3Vd/jzmjq4rbTnfb0xY5ImL9uh6nMEWIpOVNp1/6rZr49Rrxa12r7wCfV8dKlKa6V/fnW31gy7WsEvZ+u2vBFaq3i1HjZfb0/P13WplkWVjv7fFm3cEqUb87vIzrXq3WV0zjuBAl9qzm15enhtnPJ/0UdL33xLwQF/0pHFA5XzXVZ3tgDn6EdaslHqcFMHtUpPlC9Yo4MrRummB+dr/9dtNW5VgR66tZn+tmCohkx8R58Wttbg557XqEHd1Lz6cy2bPl6zlnygLy7tr9HjntaYge2VedjBACvwpWbflqfha6WE1sM0/+3pyq+DVNXRPdqy4VOpS766WpDnDbBi1WrIf+jN3/TRNcFtWvB4Tz2ytFS1+ifN3f2+hl59OvRs7FkbqQFWY13YH4FIFiDAMn+6BFjmz5AOEEDAQwIEWB4aNq06JkCA5Ri1vdDOt3rp4Un/q0/2JysxIV5x0VGqralQ6YlyVWZ2072jn9bYobfqmoQybXv7BU1+brwKdscr8ZJ0ZabESTVxiolKVFL6QX1xNFcdfvWy/jL9dmXXewTO54tW5qWXKegLKDlWqi4rVuHxk4pqP1rvrpmoHlkxkr9cW+bcox6PrNTx5GzlZKUozs5HggrUVOlU95e1tWCA7LcuXUiAJb8OLxio5vcvU1JSkiork/Tgil2afVfG6dcHnvVbCN/Sve1H6sP4WEV/+/6owMljOlJULn+Hp7R84Uj1aJ2l6JKNmvf4Q5q2bIcKfelKS0lQTLBa5SUlKve11s8efVZPDu+jf2gaJ1+9byEM+x1Y8qt8yxzd0+MRrTyerOycLKXUQSoYqFHVqe6a+XmBfm69L+u8AVa2cq6UfIEkxapaZcWFOn5Saj/6z3p/Yg9lWnfDhWgjwAoRJIdBwCABAiyDhnWOUgmwzJ8hHSCAgIcECLA8NGxadUyAAMsxanuhin2rtXLhf2rJirX6cMdeFZVXKa15G/3klruVP/Bu3dXtOl2emqiYqFpVl+7XZ+8V6A+vztc7mw+oMr61uvQZqF/26aDqjS9oyKuHzhpgJaVm6NHZb+qKzS9o2sLV2lvcTO36PaBnxj+u3tdmKuHbJ5pqyo5o+/rlWjh3vt5e97H2Wu+9zm6hTu07q9fDE/VEv5ayX5V+QQGWVHt4oX7e/D4tt/bJfkgrd89Sr/R6j0+dLcCp/Fizho5VwabPtGlvkQK1QWVe3l6de/1C9w0ZrB4/bab0uGhFBatVdnibPvivBVrwpz9rzaf7dCwuR23b3ar8+werf88b1aZJcl0I52iAJammTEe2rdfyRXP1xtvr7D6kbLXo1E6deg3X5Cf6qYUFed4Aa7QKPmitLVMnav67e1XUrJ36PfC0xj/+M12bmfDjL6G/yNOYAOsiwfg4AhEgQIBl/hAJsMyfIR0ggICHBAiwPDRsWnVMgADLMWp7oaD/pCpOlOpEaZnKTlXLH6hVdFyCEi/JUGZGqlISYk/fsRQMqLqyVMeKilVSWa3aqHilpGcqMz1BtWVHdaCoWgkZubqqaYpi6t2BlZCWrUGvb9VL3QIqLD6hKn+sktKz1TQ3S0nR3+83UFWqY98Uq6S8QlXWq4Ni4pWclKy0rCbKSI6pC00qv9G2r762d0y9PE9XpJ3jVqBAqf72xQGVWB+MuVQt2uQouf7rf/wndGDnQZVa/z2npa6/NEkKnlLJkaMqqahURbVf1ru3Y+KSlJyWoazMNCXG+k4HN0G/TpYd1/FjJ1RaWSW/L1YJianKzMpQanK8Yr5bq6ZSRUXfqLC4THEpGcrKaaqsxDMaP3PstQFVl3+jXQeK5IuOUc5Veco648vj/CcOaOdBq/pUXZ53hb7HEKhS6bFvVFxSroo6SMUnW31kqUlGcl1tZ+vfzgej1OUpq6B7tPTwXHX3H1HxiSr5Y5OUnt1UuVlJOk/1F30SE2BdNBk7IGC8AAGW8SMUAZb5M6QDBBDwkAABloeGTauOCRBgOUYd3oXqBVjxqdnqP6/+txCGd2mO3jiB0wFWvW83bNwhz7s3AdZ5ifgAAhEnQIBl/kgJsMyfIR0ggICHBAiwPDRsWnVMgADLMerwLkSAFV7fMB6dAOvsuE2bWi8Oq9usbxdkQwCBxgkQYDXOzw17E2C5YQrUgAACCFygAAHWBULxMQQuQoAA6yKw3PxRAiw3T+dHayPAIsAy9uSlcKMECLCMGtdZiyXAMn+GdIAAAh4SIMDy0LBp1TEBAizHqMO7UG2NThbt0/rP98sXE6sm13bR9U3iwrsmRw+JwIl9a7R5j3WoS/WT7u2U48DYeIQwJKPjIAgYJUCAZdS4CLDMHxcdIICA1wUIsLx+BtB/OAQIsMKhyjERcLcAAZa750N1CIRDgAArHKrOHpM7sJz1ZjUEEECgUQIEWI3iY2cEzipAgMWJgYD3BAiwvDdzOkaAAMv8c4AAy/wZ0gECCHhIgADLQ8OmVccECLAco2YhBFwjQIDlmlFQCAKOCRBgOUYdtoUIsMJGy4ERQACB0AsQYIXelCMiQIDFOYCA9wQIsLw3czpGgADL/HOAAMv8GdIBAgh4SIAAy0PDplXHBAiwHKNmIQRcI0CA5ZpRUAgCjgkQYDlGHbaFCLDCRsuBEUAAgdALEGCF3pQjIkCAxTmAgPcECLC8N3M6RoAAy/xzgADL/BnSAQIIeEiAAMtDw6ZVxwQIsByjZiEEXCNAgOWaUVAIAo4JEGA5Rh22hQiwwkbLgRFAAIHQCxBghd6UIyJAgMU5gID3BAiwvDdzOkaAAMv8c4AAy/wZ0gECCHhIgADLQ8OmVccECLAco2YhBFwjQIDlmlFQCAKOCRBgOUYdtoUIsMJGy4ERQACB0AsQYIXelCMiQIDFOYCA9wQIsLw3czpGgADL/HOAAMv8GdIBAgh4SIAAy0PDplXHBAiwHKNmIQRcI0CA5ZpRUAgCjgkQYDlGHbaFCLDCRsuBEUAAgdALEGCF3pQjIkCAxTmAgPcECLC8N3M6RoAAy/xzgADL/BnSAQIIeEiAAMtDw6ZVxwQIsByjZiEEXCNAgOWaUVAIAo4JEGA5Rh22hQiwwkbLgRFAAIHQCxBghd6UIyJAgMU5gID3BAiwvDdzOkaAAMv8c4AAy/wZ0gECCHhIgADLQ8OmVccECLAco2YhBFwjQIDlmlFQCAKOCRBgOUYdtoUIsMJGy4ERQACB0AsQYIXelCMiQIDFOYCA9wQIsLw3czpGgADL/HOAAMv8GdIBAgh4SOCdd97RqFGjVFlZKd0u+ZZLSvYQAK0iEGKBqBIpkFF30NTUVH3yySf2727aAoGA2rZtq9LSUruskpISpaWlualEakHAKIGKigrde++9sv4ym5iYqIkTJ2rQoEGu66F169Zc966bCgWZKlBTU6MlS5bY135MTIxuvvlmLVq0yNR2PFs3AZZnR0/jCCBgosDatWv13HPPadeuXdINUtQsKeoGEzuhZgTcIRC1SgrcVVdL165dtWDBAiUnuysVrq2tVf/+/bVhwwa7zvfee0933nmnOwCpAgEDBayg+rHHHtO6det0zTXXaOzYsa68pvr168d1b+D5RcnuFDhy5Ihmz56tCRMmKD09XQMGDND48ePdWSxVnVOAAIuTAwEEEDBIYPtTFPGnAAAGUUlEQVT27XrxxRe1cuVKqbnk+7WkxyQlGdQEpSLgEoHgCSn46yhpcdCuyLq7ceTIkYqPj3dJhXVlBINBTZ8+XTNmzLD/3frpsfU/4Zdccomr6qQYBEwQsO5gnjlzpn0NHThwQD169LCv/Xbt2rmu/GnTpnHdu24qFGSigHX3lRVYP//88/bvV155pR1iW48Ss5klQIBl1ryoFgEEPC5gPUK0fPlyTZkyRcePH1dUW8k3PkrBrkHJegwqweNAtI/AhQhUSiqWaldJeqhuh9zcXC1cuNB+VM/n813IURz9zO7du+2fFhcWFtrrvvbaa7rjjjuUnZ1tPwLFhgACPy5QVVVl/7m5fv16+66LrVu32ndhfPeXWDc+lst1z1mNQOME/H6/ysrKtHPnTs2bN8/+s9P6IZX1+ODkyZPVvHnzxi3A3o4LEGA5Ts6CCCCAQOME9uzZo1deeUXLli2T9RMlNZN0v6QbouTLqbuThA0BBM4tUHtQ0l8lzar7TFxcnJ588kkNGzbMfi+GW7dZs2Zp6tSpqq6utkscPny4brrpJl122WVuLZm6EHCNwNGjR7VlyxY7qN6/f799rfft21cjRoxQXl6ea+o8sxCue9eOhsIMECgvL7fDK+vJhTVr1tg/oLKud+uuy969exvQASWeKUCAxTmBAAIIGCZgvdB506ZNmjRpknbs2FH3Qnc2BBBokIB110XHjh01d+5c17376syGrGt96NCh2rx5899f7NygptkJAY8LJCUlqU2bNho9erS6d++u6Oho14pw3bt2NBRmmEBsbKyaNWsm691y1p2X1g+v2MwTIMAyb2ZUjAACCMi6JXrbtm2aM2eONm7caIdY1uMR392ZARECCJxbwHp8ICEhQSkpKerZs6d995X1zyZs1qMQ1mMP1ovcrW9SO3XqlH3tsyGAwI8LWH9Zta59K7zq1KmTfcdlhw4dXH3X5Xcdcd1zdiPQMAErnLaue+tR+6uuukr5+fn2Lx69b5inG/YiwHLDFKgBAQQQaKBAUVGRfUv0Z599pn379unQoUMNPBK7IeAdgZYtW6pFixbq3LmzHWCZuK1atcq+E+urr77S3r17TWyBmhFwVMC688K67q2Xtd9yyy3KyclxdP1QLMZ1HwpFjuElgdTUVPu6tx4b7Natmx1as5ktQIBl9vyoHgEEEEAAAQQQQAABBBBAAAEEEIh4AQKsiB8xDSKAAAIIIIAAAggggAACCCCAAAJmCxBgmT0/qkcAAQQQQAABBBBAAAEEEEAAAQQiXoAAK+JHTIMIIIAAAggggAACCCCAAAIIIICA2QIEWGbPj+oRQAABBBBAAAEEEEAAAQQQQACBiBcgwIr4EdMgAggggAACCCCAAAIIIIAAAgggYLYAAZbZ86N6BBBAAAEEEEAAAQQQQAABBBBAIOIFCLAifsQ0iAACCCCAAAIIIIAAAggggAACCJgtQIBl9vyoHgEEEEAAAQQQQAABBBBAAAEEEIh4AQKsiB8xDSKAAAIIIIAAAggggAACCCCAAAJmCxBgmT0/qkcAAQQQQAABBBBAAAEEEEAAAQQiXoAAK+JHTIMIIIAAAggggAACCCCAAAIIIICA2QIEWGbPj+oRQAABBBBAAAEEEEAAAQQQQACBiBcgwIr4EdMgAggggAACCCCAAAIIIIAAAgggYLYAAZbZ86N6BBBAAAEEEEAAAQQQQAABBBBAIOIFCLAifsQ0iAACCCCAAAIIIIAAAggggAACCJgtQIBl9vyoHgEEEEAAAQQQQAABBBBAAAEEEIh4AQKsiB8xDSKAAAIIIIAAAggggAACCCCAAAJmCxBgmT0/qkcAAQQQQAABBBBAAAEEEEAAAQQiXoAAK+JHTIMIIIAAAggggAACCCCAAAIIIICA2QIEWGbPj+oRQAABBBBAAAEEEEAAAQQQQACBiBcgwIr4EdMgAggggAACCCCAAAIIIIAAAgggYLYAAZbZ86N6BBBAAAEEEEAAAQQQQAABBBBAIOIFCLAifsQ0iAACCCCAAAIIIIAAAggggAACCJgtQIBl9vyoHgEEEEAAAQQQQAABBBBAAAEEEIh4AQKsiB8xDSKAAAIIIIAAAggggAACCCCAAAJmCxBgmT0/qkcAAQQQQAABBBBAAAEEEEAAAQQiXuD/ASIr46sDpDh/AAAAAElFTkSuQmCC;" parent="1" vertex="1">
          <mxGeometry x="267" y="194" width="668.62" height="419" as="geometry" />
        </mxCell>
      </root>
    </mxGraphModel>
  </diagram>
</mxfile>
